<svg width="243" height="137" fill="none" xmlns="http://www.w3.org/2000/svg"><path stroke="#1B1B1B" d="M1 1h241.047v135.416H1zm241.047 5.48H1m241.047 11.61H1m241.047 113.168H1m37.482-10.317H1m37.482-51.269H1m104.361 51.269H64.648m40.713-51.269H64.648m150.586 51.269h-82.718m82.718-51.269h-82.718M38.484 1v135.416M105.367 1v135.416M174.836 1v135.416M64.648 1v135.416M132.516 1v135.416M215.227 1v135.416"/><rect x="42.859" y="70.172" width="1.585" height="10.285" rx=".792" stroke="#1B1B1B"/><rect x="109.742" y="70.172" width="1.585" height="10.285" rx=".792" stroke="#1B1B1B"/><rect x="219.602" y="70.172" width="1.585" height="10.285" rx=".792" stroke="#1B1B1B"/><path stroke="#1B1B1B" d="M134.305 19.879h2.554v48.008h-2.554zm0 51.59h2.554v47.685h-2.554zm36.179-51.59h2.554v48.008h-2.554zm0 51.59h2.554v47.685h-2.554zm-26.492-34.504h21.618v21.569h-21.618z"/><path stroke="#1B1B1B" d="M161.438 38.898h2.231v17.7h-2.231zm-15.5 0h13.54v17.7h-13.54z"/><path stroke="#1B1B1B" d="M146.898 43.738h2.877v11.897h-2.877z"/><path stroke="#1B1B1B" d="M147.547 46.961h1.585v1.579h-1.585z"/><path stroke="#1B1B1B" stroke-width=".967" d="M162.07 45.007h.971v.967h-.971z"/><path stroke="#1B1B1B" stroke-width=".484" d="M157.304 39.609h1.455v.484h-1.455z"/><path stroke="#1B1B1B" stroke-width=".967" d="M162.07 48.237h.971v.967h-.971z"/><path stroke="#1B1B1B" stroke-width=".806" d="M151.005 46.864h.81v.806h-.81zm2.586 0h.81v.806h-.81zm-2.586 2.578h.81v.806h-.81z"/><path stroke="#1B1B1B" stroke-width=".484" d="M150.843 52.504h3.717v.484h-3.717z"/><path stroke="#1B1B1B" stroke-width=".806" d="M153.591 49.442h.81v.806h-.81z"/><path stroke="#1B1B1B" d="M155.625 43.738h2.877v11.897h-2.877z"/><mask id="a" fill="#fff"><ellipse cx="162.555" cy="40.334" rx=".969" ry=".967"/></mask><path d="M162.525 40.334c0-.003 0-.008.003-.013a.035.035 0 01.006-.01l.01-.007a.03.03 0 01.011-.002v2c1.086 0 1.97-.879 1.97-1.968h-2zm.03-.032c.002 0 .007 0 .012.002a.029.029 0 01.009.006l.007.01.003.014h-2c0 1.089.884 1.968 1.969 1.968v-2zm.031.032a.045.045 0 01-.003.014c-.002.005-.005.008-.007.01a.029.029 0 01-.009.007.035.035 0 01-.012.002v-2a1.968 1.968 0 00-1.969 1.967h2zm-.031.033a.03.03 0 01-.011-.002l-.01-.007a.035.035 0 01-.006-.01c-.003-.005-.003-.01-.003-.014h2a1.969 1.969 0 00-1.97-1.967v2z" fill="#1B1B1B" mask="url(#a)"/><mask id="b" fill="#fff"><ellipse cx="162.555" cy="42.913" rx=".969" ry=".967"/></mask><path d="M162.525 42.913c0-.003 0-.009.003-.014a.035.035 0 01.006-.01l.01-.007a.03.03 0 01.011-.002v2c1.086 0 1.97-.879 1.97-1.967h-2zm.03-.033c.002 0 .007 0 .012.002a.029.029 0 01.009.007.029.029 0 01.007.01l.003.014h-2c0 1.088.884 1.967 1.969 1.967v-2zm.031.033a.045.045 0 01-.003.013c-.002.005-.005.008-.007.01a.029.029 0 01-.009.007.035.035 0 01-.012.002v-2a1.968 1.968 0 00-1.969 1.968h2zm-.031.032a.03.03 0 01-.011-.002l-.01-.006a.035.035 0 01-.006-.01c-.003-.006-.003-.011-.003-.014h2a1.969 1.969 0 00-1.97-1.968v2z" fill="#1B1B1B" mask="url(#b)"/><mask id="c" fill="#fff"><ellipse cx="162.552" cy="51.942" rx=".646" ry=".645"/></mask><path d="M162.199 51.942c0-.199.16-.355.353-.355v2c.908 0 1.647-.735 1.647-1.645h-2zm.353-.355c.194 0 .354.156.354.355h-2c0 .91.739 1.645 1.646 1.645v-2zm.354.355c0 .198-.16.355-.354.355v-2c-.907 0-1.646.734-1.646 1.645h2zm-.354.355a.354.354 0 01-.353-.355h2c0-.91-.739-1.645-1.647-1.645v2z" fill="#1B1B1B" mask="url(#c)"/><mask id="d" fill="#fff"><ellipse cx="162.552" cy="53.555" rx=".646" ry=".645"/></mask><path d="M162.199 53.555c0-.198.16-.355.353-.355v2c.908 0 1.647-.735 1.647-1.645h-2zm.353-.355c.194 0 .354.157.354.355h-2c0 .91.739 1.645 1.646 1.645v-2zm.354.355c0 .198-.16.355-.354.355v-2c-.907 0-1.646.735-1.646 1.645h2zm-.354.355a.354.354 0 01-.353-.355h2c0-.91-.739-1.645-1.647-1.645v2z" fill="#1B1B1B" mask="url(#d)"/><mask id="e" fill="#fff"><ellipse cx="162.552" cy="55.164" rx=".646" ry=".645"/></mask><path d="M162.199 55.164c0-.198.16-.355.353-.355v2c.908 0 1.647-.734 1.647-1.645h-2zm.353-.355c.194 0 .354.157.354.355h-2c0 .91.739 1.645 1.646 1.645v-2zm.354.355c0 .199-.16.355-.354.355v-2c-.907 0-1.646.735-1.646 1.645h2zm-.354.355a.354.354 0 01-.353-.355h2c0-.91-.739-1.645-1.647-1.645v2z" fill="#1B1B1B" mask="url(#e)"/><path stroke="#1B1B1B" d="M185.68 36.965h21.618v21.569H185.68z"/><path stroke="#1B1B1B" d="M203.125 38.898h2.231v17.7h-2.231zm-15.5 0h13.54v17.7h-13.54z"/><path stroke="#1B1B1B" d="M188.586 43.738h2.877v11.897h-2.877z"/><path stroke="#1B1B1B" d="M189.234 46.961h1.585v1.579h-1.585z"/><path stroke="#1B1B1B" stroke-width=".967" d="M203.757 45.007h.971v.967h-.971z"/><path stroke="#1B1B1B" stroke-width=".484" d="M198.992 39.609h1.455v.484h-1.455z"/><path stroke="#1B1B1B" stroke-width=".967" d="M203.757 48.237h.971v.967h-.971z"/><path stroke="#1B1B1B" stroke-width=".806" d="M192.692 46.864h.81v.806h-.81zm2.586 0h.81v.806h-.81zm-2.586 2.578h.81v.806h-.81z"/><path stroke="#1B1B1B" stroke-width=".484" d="M192.531 52.504h3.717v.484h-3.717z"/><path stroke="#1B1B1B" stroke-width=".806" d="M195.278 49.442h.81v.806h-.81z"/><path stroke="#1B1B1B" d="M197.312 43.738h2.877v11.897h-2.877z"/><mask id="f" fill="#fff"><ellipse cx="204.243" cy="40.334" rx=".969" ry=".967"/></mask><path d="M204.212 40.334l.003-.013c.002-.005.005-.008.007-.01a.029.029 0 01.009-.007.035.035 0 01.012-.002v2a1.968 1.968 0 001.969-1.968h-2zm.031-.032a.03.03 0 01.011.002.025.025 0 01.01.006.035.035 0 01.006.01c.003.006.003.011.003.014h-2c0 1.089.884 1.968 1.97 1.968v-2zm.03.032c0 .003 0 .009-.003.014a.035.035 0 01-.006.01.025.025 0 01-.01.007.03.03 0 01-.011.002v-2c-1.086 0-1.97.879-1.97 1.967h2zm-.03.033c-.002 0-.007 0-.012-.002a.029.029 0 01-.009-.007.029.029 0 01-.007-.01.045.045 0 01-.003-.014h2a1.968 1.968 0 00-1.969-1.967v2z" fill="#1B1B1B" mask="url(#f)"/><mask id="g" fill="#fff"><ellipse cx="204.243" cy="42.913" rx=".969" ry=".967"/></mask><path d="M204.212 42.913l.003-.014c.002-.005.005-.008.007-.01a.029.029 0 01.009-.007.035.035 0 01.012-.002v2a1.968 1.968 0 001.969-1.967h-2zm.031-.033a.03.03 0 01.011.002.025.025 0 01.01.007.035.035 0 01.006.01c.003.005.003.01.003.014h-2c0 1.088.884 1.967 1.97 1.967v-2zm.03.033c0 .003 0 .008-.003.013a.035.035 0 01-.006.01.025.025 0 01-.01.007.03.03 0 01-.011.002v-2c-1.086 0-1.97.879-1.97 1.968h2zm-.03.032c-.002 0-.007 0-.012-.002a.029.029 0 01-.009-.006l-.007-.01a.045.045 0 01-.003-.014h2a1.968 1.968 0 00-1.969-1.968v2z" fill="#1B1B1B" mask="url(#g)"/><mask id="h" fill="#fff"><ellipse cx="204.24" cy="51.942" rx=".646" ry=".645"/></mask><path d="M203.886 51.942c0-.199.161-.355.354-.355v2c.907 0 1.646-.735 1.646-1.645h-2zm.354-.355c.193 0 .354.156.354.355h-2c0 .91.739 1.645 1.646 1.645v-2zm.354.355a.355.355 0 01-.354.355v-2c-.907 0-1.646.734-1.646 1.645h2zm-.354.355a.355.355 0 01-.354-.355h2c0-.91-.739-1.645-1.646-1.645v2z" fill="#1B1B1B" mask="url(#h)"/><mask id="i" fill="#fff"><ellipse cx="204.24" cy="53.555" rx=".646" ry=".645"/></mask><path d="M203.886 53.555c0-.198.161-.355.354-.355v2c.907 0 1.646-.735 1.646-1.645h-2zm.354-.355c.193 0 .354.157.354.355h-2c0 .91.739 1.645 1.646 1.645v-2zm.354.355a.355.355 0 01-.354.355v-2c-.907 0-1.646.735-1.646 1.645h2zm-.354.355a.355.355 0 01-.354-.355h2c0-.91-.739-1.645-1.646-1.645v2z" fill="#1B1B1B" mask="url(#i)"/><mask id="j" fill="#fff"><ellipse cx="204.24" cy="55.164" rx=".646" ry=".645"/></mask><path d="M203.886 55.164c0-.198.161-.355.354-.355v2c.907 0 1.646-.734 1.646-1.645h-2zm.354-.355c.193 0 .354.157.354.355h-2c0 .91.739 1.645 1.646 1.645v-2zm.354.355a.355.355 0 01-.354.355v-2c-.907 0-1.646.735-1.646 1.645h2zm-.354.355a.355.355 0 01-.354-.355h2c0-.91-.739-1.645-1.646-1.645v2z" fill="#1B1B1B" mask="url(#j)"/><path stroke="#1B1B1B" d="M74.531 36.965h21.618v21.569H74.531z"/><path stroke="#1B1B1B" d="M91.977 38.898h2.231v17.7h-2.231zm-15.5 0h13.54v17.7h-13.54z"/><path stroke="#1B1B1B" d="M77.438 43.738h2.877v11.897h-2.877z"/><path stroke="#1B1B1B" d="M78.086 46.961h1.585v1.579h-1.585z"/><path stroke="#1B1B1B" stroke-width=".967" d="M92.609 45.007h.971v.967h-.971z"/><path stroke="#1B1B1B" stroke-width=".484" d="M87.844 39.609h1.455v.484h-1.455z"/><path stroke="#1B1B1B" stroke-width=".967" d="M92.609 48.237h.971v.967h-.971z"/><path stroke="#1B1B1B" stroke-width=".806" d="M81.544 46.864h.81v.806h-.81zm2.586 0h.81v.806h-.81zm-2.586 2.578h.81v.806h-.81z"/><path stroke="#1B1B1B" stroke-width=".484" d="M81.382 52.504h3.717v.484h-3.717z"/><path stroke="#1B1B1B" stroke-width=".806" d="M84.13 49.442h.81v.806h-.81z"/><path stroke="#1B1B1B" d="M86.164 43.738h2.877v11.897h-2.877z"/><mask id="k" fill="#fff"><ellipse cx="93.094" cy="40.334" rx=".969" ry=".967"/></mask><path d="M93.064 40.334a.038.038 0 01.01-.024.032.032 0 01.02-.009v2c1.086 0 1.97-.878 1.97-1.967h-2zm.03-.032a.032.032 0 01.021.008.038.038 0 01.01.024h-2c0 1.089.884 1.968 1.97 1.968v-2zm.031.032a.038.038 0 01-.01.024.032.032 0 01-.02.009v-2c-1.086 0-1.97.879-1.97 1.967h2zm-.03.033a.032.032 0 01-.022-.009.038.038 0 01-.01-.024h2a1.968 1.968 0 00-1.969-1.967v2z" fill="#1B1B1B" mask="url(#k)"/><mask id="l" fill="#fff"><ellipse cx="93.094" cy="42.913" rx=".969" ry=".967"/></mask><path d="M93.064 42.913c0-.003 0-.009.003-.014a.033.033 0 01.007-.01.032.032 0 01.02-.009v2c1.086 0 1.97-.879 1.97-1.967h-2zm.03-.033a.032.032 0 01.021.009.039.039 0 01.01.024h-2c0 1.088.884 1.967 1.97 1.967v-2zm.031.033a.038.038 0 01-.01.024.032.032 0 01-.02.009v-2c-1.086 0-1.97.878-1.97 1.967h2zm-.03.032a.032.032 0 01-.022-.008.038.038 0 01-.01-.024h2a1.968 1.968 0 00-1.969-1.968v2z" fill="#1B1B1B" mask="url(#l)"/><mask id="m" fill="#fff"><ellipse cx="93.092" cy="51.942" rx=".646" ry=".645"/></mask><path d="M92.738 51.942c0-.199.16-.355.354-.355v2c.907 0 1.646-.735 1.646-1.645h-2zm.354-.355c.193 0 .353.156.353.355h-2c0 .91.74 1.645 1.647 1.645v-2zm.353.355c0 .198-.16.355-.353.355v-2c-.908 0-1.647.734-1.647 1.645h2zm-.353.355a.354.354 0 01-.354-.355h2c0-.91-.74-1.645-1.646-1.645v2z" fill="#1B1B1B" mask="url(#m)"/><mask id="n" fill="#fff"><ellipse cx="93.092" cy="53.555" rx=".646" ry=".645"/></mask><path d="M92.738 53.555c0-.198.16-.355.354-.355v2c.907 0 1.646-.735 1.646-1.645h-2zm.354-.355c.193 0 .353.157.353.355h-2c0 .91.74 1.645 1.647 1.645v-2zm.353.355c0 .198-.16.355-.353.355v-2c-.908 0-1.647.735-1.647 1.645h2zm-.353.355a.354.354 0 01-.354-.355h2c0-.91-.74-1.645-1.646-1.645v2z" fill="#1B1B1B" mask="url(#n)"/><mask id="o" fill="#fff"><ellipse cx="93.092" cy="55.164" rx=".646" ry=".645"/></mask><path d="M92.738 55.164c0-.198.16-.355.354-.355v2c.907 0 1.646-.734 1.646-1.645h-2zm.354-.355c.193 0 .353.157.353.355h-2c0 .91.74 1.645 1.647 1.645v-2zm.353.355c0 .199-.16.355-.353.355v-2c-.908 0-1.647.735-1.647 1.645h2zm-.353.355a.354.354 0 01-.354-.355h2c0-.91-.74-1.645-1.646-1.645v2z" fill="#1B1B1B" mask="url(#o)"/><path stroke="#1B1B1B" d="M8.938 36.965h21.618v21.569H8.938z"/><path stroke="#1B1B1B" d="M26.383 38.898h2.231v17.7h-2.231zm-15.5 0h13.54v17.7h-13.54z"/><path stroke="#1B1B1B" d="M11.844 43.738h2.877v11.897h-2.877z"/><path stroke="#1B1B1B" d="M12.492 46.961h1.585v1.579h-1.585z"/><path stroke="#1B1B1B" stroke-width=".967" d="M27.015 45.007h.971v.967h-.971z"/><path stroke="#1B1B1B" stroke-width=".484" d="M22.25 39.609h1.455v.484H22.25z"/><path stroke="#1B1B1B" stroke-width=".967" d="M27.015 48.237h.971v.967h-.971z"/><path stroke="#1B1B1B" stroke-width=".806" d="M15.95 46.864h.81v.806h-.81zm2.586 0h.81v.806h-.81zm-2.586 2.578h.81v.806h-.81z"/><path stroke="#1B1B1B" stroke-width=".484" d="M15.789 52.504h3.717v.484h-3.717z"/><path stroke="#1B1B1B" stroke-width=".806" d="M18.536 49.442h.81v.806h-.81z"/><path stroke="#1B1B1B" d="M20.57 43.738h2.877v11.897H20.57z"/><mask id="p" fill="#fff"><ellipse cx="27.501" cy="40.334" rx=".969" ry=".967"/></mask><path d="M27.47 40.334a.038.038 0 01.01-.024.03.03 0 01.01-.006.032.032 0 01.01-.002v2c1.086 0 1.97-.879 1.97-1.968h-2zm.03-.032a.029.029 0 01.02.009.038.038 0 01.01.024h-1.999c0 1.088.884 1.967 1.97 1.967v-2zm.031.032a.038.038 0 01-.01.024.029.029 0 01-.009.007.032.032 0 01-.011.002v-2c-1.086 0-1.97.879-1.97 1.967h2zm-.03.033c-.003 0-.007 0-.012-.002a.03.03 0 01-.01-.007.038.038 0 01-.01-.024h2.001a1.968 1.968 0 00-1.97-1.967v2z" fill="#1B1B1B" mask="url(#p)"/><mask id="q" fill="#fff"><ellipse cx="27.501" cy="42.913" rx=".969" ry=".967"/></mask><path d="M27.47 42.913a.039.039 0 01.01-.024.03.03 0 01.01-.007.032.032 0 01.01-.002v2c1.086 0 1.97-.879 1.97-1.967h-2zm.03-.033a.029.029 0 01.02.009.039.039 0 01.01.024h-1.999c0 1.088.884 1.967 1.97 1.967v-2zm.031.033a.038.038 0 01-.01.024.029.029 0 01-.009.006.032.032 0 01-.011.002v-2c-1.086 0-1.97.879-1.97 1.968h2zm-.03.032c-.003 0-.007 0-.012-.002a.03.03 0 01-.01-.006.038.038 0 01-.01-.024h2.001a1.968 1.968 0 00-1.97-1.968v2z" fill="#1B1B1B" mask="url(#q)"/><mask id="r" fill="#fff"><ellipse cx="27.498" cy="51.942" rx=".646" ry=".645"/></mask><path d="M27.144 51.942c0-.199.16-.355.354-.355v2c.907 0 1.646-.735 1.646-1.645h-2zm.354-.355c.193 0 .354.156.354.355h-2c0 .91.739 1.645 1.646 1.645v-2zm.354.355c0 .198-.16.355-.354.355v-2c-.907 0-1.646.734-1.646 1.645h2zm-.354.355a.355.355 0 01-.354-.355h2c0-.91-.74-1.645-1.646-1.645v2z" fill="#1B1B1B" mask="url(#r)"/><mask id="s" fill="#fff"><ellipse cx="27.498" cy="53.555" rx=".646" ry=".645"/></mask><path d="M27.144 53.555c0-.198.16-.355.354-.355v2c.907 0 1.646-.735 1.646-1.645h-2zm.354-.355c.193 0 .354.157.354.355h-2c0 .91.739 1.645 1.646 1.645v-2zm.354.355c0 .198-.16.355-.354.355v-2c-.907 0-1.646.735-1.646 1.645h2zm-.354.355a.355.355 0 01-.354-.355h2c0-.91-.74-1.645-1.646-1.645v2z" fill="#1B1B1B" mask="url(#s)"/><mask id="t" fill="#fff"><ellipse cx="27.498" cy="55.164" rx=".646" ry=".645"/></mask><path d="M27.144 55.164c0-.198.16-.355.354-.355v2c.907 0 1.646-.734 1.646-1.645h-2zm.354-.355c.193 0 .354.157.354.355h-2c0 .91.739 1.645 1.646 1.645v-2zm.354.355c0 .199-.16.355-.354.355v-2c-.907 0-1.646.735-1.646 1.645h2zm-.354.355a.354.354 0 01-.354-.355h2c0-.91-.74-1.645-1.646-1.645v2z" fill="#1B1B1B" mask="url(#t)"/><path stroke="#1B1B1B" d="M8.938 78.879h21.618v21.569H8.938z"/><path stroke="#1B1B1B" d="M26.383 80.813h2.231v17.7h-2.231zm-15.5 0h13.54v17.7h-13.54z"/><path stroke="#1B1B1B" d="M11.844 85.652h2.877v11.897h-2.877z"/><path stroke="#1B1B1B" d="M12.492 88.875h1.585v1.579h-1.585z"/><path stroke="#1B1B1B" stroke-width=".967" d="M27.015 86.921h.971v.967h-.971z"/><path stroke="#1B1B1B" stroke-width=".484" d="M22.25 81.523h1.455v.484H22.25z"/><path stroke="#1B1B1B" stroke-width=".967" d="M27.015 90.152h.971v.967h-.971z"/><path stroke="#1B1B1B" stroke-width=".806" d="M15.95 88.778h.81v.806h-.81zm2.586 0h.81v.806h-.81zm-2.586 2.578h.81v.806h-.81z"/><path stroke="#1B1B1B" stroke-width=".484" d="M15.789 94.418h3.717v.484h-3.717z"/><path stroke="#1B1B1B" stroke-width=".806" d="M18.536 91.356h.81v.806h-.81z"/><path stroke="#1B1B1B" d="M20.57 85.652h2.877v11.897H20.57z"/><mask id="u" fill="#fff"><ellipse cx="27.501" cy="82.249" rx=".969" ry=".967"/></mask><path d="M27.47 82.249c0-.003 0-.009.003-.014a.028.028 0 01.016-.016.034.034 0 01.012-.003v2a1.969 1.969 0 001.969-1.967h-2zm.03-.033a.03.03 0 01.012.002.03.03 0 01.016.016l.003.015h-2c0 1.088.884 1.967 1.97 1.967v-2zm.031.033c0 .002 0 .008-.003.013a.03.03 0 01-.016.017.034.034 0 01-.011.002v-2c-1.086 0-1.97.879-1.97 1.968h2zm-.03.032c-.003 0-.007 0-.012-.002a.028.028 0 01-.016-.017.039.039 0 01-.003-.013h2a1.968 1.968 0 00-1.97-1.968v2z" fill="#1B1B1B" mask="url(#u)"/><mask id="v" fill="#fff"><ellipse cx="27.501" cy="84.827" rx=".969" ry=".967"/></mask><path d="M27.47 84.827a.038.038 0 01.01-.024.03.03 0 01.01-.006.032.032 0 01.01-.003v2c1.086 0 1.97-.879 1.97-1.967h-2zm.03-.033c.003 0 .007 0 .012.003a.029.029 0 01.01.006.038.038 0 01.01.024h-2c0 1.088.883 1.967 1.969 1.967v-2zm.031.033a.039.039 0 01-.01.024.029.029 0 01-.009.006.032.032 0 01-.011.002v-2a1.97 1.97 0 00-1.97 1.968h2zm-.03.032c-.003 0-.007 0-.012-.002a.03.03 0 01-.01-.006.039.039 0 01-.01-.024h2.001a1.968 1.968 0 00-1.97-1.968v2z" fill="#1B1B1B" mask="url(#v)"/><mask id="w" fill="#fff"><ellipse cx="27.498" cy="93.856" rx=".646" ry=".645"/></mask><path d="M27.144 93.856c0-.198.16-.355.354-.355v2c.907 0 1.646-.735 1.646-1.645h-2zm.354-.355c.193 0 .354.157.354.355h-2c0 .91.739 1.645 1.646 1.645v-2zm.354.355c0 .198-.16.355-.354.355v-2c-.907 0-1.646.734-1.646 1.645h2zm-.354.355a.354.354 0 01-.354-.355h2c0-.91-.74-1.645-1.646-1.645v2z" fill="#1B1B1B" mask="url(#w)"/><mask id="x" fill="#fff"><ellipse cx="27.498" cy="95.469" rx=".646" ry=".645"/></mask><path d="M27.144 95.47c0-.2.16-.356.354-.356v2c.907 0 1.646-.735 1.646-1.645h-2zm.354-.356c.193 0 .354.157.354.355h-2c0 .91.739 1.645 1.646 1.645v-2zm.354.355c0 .198-.16.355-.354.355v-2c-.907 0-1.646.735-1.646 1.645h2zm-.354.355a.354.354 0 01-.354-.355h2c0-.91-.74-1.645-1.646-1.645v2z" fill="#1B1B1B" mask="url(#x)"/><mask id="y" fill="#fff"><ellipse cx="27.498" cy="97.078" rx=".646" ry=".645"/></mask><path d="M27.144 97.078c0-.198.16-.355.354-.355v2c.907 0 1.646-.734 1.646-1.645h-2zm.354-.355c.193 0 .354.157.354.355h-2c0 .91.739 1.645 1.646 1.645v-2zm.354.355c0 .199-.16.356-.354.356v-2c-.907 0-1.646.734-1.646 1.644h2zm-.354.356a.355.355 0 01-.354-.356h2c0-.91-.74-1.644-1.646-1.644v2z" fill="#1B1B1B" mask="url(#y)"/><path stroke="#1B1B1B" d="M8.93 26.969h5.139v6.093H8.93zm65.593 0h5.139v6.093h-5.139zm16.485 47.398h5.139v6.093h-5.139zm-16.485.969h5.139v4.159h-5.139zM185.68 26.969h5.139v6.093h-5.139zm-41.68 0h5.139v6.093H144zm-.008 52.554h13.54v9.317h-13.54z"/><path stroke="#1B1B1B" d="M144.641 81.457h12.248v6.738h-12.248z"/><path stroke="#1B1B1B" d="M145.609 82.106h9.663v4.804h-9.663zM16.367 26.969h5.139v6.093h-5.139zm176.742 0h5.139v6.093h-5.139zm-165.792.956a.63.63 0 01-.631.629.63.63 0 11.63-.629zm0 3.223a.63.63 0 01-.631.628.63.63 0 11.63-.628zm3.226-3.223a.63.63 0 01-.63.629.63.63 0 01-.632-.629.63.63 0 01.631-.628.63.63 0 01.631.628zm0 3.223a.63.63 0 01-.63.628.63.63 0 01-.632-.628.63.63 0 01.631-.628.63.63 0 01.631.628zm62.367-3.223a.63.63 0 01-.63.629.63.63 0 01-.632-.629.63.63 0 01.631-.628.63.63 0 01.631.628zm0 3.223a.63.63 0 01-.63.628.63.63 0 01-.632-.628.63.63 0 01.631-.628.63.63 0 01.631.628zm3.227-3.223a.63.63 0 01-.631.629.63.63 0 11.63-.629zm0 3.223a.63.63 0 01-.631.628.63.63 0 11.63-.628zm107.93-3.223a.63.63 0 01-1.262 0 .63.63 0 011.262 0zm0 3.223a.63.63 0 01-1.262 0 .63.63 0 011.262 0zm3.226-3.223a.63.63 0 01-1.262 0 .63.63 0 011.262 0zm0 3.223a.63.63 0 01-1.262 0 .63.63 0 011.262 0zm-44.914-3.223a.63.63 0 01-1.262 0 .63.63 0 011.262 0zm0 3.223a.63.63 0 01-1.262 0 .63.63 0 011.262 0zm3.227-3.223a.63.63 0 01-1.262 0 .63.63 0 011.262 0zm0 3.223a.63.63 0 01-1.262 0 .63.63 0 011.262 0zm-3.224 49.169c0 .435-.354.79-.793.79a.791.791 0 01-.792-.79.791.791 0 011.585 0zm-22.94-.161a.63.63 0 01-1.262 0 .63.63 0 011.262 0zm0 31.273a.63.63 0 01-1.262 0 .63.63 0 01.631-.628.63.63 0 01.631.628zm-68.5-31.273a.63.63 0 01-.631.628.63.63 0 11.63-.628zm-64.305 0a.63.63 0 01-.631.628.63.63 0 11.63-.628zm0 30.629a.63.63 0 01-.631.628.63.63 0 110-1.257c.35 0 .63.283.63.629zm174.484-30.629a.63.63 0 01-1.262 0 .63.63 0 011.262 0zm0 31.273a.63.63 0 01-1.262 0 .63.63 0 01.631-.628.63.63 0 01.631.628zm-41.679-52.234a.63.63 0 01-1.262 0 .63.63 0 011.262 0zm0-30.949a.63.63 0 01-1.262 0 .63.63 0 011.262 0zm-68.5 0a.63.63 0 01-.631.628.63.63 0 110-1.257c.35 0 .63.283.63.629zm-64.305 0a.63.63 0 01-.631.628.63.63 0 11.63-.628zm64.305 30.949a.63.63 0 01-.631.628.63.63 0 110-1.257c.35 0 .63.283.63.629zm-64.305 0a.63.63 0 01-.631.628.63.63 0 11.63-.628zm174.484 0a.63.63 0 01-1.262 0 .63.63 0 011.262 0zm0-30.949a.63.63 0 01-1.262 0 .63.63 0 011.262 0zm-14.864 52.071c0 .435-.354.79-.793.79a.791.791 0 01-.792-.79.791.791 0 011.585 0zm-4.171 5.656h2.231v2.224h-2.231z"/><mask id="z" fill="#fff"><path fill-rule="evenodd" clip-rule="evenodd" d="M163.529 87.996a.968.968 0 00-.325-1.879.968.968 0 00-.321 1.88v1.022h.646v-1.023z"/></mask><path d="M163.529 87.996l-.335-.942-.665.236v.706h1zm-.646.001h1v-.71l-.67-.233-.33.943zm0 1.022h-1v1h1v-1zm.646 0v1h1v-1h-1zm-.356-1.935l.002-.01a.025.025 0 01.005-.01.029.029 0 01.014-.01l.67 1.884a1.968 1.968 0 001.309-1.854h-2zm.031.033c-.002 0-.007 0-.012-.002a.029.029 0 01-.009-.007.029.029 0 01-.007-.01.045.045 0 01-.003-.014h2a1.968 1.968 0 00-1.969-1.967v2zm.03-.033c0 .003 0 .009-.003.014a.035.035 0 01-.006.01l-.01.007a.03.03 0 01-.011.002v-2c-1.086 0-1.97.879-1.97 1.967h2zm-.021-.03c.007.002.012.006.014.01a.025.025 0 01.005.01.022.022 0 01.002.01h-2c0 .862.553 1.59 1.318 1.857l.661-1.887zm.67 1.965v-1.022h-2v1.022h2zm-.354-1h-.646v2h.646v-2zm-1-.023v1.023h2v-1.023h-2z" fill="#1B1B1B" mask="url(#z)"/><path stroke="#1B1B1B" d="M162.086 93.715h2.231v2.224h-2.231z"/><mask id="A" fill="#fff"><path fill-rule="evenodd" clip-rule="evenodd" d="M162.483 95.595a.97.97 0 001.116.103.966.966 0 00.354-1.321.97.97 0 00-1.793.66l-.892.513.323.559.892-.514z"/></mask><path d="M162.483 95.595l.651-.759-.539-.46-.613.353.501.866zm-.323-.559l.501.866.612-.353-.128-.694-.985.181zm-.892.514l-.501-.865-.867.5.501.865.867-.5zm.323.559l-.867.5.501.865.867-.5-.501-.865zm1.507-1.276a.023.023 0 01.009-.004h.01c.005 0 .01.002.017.007l-1.302 1.518a1.974 1.974 0 002.267.21l-1.001-1.731zm-.011.043l-.004-.013a.022.022 0 01.001-.012c0-.003.002-.006.005-.01a.03.03 0 01.009-.008l1.001 1.73a1.963 1.963 0 00.721-2.686l-1.733.999zm.043.012a.03.03 0 01-.012.004h-.011a.03.03 0 01-.011-.006.038.038 0 01-.009-.01l1.733-.999a1.973 1.973 0 00-2.692-.72l1.002 1.731zm.015-.033a.033.033 0 01-.002.019.026.026 0 01-.006.008l-.007.006-1.002-1.73a1.966 1.966 0 00-.952 2.059l1.969-.362zm-1.377 1.561l.893-.514-1.001-1.731-.893.514 1.001 1.731zm.689-.806l-.323-.559-1.733.999.323.558 1.733-.998zm-.475-.88l-.892.513 1.002 1.732.892-.514-1.002-1.731z" fill="#1B1B1B" mask="url(#A)"/><path d="M16.418 67.562l3.652-6.247 3.653 6.247h-7.305z" stroke="#1B1B1B"/><path d="M20.066 66.772l-.162-.644h.484l-.322.644z" fill="#1B1B1B"/><path d="M20.066 62.742l-.808 2.418 1.13-.644-.322 2.256m0 0l-.162-.644h.485l-.323.644zm28.009 5.298l3.652-6.247 3.652 6.247h-7.304z" stroke="#1B1B1B"/><path d="M51.722 71.28l-.162-.645h.485l-.323.645z" fill="#1B1B1B"/><path d="M51.722 67.25l-.808 2.418 1.131-.645-.323 2.257m0 0l-.162-.645h.485l-.323.645zm63.892.794l3.652-6.247 3.652 6.247h-7.304z" stroke="#1B1B1B"/><path d="M119.261 71.284l-.162-.645h.485l-.323.645z" fill="#1B1B1B"/><path d="M119.261 67.254l-.808 2.418 1.131-.645-.323 2.257m0 0l-.162-.645h.485l-.323.645zm106.22.786l3.652-6.247 3.652 6.247h-7.304z" stroke="#1B1B1B"/><path d="M229.128 71.28l-.161-.645h.484l-.323.645z" fill="#1B1B1B"/><path d="M229.128 67.25l-.808 2.418 1.131-.645-.323 2.257m0 0l-.161-.645h.484l-.323.645zM81.684 66.918l3.652-6.248 3.652 6.248h-7.304z" stroke="#1B1B1B"/><path d="M85.331 66.128l-.161-.645h.484l-.323.645z" fill="#1B1B1B"/><path d="M85.331 62.098l-.808 2.418 1.131-.645-.323 2.257m0 0l-.161-.645h.484l-.323.645zm65.814.79l3.652-6.248 3.652 6.248h-7.304z" stroke="#1B1B1B"/><path d="M154.792 66.128l-.161-.645h.484l-.323.645z" fill="#1B1B1B"/><path d="M154.792 62.098l-.808 2.418 1.131-.645-.323 2.257m0 0l-.161-.645h.484l-.323.645zm-3.647 47.54l3.652-6.248 3.652 6.248h-7.304z" stroke="#1B1B1B"/><path d="M154.792 112.878l-.161-.645h.484l-.323.645z" fill="#1B1B1B"/><path d="M154.792 108.848l-.808 2.418 1.131-.645-.323 2.257m0 0l-.161-.645h.484l-.323.645zm37.392-45.96l3.652-6.248 3.652 6.248h-7.304z" stroke="#1B1B1B"/><path d="M195.831 66.128l-.161-.645h.484l-.323.645z" fill="#1B1B1B"/><path d="M195.831 62.098l-.808 2.418 1.131-.645-.323 2.257m0 0l-.161-.645h.484l-.323.645zm-3.647 47.54l3.652-6.248 3.652 6.248h-7.304z" stroke="#1B1B1B"/><path d="M195.831 112.878l-.161-.645h.484l-.323.645z" fill="#1B1B1B"/><path d="M195.831 108.848l-.808 2.418 1.131-.645-.323 2.257m0 0l-.161-.645h.484l-.323.645zm-80.538-97.222l3.653-6.247 3.652 6.247h-7.305z" stroke="#1B1B1B"/><path d="M118.941 14.866l-.162-.645h.485l-.323.645z" fill="#1B1B1B"/><path d="M118.941 10.836l-.808 2.418 1.131-.645-.323 2.257m0 0l-.162-.645h.485l-.323.645zm106.212.79l3.652-6.247 3.652 6.247h-7.304z" stroke="#1B1B1B"/><path d="M228.8 14.866l-.162-.645h.485l-.323.645z" fill="#1B1B1B"/><path d="M228.8 10.836l-.808 2.418 1.131-.645-.323 2.257m0 0l-.162-.645h.485l-.323.645zm-181.046.79l3.653-6.247 3.652 6.247h-7.305z" stroke="#1B1B1B"/><path d="M51.401 14.866l-.161-.645h.484l-.322.645z" fill="#1B1B1B"/><path d="M51.401 10.836l-.807 2.418 1.13-.645-.322 2.257m0 0l-.162-.645h.485l-.324.645zm30.282 73.649l3.652-6.247 3.652 6.247h-7.304z" stroke="#1B1B1B"/><path d="M85.331 87.725l-.161-.644h.484l-.323.644z" fill="#1B1B1B"/><path d="M85.331 83.695l-.808 2.418 1.131-.644-.323 2.257m0 0l-.161-.645h.484l-.323.644zM208.281 9.7v.967m-.812-.967v.967m-.797-.967v.967m-.813-.967v.967m-.804-.967v.967m-.813-.967v.967m-.812-.967v.967m-.797-.967v.967m-.813-.967v.967m-.804-.967v.967m-.813-.967v.967m-.805-.967v.967m-.804-.967v.967m-.813-.967v.967m-.812-.967v.967m-.805-.967v.967m-.805-.967v.967m-.812-.967v.967m-.805-.967v.967m-.812-.967v.967m-.805-.967v.967m-.805-.967v.967m-.812-.967v.967m-.797-.967v.967m-.813-.967v.967m-.804-.967v.967m-.813-.967v.967m-.812-.967v.967m-.805-.967v.967m-.812-.967v.967m-.797-.967v.967m-.813-.967v.967m-.804-.967v.967m-.813-.967v.967m26.656.966v.967m-.812-.967v.967m-.797-.967v.967m-.813-.967v.967m-.804-.967v.967m-.813-.967v.967m-.812-.967v.967m-.797-.967v.967m-.813-.967v.967m-.804-.967v.967m-.813-.967v.967m-.805-.967v.967m-.804-.967v.967m-.813-.967v.967m-.812-.967v.967m-.805-.967v.967m-.805-.967v.967m-.812-.967v.967m-.805-.967v.967m-.812-.967v.967m-.805-.967v.967m-.805-.967v.967m-.812-.967v.967m-.797-.967v.967m-.813-.967v.967m-.804-.967v.967m-.813-.967v.967m-.812-.967v.967m-.805-.967v.967m-.812-.967v.967m-.797-.967v.967m-.813-.967v.967m-.804-.967v.967m-.813-.967v.967m26.656.97v.968m-.812-.968v.968m-.797-.968v.968m-.813-.968v.968m-.804-.968v.968m-.813-.968v.968m-.812-.968v.968m-.797-.968v.968m-.813-.968v.968m-.804-.968v.968m-.813-.968v.968m-.805-.968v.968m-.804-.968v.968m-.813-.968v.968m-.812-.968v.968m-.805-.968v.968m-.805-.968v.968m-.812-.968v.968m-.805-.968v.968m-.812-.968v.968m-.805-.968v.968m-.805-.968v.968m-.812-.968v.968m-.797-.968v.968m-.813-.968v.968m-.804-.968v.968m-.813-.968v.968m-.812-.968v.968m-.805-.968v.968m-.812-.968v.968m-.797-.968v.968m-.813-.968v.968m-.804-.968v.968m-.813-.968v.968m26.656 109.302v.967m-.812-.967v.967m-.797-.967v.967m-.813-.967v.967m-.804-.967v.967m-.813-.967v.967m-.812-.967v.967m-.797-.967v.967m-.813-.967v.967m-.804-.967v.967m-.813-.967v.967m-.805-.967v.967m-.804-.967v.967m-.813-.967v.967m-.812-.967v.967m-.805-.967v.967m-.805-.967v.967m-.812-.967v.967m-.805-.967v.967m-.812-.967v.967m-.805-.967v.967m-.805-.967v.967m-.812-.967v.967m-.797-.967v.967m-.813-.967v.967m-.804-.967v.967m-.813-.967v.967m-.812-.967v.967m-.805-.967v.967m-.812-.967v.967m-.797-.967v.967m-.813-.967v.967m-.804-.967v.967m-.813-.967v.967m26.656.966v.968m-.812-.968v.968m-.797-.968v.968m-.813-.968v.968m-.804-.968v.968m-.813-.968v.968m-.812-.968v.968m-.797-.968v.968m-.813-.968v.968m-.804-.968v.968m-.813-.968v.968m-.805-.968v.968m-.804-.968v.968m-.813-.968v.968m-.812-.968v.968m-.805-.968v.968m-.805-.968v.968m-.812-.968v.968m-.805-.968v.968m-.812-.968v.968m-.805-.968v.968m-.805-.968v.968m-.812-.968v.968m-.797-.968v.968m-.813-.968v.968m-.804-.968v.968m-.813-.968v.968m-.812-.968v.968m-.805-.968v.968m-.812-.968v.968m-.797-.968v.968m-.813-.968v.968m-.804-.968v.968m-.813-.968v.968m26.656.966v.968m-.812-.968v.968m-.797-.968v.968m-.813-.968v.968m-.804-.968v.968m-.813-.968v.968m-.812-.968v.968m-.797-.968v.968m-.813-.968v.968m-.804-.968v.968m-.813-.968v.968m-.805-.968v.968m-.804-.968v.968m-.813-.968v.968m-.812-.968v.968m-.805-.968v.968m-.805-.968v.968m-.812-.968v.968m-.805-.968v.968m-.812-.968v.968m-.805-.968v.968m-.805-.968v.968m-.812-.968v.968m-.797-.968v.968m-.813-.968v.968m-.804-.968v.968m-.813-.968v.968m-.812-.968v.968m-.805-.968v.968m-.812-.968v.968m-.797-.968v.968m-.813-.968v.968m-.804-.968v.968m-.813-.968v.968M166.594 9.7v.967m-.813-.967v.967m-.797-.967v.967m-.812-.967v.967m-.805-.967v.967m-.812-.967v.967m-.813-.967v.967m-.797-.967v.967m-.812-.967v.967m-.805-.967v.967m-.812-.967v.967m-.805-.967v.967m-.805-.967v.967m-.812-.967v.967m-.813-.967v.967m-.804-.967v.967m-.805-.967v.967m-.813-.967v.967m-.804-.967v.967m-.813-.967v.967m-.804-.967v.967m-.805-.967v.967m-.813-.967v.967m-.797-.967v.967m-.812-.967v.967m-.805-.967v.967m-.812-.967v.967m-.813-.967v.967m-.804-.967v.967m-.813-.967v.967m-.797-.967v.967m-.812-.967v.967m-.805-.967v.967m-.812-.967v.967m26.656.966v.967m-.813-.967v.967m-.797-.967v.967m-.812-.967v.967m-.805-.967v.967m-.812-.967v.967m-.813-.967v.967m-.797-.967v.967m-.812-.967v.967m-.805-.967v.967m-.812-.967v.967m-.805-.967v.967m-.805-.967v.967m-.812-.967v.967m-.813-.967v.967m-.804-.967v.967m-.805-.967v.967m-.813-.967v.967m-.804-.967v.967m-.813-.967v.967m-.804-.967v.967m-.805-.967v.967m-.813-.967v.967m-.797-.967v.967m-.812-.967v.967m-.805-.967v.967m-.812-.967v.967m-.813-.967v.967m-.804-.967v.967m-.813-.967v.967m-.797-.967v.967m-.812-.967v.967m-.805-.967v.967m-.812-.967v.967m26.656.97v.968m-.813-.968v.968m-.797-.968v.968m-.812-.968v.968m-.805-.968v.968m-.812-.968v.968m-.813-.968v.968m-.797-.968v.968m-.812-.968v.968m-.805-.968v.968m-.812-.968v.968m-.805-.968v.968m-.805-.968v.968m-.812-.968v.968m-.813-.968v.968m-.804-.968v.968m-.805-.968v.968m-.813-.968v.968m-.804-.968v.968m-.813-.968v.968m-.804-.968v.968m-.805-.968v.968m-.813-.968v.968m-.797-.968v.968m-.812-.968v.968m-.805-.968v.968m-.812-.968v.968m-.813-.968v.968m-.804-.968v.968m-.813-.968v.968m-.797-.968v.968m-.812-.968v.968m-.805-.968v.968m-.812-.968v.968m26.656 109.302v.967m-.813-.967v.967m-.797-.967v.967m-.812-.967v.967m-.805-.967v.967m-.812-.967v.967m-.813-.967v.967m-.797-.967v.967m-.812-.967v.967m-.805-.967v.967m-.812-.967v.967m-.805-.967v.967m-.805-.967v.967m-.812-.967v.967m-.813-.967v.967m-.804-.967v.967m-.805-.967v.967m-.813-.967v.967m-.804-.967v.967m-.813-.967v.967m-.804-.967v.967m-.805-.967v.967m-.813-.967v.967m-.797-.967v.967m-.812-.967v.967m-.805-.967v.967m-.812-.967v.967m-.813-.967v.967m-.804-.967v.967m-.813-.967v.967m-.797-.967v.967m-.812-.967v.967m-.805-.967v.967m-.812-.967v.967m26.656.966v.968m-.813-.968v.968m-.797-.968v.968m-.812-.968v.968m-.805-.968v.968m-.812-.968v.968m-.813-.968v.968m-.797-.968v.968m-.812-.968v.968m-.805-.968v.968m-.812-.968v.968m-.805-.968v.968m-.805-.968v.968m-.812-.968v.968m-.813-.968v.968m-.804-.968v.968m-.805-.968v.968m-.813-.968v.968m-.804-.968v.968m-.813-.968v.968m-.804-.968v.968m-.805-.968v.968m-.813-.968v.968m-.797-.968v.968m-.812-.968v.968m-.805-.968v.968m-.812-.968v.968m-.813-.968v.968m-.804-.968v.968m-.813-.968v.968m-.797-.968v.968m-.812-.968v.968m-.805-.968v.968m-.812-.968v.968m26.656.966v.968m-.813-.968v.968m-.797-.968v.968m-.812-.968v.968m-.805-.968v.968m-.812-.968v.968m-.813-.968v.968m-.797-.968v.968m-.812-.968v.968m-.805-.968v.968m-.812-.968v.968m-.805-.968v.968m-.805-.968v.968m-.812-.968v.968m-.813-.968v.968m-.804-.968v.968m-.805-.968v.968m-.813-.968v.968m-.804-.968v.968m-.813-.968v.968m-.804-.968v.968m-.805-.968v.968m-.813-.968v.968m-.797-.968v.968m-.812-.968v.968m-.805-.968v.968m-.812-.968v.968m-.813-.968v.968m-.804-.968v.968m-.813-.968v.968m-.797-.968v.968m-.812-.968v.968m-.805-.968v.968m-.812-.968v.968M99.063 9.7v.967M98.25 9.7v.967m-.797-.967v.967M96.64 9.7v.967m-.804-.967v.967m-.813-.967v.967M94.21 9.7v.967m-.796-.967v.967m-.812-.967v.967m-.805-.967v.967m-.813-.967v.967M90.18 9.7v.967m-.805-.967v.967m-.812-.967v.967M87.75 9.7v.967m-.805-.967v.967M86.14 9.7v.967m-.812-.967v.967m-.805-.967v.967M83.71 9.7v.967m-.804-.967v.967m-.804-.967v.967M81.29 9.7v.967m-.798-.967v.967M79.68 9.7v.967m-.805-.967v.967m-.812-.967v.967M77.25 9.7v.967m-.805-.967v.967m-.812-.967v.967m-.797-.967v.967m-.813-.967v.967m-.804-.967v.967m-.813-.967v.967m26.657.966v.967m-.813-.967v.967m-.797-.967v.967m-.813-.967v.967m-.804-.967v.967m-.813-.967v.967m-.813-.967v.967m-.796-.967v.967m-.812-.967v.967m-.805-.967v.967m-.813-.967v.967m-.804-.967v.967m-.805-.967v.967m-.812-.967v.967m-.813-.967v.967m-.805-.967v.967m-.805-.967v.967m-.812-.967v.967m-.805-.967v.967m-.813-.967v.967m-.804-.967v.967m-.804-.967v.967m-.812-.967v.967m-.798-.967v.967m-.812-.967v.967m-.805-.967v.967m-.812-.967v.967m-.813-.967v.967m-.805-.967v.967m-.812-.967v.967m-.797-.967v.967m-.813-.967v.967m-.804-.967v.967m-.813-.967v.967m26.657.97v.968m-.813-.968v.968m-.797-.968v.968m-.813-.968v.968m-.804-.968v.968m-.813-.968v.968m-.813-.968v.968m-.796-.968v.968m-.812-.968v.968m-.805-.968v.968m-.813-.968v.968m-.804-.968v.968m-.805-.968v.968m-.812-.968v.968m-.813-.968v.968m-.805-.968v.968m-.805-.968v.968m-.812-.968v.968m-.805-.968v.968m-.813-.968v.968m-.804-.968v.968m-.804-.968v.968m-.812-.968v.968m-.798-.968v.968m-.812-.968v.968m-.805-.968v.968m-.812-.968v.968m-.813-.968v.968m-.805-.968v.968m-.812-.968v.968m-.797-.968v.968m-.813-.968v.968m-.804-.968v.968m-.813-.968v.968M98.414 123.84v.967m-.812-.967v.967m-.797-.967v.967m-.813-.967v.967m-.804-.967v.967m-.813-.967v.967m-.812-.967v.967m-.797-.967v.967m-.813-.967v.967m-.805-.967v.967m-.812-.967v.967m-.805-.967v.967m-.804-.967v.967m-.813-.967v.967m-.812-.967v.967m-.805-.967v.967m-.805-.967v.967m-.812-.967v.967m-.805-.967v.967m-.812-.967v.967m-.805-.967v.967m-.805-.967v.967m-.813-.967v.967m-.796-.967v.967m-.813-.967v.967m-.804-.967v.967m-.813-.967v.967m-.812-.967v.967m-.805-.967v.967m-.813-.967v.967m-.796-.967v.967m-.813-.967v.967m-.805-.967v.967m-.812-.967v.967m26.656.966v.968m-.812-.968v.968m-.797-.968v.968m-.813-.968v.968m-.804-.968v.968m-.813-.968v.968m-.812-.968v.968m-.797-.968v.968m-.813-.968v.968m-.805-.968v.968m-.812-.968v.968m-.805-.968v.968m-.804-.968v.968m-.813-.968v.968m-.812-.968v.968m-.805-.968v.968m-.805-.968v.968m-.812-.968v.968m-.805-.968v.968m-.812-.968v.968m-.805-.968v.968m-.805-.968v.968m-.813-.968v.968m-.796-.968v.968m-.813-.968v.968m-.804-.968v.968m-.813-.968v.968m-.812-.968v.968m-.805-.968v.968m-.813-.968v.968m-.796-.968v.968m-.813-.968v.968m-.805-.968v.968m-.812-.968v.968m26.656.966v.968m-.812-.968v.968m-.797-.968v.968m-.813-.968v.968m-.804-.968v.968m-.813-.968v.968m-.812-.968v.968m-.797-.968v.968m-.813-.968v.968m-.805-.968v.968m-.812-.968v.968m-.805-.968v.968m-.804-.968v.968m-.813-.968v.968m-.812-.968v.968m-.805-.968v.968m-.805-.968v.968m-.812-.968v.968m-.805-.968v.968m-.812-.968v.968m-.805-.968v.968m-.805-.968v.968m-.813-.968v.968m-.796-.968v.968m-.813-.968v.968m-.804-.968v.968m-.813-.968v.968m-.812-.968v.968m-.805-.968v.968m-.813-.968v.968m-.796-.968v.968m-.813-.968v.968m-.805-.968v.968m-.812-.968v.968m26.656-15.155v.967m-.812-.967v.967m-.797-.967v.967m-.813-.967v.967m-.804-.967v.967m-.813-.967v.967m-.812-.967v.967m-.797-.967v.967m-.813-.967v.967m-.805-.967v.967m-.812-.967v.967m-.805-.967v.967m-.804-.967v.967m-.813-.967v.967m-.812-.967v.967m-.805-.967v.967m-.805-.967v.967m-.812-.967v.967m-.805-.967v.967m-.812-.967v.967m-.805-.967v.967m-.805-.967v.967m-.813-.967v.967m-.796-.967v.967m-.813-.967v.967m-.804-.967v.967m-.813-.967v.967m-.812-.967v.967m-.805-.967v.967m-.813-.967v.967m-.796-.967v.967m-.813-.967v.967m-.805-.967v.967m-.812-.967v.967m26.656.97v.968m-.812-.968v.968m-.797-.968v.968m-.813-.968v.968m-.804-.968v.968m-.813-.968v.968m-.812-.968v.968m-.797-.968v.968m-.813-.968v.968m-.805-.968v.968m-.812-.968v.968m-.805-.968v.968m-.804-.968v.968m-.813-.968v.968m-.812-.968v.968m-.805-.968v.968m-.805-.968v.968m-.812-.968v.968m-.805-.968v.968m-.812-.968v.968m-.805-.968v.968m-.805-.968v.968m-.813-.968v.968m-.796-.968v.968m-.813-.968v.968m-.804-.968v.968m-.813-.968v.968m-.812-.968v.968m-.805-.968v.968m-.813-.968v.968m-.796-.968v.968m-.813-.968v.968m-.805-.968v.968m-.812-.968v.968m26.656.966v.967m-.812-.967v.967m-.797-.967v.967m-.813-.967v.967m-.804-.967v.967m-.813-.967v.967m-.812-.967v.967m-.797-.967v.967m-.813-.967v.967m-.805-.967v.967m-.812-.967v.967m-.805-.967v.967m-.804-.967v.967m-.813-.967v.967m-.812-.967v.967m-.805-.967v.967m-.805-.967v.967m-.812-.967v.967m-.805-.967v.967m-.812-.967v.967m-.805-.967v.967m-.805-.967v.967m-.813-.967v.967m-.796-.967v.967m-.813-.967v.967m-.804-.967v.967m-.813-.967v.967m-.812-.967v.967m-.805-.967v.967m-.813-.967v.967m-.796-.967v.967m-.813-.967v.967m-.805-.967v.967m-.812-.967v.967m26.656-15.155v.968m-.812-.968v.968m-.797-.968v.968m-.813-.968v.968m-.804-.968v.968m-.813-.968v.968m-.812-.968v.968m-.797-.968v.968m-.813-.968v.968m-.805-.968v.968m-.812-.968v.968m-.805-.968v.968m-.804-.968v.968m-.813-.968v.968m-.812-.968v.968m-.805-.968v.968m-.805-.968v.968m-.812-.968v.968m-.805-.968v.968m-.812-.968v.968m-.805-.968v.968m-.805-.968v.968m-.813-.968v.968m-.796-.968v.968m-.813-.968v.968m-.804-.968v.968m-.813-.968v.968m-.812-.968v.968m-.805-.968v.968m-.813-.968v.968m-.796-.968v.968m-.813-.968v.968m-.805-.968v.968m-.812-.968v.968m26.656.97v.967m-.812-.967v.967m-.797-.967v.967m-.813-.967v.967m-.804-.967v.967m-.813-.967v.967m-.812-.967v.967m-.797-.967v.967m-.813-.967v.967m-.805-.967v.967m-.812-.967v.967m-.805-.967v.967m-.804-.967v.967m-.813-.967v.967m-.812-.967v.967m-.805-.967v.967m-.805-.967v.967m-.812-.967v.967m-.805-.967v.967m-.812-.967v.967m-.805-.967v.967m-.805-.967v.967m-.813-.967v.967m-.796-.967v.967m-.813-.967v.967m-.804-.967v.967m-.813-.967v.967m-.812-.967v.967m-.805-.967v.967m-.813-.967v.967m-.796-.967v.967m-.813-.967v.967m-.805-.967v.967m-.812-.967v.967m26.656.962v.968m-.812-.968v.968m-.797-.968v.968m-.813-.968v.968m-.804-.968v.968m-.813-.968v.968m-.812-.968v.968m-.797-.968v.968m-.813-.968v.968m-.805-.968v.968m-.812-.968v.968m-.805-.968v.968m-.804-.968v.968m-.813-.968v.968m-.812-.968v.968m-.805-.968v.968m-.805-.968v.968m-.812-.968v.968m-.805-.968v.968m-.812-.968v.968m-.805-.968v.968m-.805-.968v.968m-.813-.968v.968m-.796-.968v.968m-.813-.968v.968m-.804-.968v.968m-.813-.968v.968m-.812-.968v.968m-.805-.968v.968m-.813-.968v.968m-.796-.968v.968m-.813-.968v.968m-.805-.968v.968m-.812-.968v.968m26.656-15.155v.967m-.812-.967v.967m-.797-.967v.967m-.813-.967v.967m-.804-.967v.967m-.813-.967v.967m-.812-.967v.967m-.797-.967v.967m-.813-.967v.967m-.805-.967v.967m-.812-.967v.967m-.805-.967v.967m-.804-.967v.967m-.813-.967v.967m-.812-.967v.967m-.805-.967v.967m-.805-.967v.967m-.812-.967v.967m-.805-.967v.967m-.812-.967v.967m-.805-.967v.967m-.805-.967v.967m-.813-.967v.967m-.796-.967v.967m-.813-.967v.967m-.804-.967v.967m-.813-.967v.967m-.812-.967v.967m-.805-.967v.967m-.813-.967v.967m-.796-.967v.967m-.813-.967v.967m-.805-.967v.967m-.812-.967v.967m26.656.97v.968m-.812-.968v.968m-.797-.968v.968m-.813-.968v.968m-.804-.968v.968m-.813-.968v.968m-.812-.968v.968m-.797-.968v.968m-.813-.968v.968m-.805-.968v.968m-.812-.968v.968m-.805-.968v.968m-.804-.968v.968m-.813-.968v.968m-.812-.968v.968m-.805-.968v.968m-.805-.968v.968m-.812-.968v.968m-.805-.968v.968m-.812-.968v.968m-.805-.968v.968m-.805-.968v.968m-.813-.968v.968m-.796-.968v.968m-.813-.968v.968m-.804-.968v.968m-.813-.968v.968m-.812-.968v.968m-.805-.968v.968m-.813-.968v.968m-.796-.968v.968m-.813-.968v.968m-.805-.968v.968m-.812-.968v.968m26.656.966v.968m-.812-.968v.968m-.797-.968v.968m-.813-.968v.968m-.804-.968v.968m-.813-.968v.968m-.812-.968v.968m-.797-.968v.968m-.813-.968v.968m-.805-.968v.968m-.812-.968v.968m-.805-.968v.968m-.804-.968v.968m-.813-.968v.968m-.812-.968v.968m-.805-.968v.968m-.805-.968v.968m-.812-.968v.968m-.805-.968v.968m-.812-.968v.968m-.805-.968v.968m-.805-.968v.968m-.813-.968v.968m-.796-.968v.968m-.813-.968v.968m-.804-.968v.968m-.813-.968v.968m-.812-.968v.968m-.805-.968v.968m-.813-.968v.968m-.796-.968v.968m-.813-.968v.968m-.805-.968v.968m-.812-.968v.968M32.18 9.7v.967m-.813-.967v.967M30.57 9.7v.967m-.812-.967v.967m-.805-.967v.967M28.14 9.7v.967m-.812-.967v.967m-.797-.967v.967m-.812-.967v.967m-.805-.967v.967m-.812-.967v.967m-.805-.967v.967m-.805-.967v.967M21.68 9.7v.967m-.813-.967v.967m-.804-.967v.967m-.805-.967v.967m-.813-.967v.967M17.64 9.7v.967m-.812-.967v.967m-.805-.967v.967m-.804-.967v.967m-.813-.967v.967M13.61 9.7v.967m-.813-.967v.967m-.805-.967v.967M11.18 9.7v.967m-.813-.967v.967M9.563 9.7v.967M8.75 9.7v.967M7.953 9.7v.967M7.14 9.7v.967M6.336 9.7v.967M5.523 9.7v.967m26.657.97v.967m-.813-.967v.967m-.797-.967v.967m-.812-.967v.967m-.805-.967v.967m-.813-.967v.967m-.812-.967v.967m-.797-.967v.967m-.812-.967v.967m-.805-.967v.967m-.812-.967v.967m-.805-.967v.967m-.805-.967v.967m-.812-.967v.967m-.813-.967v.967m-.804-.967v.967m-.805-.967v.967m-.813-.967v.967m-.805-.967v.967m-.812-.967v.967m-.805-.967v.967m-.804-.967v.967m-.813-.967v.967m-.796-.967v.967m-.813-.967v.967m-.805-.967v.967m-.812-.967v.967m-.813-.967v.967m-.804-.967v.967m-.813-.967v.967m-.797-.967v.967m-.813-.967v.967m-.804-.967v.967m-.813-.967v.967m26.657.966v.968m-.813-.968v.968m-.797-.968v.968m-.812-.968v.968m-.805-.968v.968m-.813-.968v.968m-.812-.968v.968m-.797-.968v.968m-.812-.968v.968m-.805-.968v.968m-.812-.968v.968m-.805-.968v.968m-.805-.968v.968m-.812-.968v.968m-.813-.968v.968m-.804-.968v.968m-.805-.968v.968m-.813-.968v.968m-.805-.968v.968m-.812-.968v.968m-.805-.968v.968m-.804-.968v.968m-.813-.968v.968m-.796-.968v.968m-.813-.968v.968m-.805-.968v.968m-.812-.968v.968m-.813-.968v.968m-.804-.968v.968m-.813-.968v.968m-.797-.968v.968m-.813-.968v.968m-.804-.968v.968m-.813-.968v.968M32.18 123.84v.967m-.813-.967v.967m-.797-.967v.967m-.812-.967v.967m-.805-.967v.967m-.813-.967v.967m-.812-.967v.967m-.797-.967v.967m-.812-.967v.967m-.805-.967v.967m-.812-.967v.967m-.805-.967v.967m-.805-.967v.967m-.812-.967v.967m-.813-.967v.967m-.804-.967v.967m-.805-.967v.967m-.813-.967v.967m-.805-.967v.967m-.812-.967v.967m-.805-.967v.967m-.804-.967v.967m-.813-.967v.967m-.796-.967v.967m-.813-.967v.967m-.805-.967v.967m-.812-.967v.967m-.813-.967v.967m-.804-.967v.967m-.813-.967v.967m-.797-.967v.967m-.813-.967v.967m-.804-.967v.967m-.813-.967v.967m26.657.966v.968m-.813-.968v.968m-.797-.968v.968m-.812-.968v.968m-.805-.968v.968m-.813-.968v.968m-.812-.968v.968m-.797-.968v.968m-.812-.968v.968m-.805-.968v.968m-.812-.968v.968m-.805-.968v.968m-.805-.968v.968m-.812-.968v.968m-.813-.968v.968m-.804-.968v.968m-.805-.968v.968m-.813-.968v.968m-.805-.968v.968m-.812-.968v.968m-.805-.968v.968m-.804-.968v.968m-.813-.968v.968m-.796-.968v.968m-.813-.968v.968m-.805-.968v.968m-.812-.968v.968m-.813-.968v.968m-.804-.968v.968m-.813-.968v.968m-.797-.968v.968m-.813-.968v.968m-.804-.968v.968m-.813-.968v.968m26.657.966v.968m-.813-.968v.968m-.797-.968v.968m-.812-.968v.968m-.805-.968v.968m-.813-.968v.968m-.812-.968v.968m-.797-.968v.968m-.812-.968v.968m-.805-.968v.968m-.812-.968v.968m-.805-.968v.968m-.805-.968v.968m-.812-.968v.968m-.813-.968v.968m-.804-.968v.968m-.805-.968v.968m-.813-.968v.968m-.805-.968v.968m-.812-.968v.968m-.805-.968v.968m-.804-.968v.968m-.813-.968v.968m-.796-.968v.968m-.813-.968v.968m-.805-.968v.968m-.812-.968v.968m-.813-.968v.968m-.804-.968v.968m-.813-.968v.968m-.797-.968v.968m-.813-.968v.968m-.804-.968v.968m-.813-.968v.968" stroke="#1B1B1B"/><circle cx="34.284" cy="123.518" fill="#1B1B1B" r=".323"/><circle cx="3.581" cy="123.518" fill="#1B1B1B" r=".323"/><circle cx="34.284" cy="128.682" fill="#1B1B1B" r=".323"/><circle cx="32.339" cy="133.19" fill="#1B1B1B" r=".323"/><circle cx="44.3" cy="133.19" fill="#1B1B1B" r=".323"/><circle cx="58.518" cy="133.19" fill="#1B1B1B" r=".323"/><circle cx="69.183" cy="128.998" fill="#1B1B1B" r=".323"/><circle cx="100.526" cy="128.998" fill="#1B1B1B" r=".323"/><circle cx="69.183" cy="123.842" fill="#1B1B1B" r=".323"/><circle cx="100.526" cy="123.842" fill="#1B1B1B" r=".323"/><circle cx="137.667" cy="128.998" fill="#1B1B1B" r=".323"/><circle cx="169.011" cy="128.998" fill="#1B1B1B" r=".323"/><circle cx="137.667" cy="123.842" fill="#1B1B1B" r=".323"/><circle cx="169.011" cy="123.842" fill="#1B1B1B" r=".323"/><circle cx="179.37" cy="128.998" fill="#1B1B1B" r=".323"/><circle cx="210.714" cy="128.998" fill="#1B1B1B" r=".323"/><circle cx="179.37" cy="123.842" fill="#1B1B1B" r=".323"/><circle cx="210.714" cy="123.842" fill="#1B1B1B" r=".323"/><circle cx="69.183" cy="118.682" fill="#1B1B1B" r=".323"/><circle cx="100.526" cy="118.682" fill="#1B1B1B" r=".323"/><circle cx="69.183" cy="113.526" fill="#1B1B1B" r=".323"/><circle cx="100.526" cy="113.526" fill="#1B1B1B" r=".323"/><circle cx="69.183" cy="108.362" fill="#1B1B1B" r=".323"/><circle cx="100.526" cy="108.362" fill="#1B1B1B" r=".323"/><circle cx="69.183" cy="103.205" fill="#1B1B1B" r=".323"/><circle cx="100.526" cy="103.205" fill="#1B1B1B" r=".323"/><circle cx="69.183" cy="98.045" fill="#1B1B1B" r=".323"/><circle cx="100.518" cy="98.045" fill="#1B1B1B" r=".323"/><circle cx="69.183" cy="92.889" fill="#1B1B1B" r=".323"/><circle cx="100.518" cy="92.889" fill="#1B1B1B" r=".323"/><circle cx="71.761" cy="133.19" fill="#1B1B1B" r=".323"/><circle cx="98.581" cy="133.19" fill="#1B1B1B" r=".323"/><circle cx="110.854" cy="133.19" fill="#1B1B1B" r=".323"/><circle cx="126.69" cy="133.19" fill="#1B1B1B" r=".323"/><circle cx="139.948" cy="133.19" fill="#1B1B1B" r=".323"/><circle cx="166.761" cy="133.19" fill="#1B1B1B" r=".323"/><circle cx="181.307" cy="133.19" fill="#1B1B1B" r=".323"/><circle cx="208.12" cy="133.19" fill="#1B1B1B" r=".323"/><circle cx="220.722" cy="133.19" fill="#1B1B1B" r=".323"/><circle cx="236.55" cy="133.19" fill="#1B1B1B" r=".323"/><circle cx="3.581" cy="128.682" fill="#1B1B1B" r=".323"/><circle cx="5.847" cy="133.19" fill="#1B1B1B" r=".323"/></svg>