<svg width="600" height="525" fill="none" xmlns="http://www.w3.org/2000/svg"><rect x="39" y="2" width="522" height="522" rx="30" fill="#1B1B1B" stroke="#00D1FF" stroke-linecap="round"/><path d="M169.5 247.921l3.12-4.679 17.677 9.879-2.6 4.679-18.197-9.879zm62.608-79.196l4.369-3.468 12.421 15.993-3.89 3.671-12.9-16.196zm104.989-61.336l5.341-1.609 5.637 19.45-4.971 1.975-6.007-19.816zm99.461-17.699l5.578-.082.083 20.25h-5.661V89.69z" fill="#00D1FF"/><path d="M460.479 350.346l-39.25-206.613 2.988-6.877-.277-1.535-1.535.276-4.904-41.907 1.023-.184 9.51 41.078-2.047.369.184 1.023 5.803 5.823 38.046 208.547" stroke="#00D1FF" stroke-linecap="round"/><rect x="55.637" y="18.637" width="488.725" height="488.725" rx="21" stroke="#00D1FF" stroke-linecap="round"/><rect x="62.918" y="25.916" width="474.167" height="474.167" rx="17" stroke="#00D1FF" stroke-linecap="round"/><path d="M91.492 65.992c0-6.351 5.149-11.5 11.5-11.5v-1c-6.903 0-12.5 5.597-12.5 12.5h1zm0 394.016V65.992h-1v394.016h1zm11.5 11.5c-6.351 0-11.5-5.149-11.5-11.5h-1c0 6.904 5.597 12.5 12.5 12.5v-1zm272.356 0H102.992v1h272.356v-1zm12.5-11.5v-60.662h-1v60.662h1zm0-60.662c0-26.786 21.714-48.5 48.5-48.5v-1c-27.338 0-49.5 22.162-49.5 49.5h1zm48.5-48.5h60.66v-1h-60.66v1zm72.16-284.854v272.354h1V65.992h-1zm-11.5-11.5c6.351 0 11.5 5.149 11.5 11.5h1c0-6.903-5.596-12.5-12.5-12.5v1zm-394.016 0h394.016v-1H102.992v1zm394.016 296.354c6.904 0 12.5-5.597 12.5-12.5h-1c0 6.351-5.149 11.5-11.5 11.5v1zm-121.66 121.662c6.903 0 12.5-5.596 12.5-12.5h-1c0 6.351-5.149 11.5-11.5 11.5v1z" fill="#00D1FF"/><circle cx="177.301" cy="118.464" r="32.235" stroke="#00D1FF" stroke-linecap="round"/><path d="M155.465 95.588l22.876 22.876" stroke="#00D1FF" stroke-linecap="round"/><circle cx="481.972" cy="439.773" r="24.956" stroke="#00D1FF" stroke-linecap="round"/><circle cx="481.97" cy="439.773" r="17.677" stroke="#00D1FF" stroke-linecap="round"/><path d="M470.535 427.295l23.916 23.916" stroke="#00D1FF" stroke-linecap="round"/><path d="M439.859 67.51a.52.52 0 00-1.04 0v22.877a301.216 301.216 0 011.04 0V67.51zM129.467 400.779v-1.04H106.59a.52.52 0 000 1.04h22.877zm.617-20.24l.067-1.038-22.816-1.493a.52.52 0 10-.068 1.038l22.817 1.493zm1.893-19.912l.134-1.031-22.649-2.959a.52.52 0 00-.135 1.031l22.65 2.959zm3.221-19.994l.201-1.02-22.383-4.427a.52.52 0 00-.202 1.02l22.384 4.427zm4.619-20.092l.269-1.005-22.021-5.9a.52.52 0 10-.269 1.004l22.021 5.901zm5.839-19.395l.334-.985-21.581-7.323a.52.52 0 10-.335.984l21.582 7.324zm7.008-18.738l.398-.961-21.068-8.702a.521.521 0 00-.397.961l21.067 8.702zm8.32-18.466l.459-.933-20.464-10.064a.52.52 0 00-.459.933l20.464 10.064zm9.694-18.196c.173-.301.347-.601.521-.9l-19.765-11.412a.52.52 0 00-.52.901l19.764 11.411zm10.681-17.207l.579-.864-18.993-12.688a.52.52 0 00-.578.865l18.992 12.687zm11.628-16.274l.633-.825-18.148-13.897a.52.52 0 00-.632.825l18.147 13.897zm12.813-15.68c.228-.262.457-.522.686-.783l-17.21-15.059a.52.52 0 00-.685.782l17.209 15.06zm14.06-15.072l.735-.735-16.176-16.175a.52.52 0 10-.735.735l16.176 16.175zm14.752-13.87l.782-.686-15.082-17.194a.518.518 0 10-.781.685l15.081 17.195zm15.426-12.731l.824-.635-13.934-18.122a.52.52 0 00-.825.634l13.935 18.123zm16.419-11.854c.288-.193.575-.387.863-.579L254.609 123.5a.519.519 0 10-.864.578l12.712 18.98zm17.47-10.94l.9-.521-11.412-19.767a.52.52 0 00-.901.52l11.413 19.768zm17.837-9.594l.932-.46-10.089-20.454a.52.52 0 10-.932.459l10.089 20.455zm18.199-8.307c.319-.134.639-.267.96-.399l-8.745-21.052a.52.52 0 10-.96.398l8.745 21.053zm18.935-7.19l.985-.335-7.35-21.574a.52.52 0 10-.984.335l7.349 21.574zm19.721-6.022l1.004-.268-5.901-22.023a.52.52 0 10-1.004.269l5.901 22.022zm19.72-4.616l1.021-.202-4.454-22.379a.52.52 0 00-1.02.203l4.453 22.378zm19.733-3.279l1.031-.135-3.004-22.644a.52.52 0 00-1.031.137l3.004 22.642zm20.15-2.015l1.038-.068-1.52-22.815a.52.52 0 10-1.038.07l1.52 22.813z" fill="#00D1FF"/><path d="M157.05 346.455c.066-.34.945-3.047 1.012-3.387l-22.382-4.427-1.014 3.387 22.384 4.427z" fill="#00D1FF"/><path d="M305.199 271.318h7.799l9.359 27.036 8.838-27.036h7.279l-13.518 38.994h-5.199l-14.558-38.994z" stroke="#00A3C7"/><path d="M193.555 291.631v-.84l10.586-11.992a26.285 26.285 0 002.968-4.141 9.395 9.395 0 001.25-4.746c0-1.745-.599-3.229-1.797-4.453-1.184-1.224-2.819-1.836-4.902-1.836-2.096.013-3.802.638-5.117 1.875s-1.973 3.04-1.973 5.41v.352h-.976v-.332c0-2.604.742-4.623 2.226-6.055 1.485-1.445 3.431-2.168 5.84-2.168 2.383 0 4.258.697 5.625 2.09 1.38 1.38 2.07 3.079 2.07 5.098 0 1.809-.377 3.424-1.132 4.843-.756 1.42-1.901 3.002-3.438 4.746l-9.883 11.309h15.332v.84h-16.679zm22.771-8.75v-10.957c0-2.982.677-5.261 2.031-6.836 1.354-1.589 3.281-2.383 5.781-2.383 2.487 0 4.408.794 5.762 2.383 1.367 1.575 2.051 3.854 2.051 6.836v10.957c0 3.034-.684 5.332-2.051 6.894-1.354 1.563-3.275 2.344-5.762 2.344-2.5 0-4.427-.781-5.781-2.344-1.354-1.562-2.031-3.86-2.031-6.894zm.996-.078c0 2.76.579 4.85 1.738 6.269 1.172 1.42 2.865 2.129 5.078 2.129 2.201 0 3.887-.716 5.059-2.148 1.172-1.433 1.758-3.516 1.758-6.25v-10.782c0-2.695-.586-4.765-1.758-6.21-1.172-1.459-2.858-2.188-5.059-2.188-2.213 0-3.906.729-5.078 2.188-1.159 1.445-1.738 3.515-1.738 6.21v10.782zm21.326.078v-10.957c0-2.982.677-5.261 2.031-6.836 1.354-1.589 3.281-2.383 5.781-2.383 2.487 0 4.408.794 5.762 2.383 1.367 1.575 2.051 3.854 2.051 6.836v10.957c0 3.034-.684 5.332-2.051 6.894-1.354 1.563-3.275 2.344-5.762 2.344-2.5 0-4.427-.781-5.781-2.344-1.354-1.562-2.031-3.86-2.031-6.894zm.996-.078c0 2.76.579 4.85 1.738 6.269 1.172 1.42 2.865 2.129 5.078 2.129 2.201 0 3.887-.716 5.059-2.148 1.172-1.433 1.758-3.516 1.758-6.25v-10.782c0-2.695-.586-4.765-1.758-6.21-1.172-1.459-2.858-2.188-5.059-2.188-2.213 0-3.906.729-5.078 2.188-1.159 1.445-1.738 3.515-1.738 6.21v10.782zm-91.39 122.789v-10.957c0-2.982.677-5.261 2.031-6.836 1.354-1.589 3.281-2.383 5.781-2.383 2.487 0 4.408.794 5.762 2.383 1.367 1.575 2.051 3.854 2.051 6.836v10.957c0 3.034-.684 5.332-2.051 6.894-1.354 1.563-3.275 2.344-5.762 2.344-2.5 0-4.427-.781-5.781-2.344-1.354-1.562-2.031-3.86-2.031-6.894zm.996-.078c0 2.76.579 4.85 1.738 6.269 1.172 1.419 2.865 2.129 5.078 2.129 2.201 0 3.887-.716 5.059-2.148 1.172-1.433 1.758-3.516 1.758-6.25v-10.782c0-2.695-.586-4.765-1.758-6.211-1.172-1.458-2.858-2.187-5.059-2.187-2.213 0-3.906.729-5.078 2.187-1.159 1.446-1.738 3.516-1.738 6.211v10.782zm189.73-237.623v-27.012h-.117l-11.445 18.906h16.621v.918h-17.793v-.957l12.637-20.293h1.074v28.438h-.977zm10.447-8.75v-10.957c0-2.982.677-5.261 2.032-6.836 1.354-1.589 3.281-2.383 5.781-2.383 2.487 0 4.407.794 5.762 2.383 1.367 1.575 2.05 3.854 2.05 6.836v10.957c0 3.033-.683 5.332-2.05 6.894-1.355 1.563-3.275 2.344-5.762 2.344-2.5 0-4.427-.781-5.781-2.344-1.355-1.562-2.032-3.861-2.032-6.894zm.996-.079c0 2.761.58 4.851 1.739 6.27 1.172 1.419 2.864 2.129 5.078 2.129 2.2 0 3.887-.716 5.058-2.149 1.172-1.432 1.758-3.515 1.758-6.25v-10.781c0-2.695-.586-4.765-1.758-6.211-1.171-1.458-2.858-2.187-5.058-2.187-2.214 0-3.906.729-5.078 2.187-1.159 1.446-1.739 3.516-1.739 6.211v10.781zm21.326.079v-10.957c0-2.982.677-5.261 2.031-6.836 1.355-1.589 3.282-2.383 5.782-2.383 2.487 0 4.407.794 5.761 2.383 1.368 1.575 2.051 3.854 2.051 6.836v10.957c0 3.033-.683 5.332-2.051 6.894-1.354 1.563-3.274 2.344-5.761 2.344-2.5 0-4.427-.781-5.782-2.344-1.354-1.562-2.031-3.861-2.031-6.894zm.996-.079c0 2.761.58 4.851 1.739 6.27 1.171 1.419 2.864 2.129 5.078 2.129 2.2 0 3.886-.716 5.058-2.149 1.172-1.432 1.758-3.515 1.758-6.25v-10.781c0-2.695-.586-4.765-1.758-6.211-1.172-1.458-2.858-2.187-5.058-2.187-2.214 0-3.907.729-5.078 2.187-1.159 1.446-1.739 3.516-1.739 6.211v10.781z" fill="#00A3C7"/></svg>