<svg width="505" height="484" fill="none" xmlns="http://www.w3.org/2000/svg"><path d="M1 482.65V27.902h311.555V482.65H1z" fill="#1B1B1B" stroke="#00A3C7"/><path d="M14.883 468.766V14.886h311.554v453.88H14.883z" fill="#1B1B1B" stroke="#00A3C7"/><path d="M28.766 455.748V1h312.422v454.748H28.766z" fill="#1B1B1B" stroke="#00A3C7"/><path d="M100.879 455.447v-64.355h239.869v64.355H100.879z" fill="#1B1B1B" stroke="#00A3C7"/><path d="M173.598 455.447v-64.355h167.156v64.355H173.598z" fill="#1B1B1B" stroke="#00A3C7"/><path d="M173.598 455.447v-32.595h167.156v32.595H173.598z" fill="#1B1B1B" stroke="#00A3C7"/><circle cx="185.3" cy="210.562" r="99.465" stroke="#00A3C7"/><circle cx="185.302" cy="210.562" r="58.103" stroke="#00A3C7"/><path d="M185.305 74.33v272.465m136.234-136.233H49.074" stroke="#00A3C7"/><circle cx="11.818" cy="11.818" r="11.818" transform="matrix(1 0 0 -1 173.48 144.582)" stroke="#00A3C7"/><circle cx="11.818" cy="11.818" r="11.818" transform="matrix(1 0 0 -1 173.48 300.178)" stroke="#00A3C7"/><circle cx="11.818" cy="11.818" transform="matrix(0 1 1 0 251.285 198.744)" stroke="#00A3C7" r="11.818"/><circle cx="11.818" cy="11.818" transform="matrix(0 1 1 0 95.684 198.744)" stroke="#00A3C7" r="11.818"/><path d="M284.781 106.442h218.262l-13.885 15.621-.817.081c-25.518 2.551-39.579 3.956-43.443 16.408h-36.883l-18.225 9.112c0-8.244-5.641-14.319-18.225-14.319h-20.828c-18.051-12.497-39.342-15.043-47.731-14.754v-5.641l-3.471 3.472h-14.754v-9.98z" fill="#1B1B1B" stroke="#00A3C7"/><path d="M400.637 455.313h32.11V63.917l-1.736-1.735V23.129h-28.639v39.053l-1.735 1.735v391.396z" fill="#1B1B1B" stroke="#00A3C7"/><path d="M284.781 49.598h218.262l-13.885-15.62c-26.036-2.604-42.958-7.811-45.128-11.283h-93.293c-18.051 12.497-39.342 15.043-47.731 14.754v5.64l-3.471-3.47h-14.754v9.98zm104.574 56.843h18.225v114.555h-18.225zm37.317 0h18.225v114.555h-18.225zm0 161.42h18.225v-39.053h-18.225zm-49.465 0h30.374v-39.052h-30.374v10.848h15.659a3 3 0 013 3v10.488a3 3 0 01-3 3h-15.659v11.716zm67.691-22.564h9.546v6.075h-9.546zm0-77.238h4.339v6.075h-4.339zm19.319 72.89a2.84 2.84 0 00-2.831-2.595h-3.941a3 3 0 00-3 3v13.96a3 3 0 003 3h3.941a2.841 2.841 0 002.831-2.596 85.1 85.1 0 000-14.769zm-5.207-77.238a2.841 2.841 0 00-2.831-2.596h-3.941a3 3 0 00-3 3v13.961a3 3 0 003 3h3.941a2.841 2.841 0 002.831-2.596 85.298 85.298 0 000-14.769z" fill="#1B1B1B" stroke="#00A3C7"/><rect x="375.465" y="241.826" width="18.225" height="12.15" rx="2" fill="#1B1B1B" stroke="#00A3C7"/><path d="M382.415 191.057c3.471-2.43 6.075-6.509 6.943-8.245v38.185h-13.452v-17.356c0-7.377 2.17-9.547 6.509-12.584z" fill="#1B1B1B" stroke="#00A3C7"/><path fill="#1B1B1B" stroke="#00A3C7" d="M380.68 220.996h7.811v7.811h-7.811zm1.73 46.865h4.339v9.282a2 2 0 01-2 2h-.339a2 2 0 01-2-2v-9.282z"/><circle cx="394.569" cy="120.327" r="3.471" fill="#1B1B1B" stroke="#00A3C7"/><circle cx="439.694" cy="120.327" r="3.471" fill="#1B1B1B" stroke="#00A3C7"/><circle cx="394.569" cy="162.852" r="3.471" fill="#1B1B1B" stroke="#00A3C7"/><circle cx="439.694" cy="162.852" r="3.471" fill="#1B1B1B" stroke="#00A3C7"/><circle cx="394.569" cy="205.376" r="3.471" fill="#1B1B1B" stroke="#00A3C7"/><circle cx="439.694" cy="205.376" r="3.471" fill="#1B1B1B" stroke="#00A3C7"/><path d="M413.66 455.312h6.943v8.245h-.339a4 4 0 00-4 4v15.092h-2.604v-27.337z" fill="#1B1B1B" stroke="#00A3C7"/><path d="M417.989 447.938h-11.716m11.716-19.526h-11.716m11.716-19.527h-11.716m11.716-19.526h-11.716m11.716-19.527h-11.716m11.716-19.525h-11.716m11.716-19.528h-11.716m11.716-19.527h-11.716m11.716-19.525h-11.716m11.716-19.526h-11.716m11.711-19.094H407.57m10.414-19.959H407.57m10.414-19.96H407.57m10.414-19.092H407.57m10.414-19.961H407.57m10.414-19.092H407.57m10.414-19.961H407.57m10.414-19.094H407.57m10.419-19.525h-11.716m11.716-19.527h-11.716m11.716-19.526h-11.716m59.02-7.378v0a8.678 8.678 0 018.678-8.678h21.696m-30.374 65.522v0a6.075 6.075 0 006.075 6.075h26.903" stroke="#00A3C7"/></svg>