<svg width="608" height="549" fill="none" xmlns="http://www.w3.org/2000/svg"><circle cx="115.864" cy="115.864" r="115.364" transform="matrix(1 0 0 -1 46.352 544.582)" stroke="#00D1FF"/><circle cx="29.491" cy="29.491" r="28.991" transform="matrix(1 0 0 -1 528.676 293.176)" stroke="#00D1FF" stroke-dasharray="4 4"/><circle cx="49.712" cy="49.712" r="49.212" transform="matrix(1 0 0 -1 508.461 313.4)" stroke="#00D1FF"/><circle cx="87.181" cy="87.181" r="86.681" transform="matrix(1 0 0 -1 75.035 515.9)" stroke="#00D1FF" stroke-dasharray="4 4"/><circle cx="21.065" cy="21.065" r="20.565" transform="matrix(1 0 0 -1 537.102 284.75)" stroke="#00D1FF"/><circle cx="24.532" cy="24.532" r="24.032" transform="matrix(1 0 0 -1 137.684 453.25)" stroke="#00D1FF"/><circle cx="10.954" cy="10.954" r="10.454" transform="matrix(1 0 0 -1 547.215 274.641)" stroke="#00D1FF"/><path d="M571.644 288.964L206.371 503.445" stroke="#00D1FF" stroke-linecap="round" stroke-dasharray="4 4"/><path d="M575.88 309.183L222.23 527.596m315.708-308.567l-404.032 97.6" stroke="#00D1FF" stroke-linecap="round"/><path d="M546.365 237.566L137.684 345.312" stroke="#00D1FF" stroke-linecap="round" stroke-dasharray="4 4"/><circle cx="4.213" cy="4.213" r="4.213" transform="matrix(1 0 0 -1 526.988 293.176)" stroke="#00D1FF" stroke-linecap="round"/><circle cx="4.213" cy="4.213" r="4.213" transform="matrix(1 0 0 -1 526.996 242.621)" stroke="#00D1FF" stroke-linecap="round"/><circle cx="4.213" cy="4.213" r="4.213" transform="matrix(1 0 0 -1 580.914 293.176)" stroke="#00D1FF" stroke-linecap="round"/><circle cx="4.213" cy="4.213" r="4.213" transform="matrix(1 0 0 -1 580.914 242.621)" stroke="#00D1FF" stroke-linecap="round"/><circle cx="161.842" cy="429.172" r="119.299" fill="#1B1B1B" stroke="#00A3C7"/><circle cx="161.841" cy="429.171" r="93.786" fill="#1B1B1B" stroke="#00A3C7"/><circle cx="161.84" cy="429.172" r="32.778" fill="#1B1B1B" stroke="#00A3C7"/><circle cx="162.398" cy="372.044" r="7.819" fill="#1B1B1B" stroke="#00A3C7"/><circle cx="162.398" cy="486.298" r="7.819" fill="#1B1B1B" stroke="#00A3C7"/><circle cx="219.524" cy="429.171" r="7.819" transform="rotate(90 219.524 429.171)" fill="#1B1B1B" stroke="#00A3C7"/><circle cx="105.27" cy="429.171" r="7.819" transform="rotate(90 105.27 429.171)" fill="#1B1B1B" stroke="#00A3C7"/><path fill="#1B1B1B" stroke="#00A3C7" d="M154.578 393.066h15.639v8.983h-15.639zm-10.484-80.367h36.605v14.42h-36.605zm-1.11-32.168h38.824v5.546h-38.824zm9.985-17.748h8.874v17.748h-8.874z"/><path fill="#1B1B1B" stroke="#00A3C7" d="M161.84 262.783h8.874v17.748h-8.874z"/><path d="M142.984 280.532l4.992-6.655m0 0l4.992 6.655m-4.992-6.655v6.655m23.848 0l4.992-6.655m0 0l4.991 6.655m-4.991-6.655v6.655" stroke="#00A3C7"/><path fill="#1B1B1B" stroke="#00A3C7" d="M139.656 286.078h45.479v22.185h-45.479zm52.137-88.74h-6.656v107.597h6.656zm-52.137 0H133v107.597h6.656zm11.094 129.783h23.294v3.328H150.75z"/><path fill="#1B1B1B" stroke="#00A3C7" d="M155.188 330.447h14.42v5.546h-14.42zm-4.438-22.183h23.294v4.437H150.75z"/><path d="M191.793 291.624h6.101l26.067-93.731M133 291.624h-6.101l-26.067-93.731" stroke="#00A3C7"/><path fill="#1B1B1B" stroke="#00A3C7" d="M25.402 179.59h52.135v31.059H25.402z"/><path fill="#1B1B1B" stroke="#00A3C7" d="M25.403 187.354H7.655v-61.009h17.748z"/><path d="M62.008 56.463h-45.48v69.883h8.875v-15.53h36.605V56.463zM32.058 179.59H1v-42.152h31.06z" fill="#1B1B1B" stroke="#00A3C7"/><path fill="#1B1B1B" stroke="#00A3C7" d="M32.058 175.152h-6.656v-33.278h6.656zm217.415 12.202h52.135v23.294h-52.135zm-5.547 0h57.681v-57.681h-57.681zm0-7.764H32.059v-42.152h211.867zM74.21 86.412h-12.2v-29.95h12.2zm108.708 31.059h-37.715V53.134h37.715z"/><path fill="#1B1B1B" stroke="#00A3C7" d="M178.48 44.262h-28.841v8.874h28.841z"/><path fill="#1B1B1B" stroke="#00A3C7" d="M170.715 44.262h-13.311v8.874h13.311zm7.765-.001h-28.841v-2.219h28.841zm87.629 43.26h-14.42V56.462h14.42zm35.498 26.624h-35.496V56.463h46.588V83.64l-11.092 30.505z"/><path d="M301.607 114.145v18.857h4.437l6.655-7.21V83.64l-11.092 30.505zm-118.689 3.327h55.463v6.101h5.546v6.101h3.882v-17.748h3.883V56.463h-68.774v61.009zM74.21 110.815h3.883v6.656h67.11v-61.01H74.211v54.354zm127.563 68.775h-77.648v5.546h77.648z" fill="#1B1B1B" stroke="#00A3C7"/><path d="M89.188 192.9v4.437h146.421V192.9" stroke="#00A3C7"/><path fill="#1B1B1B" stroke="#00A3C7" d="M201.773 179.59h32.168v7.765h-32.168zm-109.816 0h32.168v7.765H91.957zm1.109-49.916h29.95v7.765h-29.95zm0-6.656h-9.983v14.42h9.983z"/><path d="M83.085 117.471H77.54v19.966h5.546" stroke="#00A3C7"/><path fill="#1B1B1B" stroke="#00A3C7" d="M89.739 123.018H86.41v-5.546h3.328zm113.144 6.656h29.95v7.765h-29.95zm41.043-5.547h-11.092v13.311h11.092zm-41.043 7.766h-79.866v5.546h79.866zm41.043 61.007h-9.983v-13.311h9.983zm-151.969 0h-8.874v-13.311h8.874z"/><path fill="#1B1B1B" stroke="#00A3C7" d="M77.54 197.338h5.545V179.59H77.54z"/><circle cx="52.026" cy="195.118" r="7.765" fill="#1B1B1B" stroke="#00A3C7"/><circle cx="276.093" cy="199.556" r="7.765" fill="#1B1B1B" stroke="#00A3C7"/><circle cx="164.061" cy="22.076" r="16.639" fill="#1B1B1B" stroke="#00A3C7"/><path d="M141.32 7.656L147.976 1h31.614l6.655 6.656v27.73l-6.655 6.656h-31.614l-6.656-6.655V7.656z" fill="#1B1B1B" stroke="#00A3C7"/></svg>