<svg width="610" height="365" fill="none" xmlns="http://www.w3.org/2000/svg"><path d="M121.141 124.396h371.234M109.578 150.76H504.8" stroke="#00A3C7"/><path fill="#1B1B1B" stroke="#00A3C7" d="M113.066 120.809h8.07v10.76h-8.07zm379.309 0h8.07v10.76h-8.07zm46.625 0h8.07v10.76H539zm-463.59 0h-8.07v10.76h8.07z"/><path d="M499.688 131.768l64.287 231.58m-449.284-231.58L50.769 364.079M544.25 131.768l49.677 231.58M70.129 131.768L21.183 364.079m479.258-239.683H539m-425.934 0H75.405" stroke="#00A3C7"/><circle cx="167.318" cy="131.118" r="1.345" stroke="#00A3C7"/><circle cx="167.318" cy="137.396" r="1.345" stroke="#00A3C7"/><circle cx="167.318" cy="143.671" r="1.345" stroke="#00A3C7"/><circle cx="173.591" cy="131.118" r="1.345" stroke="#00A3C7"/><circle cx="173.591" cy="137.396" r="1.345" stroke="#00A3C7"/><circle cx="173.591" cy="143.671" r="1.345" stroke="#00A3C7"/><circle cx="179.872" cy="131.118" r="1.345" stroke="#00A3C7"/><circle cx="179.872" cy="137.396" r="1.345" stroke="#00A3C7"/><circle cx="179.872" cy="143.671" r="1.345" stroke="#00A3C7"/><circle cx="433.646" cy="131.118" r="1.345" stroke="#00A3C7"/><circle cx="433.646" cy="137.396" r="1.345" stroke="#00A3C7"/><circle cx="433.646" cy="143.671" r="1.345" stroke="#00A3C7"/><circle cx="439.919" cy="131.118" r="1.345" stroke="#00A3C7"/><circle cx="439.919" cy="137.396" r="1.345" stroke="#00A3C7"/><circle cx="439.919" cy="143.671" r="1.345" stroke="#00A3C7"/><circle cx="446.201" cy="131.118" r="1.345" stroke="#00A3C7"/><circle cx="446.201" cy="137.396" r="1.345" stroke="#00A3C7"/><circle cx="446.201" cy="143.671" r="1.345" stroke="#00A3C7"/><path d="M138.07 150.76l-11.976 213.317h-16.411l-8.871-181.465m375.497-32.217l11.976 213.682h16.411l8.87-182.269M140.865 199.27H101.41m34.075-11.209H101.41m35.199-11.733h-34.336m16.172 23.389v-23.315m355.092 22.868h39.455m-34.487-11.252h34.335m-35.066-11.69h34.335m-16.152 23.391v-23.315M610 364.078H0" stroke="#00A3C7"/><path d="M399.134 95.278l-5.37.328-23.478 32.472 1.54 6.04 4.038 2.763L435.14 121.7l-36.006-26.422z" fill="#1B1B1B" stroke="#00A3C7"/><path d="M365.293 144.99l-.389 5.77 30.317 37.623 6.933.902 23.752-17.338-29.584-50.773-31.029 23.816z" fill="#1B1B1B" stroke="#00A3C7"/><path d="M305.365 295.407v-81.09l-9.131-9.497h-44.198l-9.497 9.497v81.09" stroke="#00A3C7"/><path d="M324.359 363.712v-16.437l-16.802-41.641v-10.593h-66.479v10.593l-16.437 41.641v16.437" stroke="#00A3C7"/><path d="M304.253 327.415c.655 3.347 1.005 6.411 1.047 8.655.021 1.127-.037 2.022-.163 2.636-.063.31-.138.518-.209.642a.5.5 0 01-.05.075.56.56 0 01-.074-.051c-.113-.088-.26-.252-.435-.515-.348-.522-.739-1.329-1.144-2.381-.808-2.095-1.637-5.065-2.292-8.411-.654-3.346-1.005-6.41-1.046-8.655-.021-1.126.037-2.022.162-2.636.064-.309.139-.517.21-.642a.582.582 0 01.049-.074.477.477 0 01.074.05c.113.089.261.253.436.516.348.521.739 1.329 1.144 2.38.807 2.095 1.637 5.065 2.291 8.411zm.6 12.033l.002-.002-.002.002zm.056-.012h0zm-4.575-23.403l-.003.001.003-.001zm-.056.011h-.003.003zm-57.055 11.371c-.654 3.347-1.005 6.411-1.046 8.655-.021 1.127.036 2.022.162 2.636.064.31.139.518.21.642.02.036.037.059.049.075a.5.5 0 00.074-.051c.113-.088.261-.252.436-.515.348-.522.739-1.329 1.144-2.381.807-2.095 1.637-5.065 2.291-8.411.655-3.346 1.005-6.41 1.047-8.655.021-1.126-.037-2.022-.163-2.636-.063-.309-.138-.517-.209-.642a.48.48 0 00-.05-.074.53.53 0 00-.074.05c-.113.089-.26.253-.436.516-.348.521-.738 1.329-1.143 2.38-.808 2.095-1.637 5.065-2.292 8.411zm-.599 12.033l-.003-.002.003.002zm-.056-.012h-.003.003zm4.575-23.403l.002.001-.002-.001zm.055.011h0z" stroke="#00A3C7"/><path d="M235.734 241.328l48.424-38.872 13.535-1.652 33.605 42.006-4.645 12.583-48.424 38.872-42.495-52.937z" fill="#1B1B1B" stroke="#00A3C7"/><path d="M326.519 255.88l-42.292-53.392m120.49-15.176l-36.526-44.587m6.021-7.226l27.8-38.124" stroke="#00A3C7"/><path d="M330.934 47.389l62.826 48.215-23.377 32.509-63.192-49.311 23.743-31.413z" fill="#1B1B1B" stroke="#00A3C7"/><path d="M319.945 261.349l-42.293-53.392M252.766 17.803h51.138v48.946h-51.138zm0 0h-11.689v48.946h11.689z" stroke="#00A3C7"/><path stroke="#00A3C7" d="M191.402 11.959h49.677v73.054h-49.677zm49.677 38.717h-49.677m0-38.717h49.677v0c0-6.052-4.906-10.958-10.958-10.958H202.36c-6.052 0-10.958 4.906-10.958 10.958v0zm128.575 21.916c0-8.877-7.196-16.072-16.072-16.072v48.946c8.876 0 16.072-7.196 16.072-16.072V33.875zM181.784 99.524l7.006-14.012h54.173l7.006 14.012-14.21 14.209h-39.765l-14.21-14.21z"/><path d="M250.212 99.623v58.078l-21.917 33.605v3.652h-5.479v-38.353c0-2.922 2.557-5.479 5.479-5.479v-32.144h-1.826v-5.113h9.132v5.113h-1.827v32.144h12.054l-3.287-43.832 7.671-7.671z" fill="#1B1B1B"/><path d="M250.212 99.623h.5l-.854-.354.354.354zm-7.671 7.671l-.354-.354-.162.162.017.229.499-.037zm-6.94 6.575h.5v-.5h-.5v.5zm0 5.113v.5h.5v-.5h-.5zm-9.132 0h-.5v.5h.5v-.5zm0-5.113v-.5h-.5v.5h.5zm-3.653 81.089h-.5v.5h.5v-.5zm5.479 0v.5h.5v-.5h-.5zm0-3.652l-.418-.273-.082.124v.149h.5zm21.917-33.605l.418.273.082-.124v-.149h-.5zm-.5-58.078v53.329h1V99.623h-1zm.692 52.868l-4.383-1.826-.385.923 4.383 1.826.385-.923zm-4.077-1.402l-3.287-43.833-.998.075 3.288 43.832.997-.074zm-11.226-37.22v5.113h1v-5.113h-1zm-8.132 5.113v-5.113h-1v5.113h1zm1.326-.5h-1.826v1h1.826v-1zm-.5.5v32.144h1v-32.144h-1zm7.806-.5h-1.827v1h1.827v-1zm-1.827 0h-5.479v1h5.479v-1zm-.5.5v32.144h1v-32.144h-1zm12.554 31.644h-12.054v1h12.054v-1zm-12.054 0h-5.479v1h5.479v-1zm-5.479 0c-3.198 0-5.979 2.781-5.979 5.979h1c0-2.646 2.333-4.979 4.979-4.979v-1zm-5.979 5.979v38.353h1v-38.353h-1zm.5 38.853h5.479v-1h-5.479v1zm5.979-.5v-3.652h-1v3.652h1zm-.081-3.379l21.916-33.605-.837-.546-21.916 33.605.837.546zm21.998-33.878v-4.749h-1v4.749h1zm-24.243-43.332h9.132v-1h-9.132v1zm23.389-15.1l-7.671 7.671.708.707 7.67-7.67-.707-.708z" fill="#00A3C7"/><path d="M181.54 99.623l-.365 52.964v4.748l21.916 33.605v3.653h5.479V156.24c0-2.923-1.826-5.479-5.479-5.479v-32.144h1.827v-4.749h-9.132v4.749h1.826v32.144h-12.054l3.288-43.833-7.306-7.305z" fill="#1B1B1B"/><path d="M181.54 99.623l-.5-.003.854-.35-.354.353zm-.365 52.964h-.5v-.004l.5.004zm7.671-45.659l.353-.353.163.162-.018.229-.498-.038zm6.94 6.94h-.5v-.5h.5v.5zm0 4.749v.5h-.5v-.5h.5zm9.132 0h.5v.5h-.5v-.5zm0-4.749v-.5h.5v.5h-.5zm3.652 80.725h.5v.5h-.5v-.5zm-5.479 0v.5h-.5v-.5h.5zm0-3.653l.419-.273.081.125v.148h-.5zm-21.916-33.605l-.419.274-.081-.125v-.149h.5zm.865-57.709l-.365 52.964-1-.007.365-52.963 1 .006zm-1.057 52.499l4.383-1.826.385.923-4.384 1.826-.384-.923zm4.077-1.402l3.287-43.832.997.075-3.287 43.832-.997-.075zm11.226-36.855v4.749h-1v-4.749h1zm8.132 4.749v-4.749h1v4.749h-1zm-1.327-.5h1.827v1h-1.827v-1zm.5.5v32.144h-1v-32.144h1zm-7.805-.5h1.826v1h-1.826v-1zm1.826 0h5.479v1h-5.479v-1zm.5.5v32.144h-1v-32.144h1zm-12.554 31.644h12.054v1h-12.054v-1zm12.054 0h5.479v1h-5.479v-1zm5.479 0c1.951 0 3.461.687 4.48 1.807 1.011 1.112 1.499 2.61 1.499 4.172h-1c0-1.36-.424-2.603-1.239-3.499-.808-.889-2.038-1.48-3.74-1.48v-1zm5.979 5.979v38.353h-1V156.24h1zm-.5 38.853h-5.479v-1h5.479v1zm-5.979-.5v-3.653h1v3.653h-1zm.081-3.38l-21.916-33.604.838-.547 21.916 33.605-.838.546zm-21.997-33.878v-4.748h1v4.748h-1zm24.243-42.967h-9.132v-1h9.132v1zm-16.426-7.086l-7.305-7.305.707-.708 7.305 7.306-.707.707z" fill="#00A3C7"/><circle cx="206.746" cy="104.737" r="2.422" stroke="#00A3C7"/><circle cx="225.739" cy="104.737" r="2.422" stroke="#00A3C7"/><circle cx="229.026" cy="156.969" r="1.326" stroke="#00A3C7"/><circle cx="186.654" cy="156.969" r="1.326" stroke="#00A3C7"/><circle cx="244.369" cy="156.969" r="1.326" stroke="#00A3C7"/><circle cx="201.994" cy="156.969" r="1.326" stroke="#00A3C7"/><path d="M226.469 180.789v-9.766a2 2 0 012-2h6.64c1.606 0 2.557 1.797 1.654 3.125l-6.64 9.766c-1.108 1.628-3.654.844-3.654-1.125zm-21.184 0v-9.766a2 2 0 00-2-2h-6.64c-1.606 0-2.557 1.797-1.654 3.125l6.64 9.766c1.108 1.628 3.654.844 3.654-1.125z" stroke="#00A3C7"/><circle cx="262.261" cy="261.802" r="36.027" fill="#1B1B1B" stroke="#00A3C7"/><circle cx="262.26" cy="261.803" r="24.338" fill="#1B1B1B" stroke="#00A3C7"/><circle cx="257.879" cy="231.85" r="3.153" fill="#1B1B1B" stroke="#00A3C7"/><circle cx="291.485" cy="270.569" r="3.153" fill="#1B1B1B" stroke="#00A3C7"/><circle cx="236.692" cy="277.873" r="3.153" fill="#1B1B1B" stroke="#00A3C7"/><circle cx="415.679" cy="144.188" r="30.183" transform="rotate(-53.722 415.679 144.188)" fill="#1B1B1B" stroke="#00A3C7"/><circle cx="415.677" cy="144.19" r="20.364" transform="rotate(-53.722 415.677 144.19)" stroke="#00A3C7"/><circle cx="391.477" cy="138.25" r="2.568" transform="rotate(-53.722 391.477 138.25)" stroke="#00A3C7"/><circle cx="436.039" cy="130.213" r="2.568" transform="rotate(-53.722 436.039 130.213)" stroke="#00A3C7"/><circle cx="421.43" cy="168.932" r="2.568" transform="rotate(-53.722 421.43 168.932)" stroke="#00A3C7"/><path d="M300.254 78.802h6.94l23.742-31.048V41.91l-19.724-14.246-28.857 37.258 17.899 13.88z" fill="#1B1B1B" stroke="#00A3C7"/><path d="M328.376 40.084L300.25 78.437m23.743-41.64L295.867 75.15" stroke="#00A3C7"/><circle cx="292.096" cy="43.254" r="25.682" fill="#1B1B1B" stroke="#00A3C7"/><path d="M309.4 43.255c0 9.556-7.747 17.303-17.303 17.303-9.557 0-17.304-7.747-17.304-17.303 0-9.557 7.747-17.304 17.304-17.304 9.556 0 17.303 7.747 17.303 17.304z" stroke="#00A3C7"/><circle cx="283.962" cy="23.607" r="2.118" stroke="#00A3C7"/><circle cx="311.989" cy="50.204" r="2.118" stroke="#00A3C7"/><circle cx="275.86" cy="56.347" r="2.118" stroke="#00A3C7"/><path d="M359.368 150.614l-61.982 50.067 33.854 42.173 61.982-50.067 2.077-4.38-30.627-37.785-5.304-.008z" fill="#1B1B1B" stroke="#00A3C7"/></svg>