<svg width="835" height="499" fill="none" xmlns="http://www.w3.org/2000/svg"><path d="M165.824 169.91h508.165M150 206h541" stroke="#00A3C7"/><path fill="#1B1B1B" stroke="#00A3C7" d="M154.773 165h11.047v14.729h-11.047zm519.219 0h11.047v14.729h-11.047zm63.824 0h11.047v14.729h-11.047zm-634.589 0H92.18v14.729h11.047z"/><path d="M684 180l88 317M157 180L69.5 498M745 180l68 317M96 180L29 498m656.031-328.09h52.781m-583.039 0H103.22" stroke="#00A3C7"/><circle cx="229.036" cy="179.115" r="1.841" stroke="#00A3C7"/><circle cx="229.036" cy="187.706" r="1.841" stroke="#00A3C7"/><circle cx="229.036" cy="196.298" r="1.841" stroke="#00A3C7"/><circle cx="237.626" cy="179.115" r="1.841" stroke="#00A3C7"/><circle cx="237.626" cy="187.706" r="1.841" stroke="#00A3C7"/><circle cx="237.626" cy="196.298" r="1.841" stroke="#00A3C7"/><circle cx="246.22" cy="179.115" r="1.841" stroke="#00A3C7"/><circle cx="246.22" cy="187.706" r="1.841" stroke="#00A3C7"/><circle cx="246.22" cy="196.298" r="1.841" stroke="#00A3C7"/><circle cx="593.599" cy="179.115" r="1.841" stroke="#00A3C7"/><circle cx="593.599" cy="187.706" r="1.841" stroke="#00A3C7"/><circle cx="593.599" cy="196.298" r="1.841" stroke="#00A3C7"/><circle cx="602.189" cy="179.115" r="1.841" stroke="#00A3C7"/><circle cx="602.189" cy="187.706" r="1.841" stroke="#00A3C7"/><circle cx="602.189" cy="196.298" r="1.841" stroke="#00A3C7"/><circle cx="610.783" cy="179.115" r="1.841" stroke="#00A3C7"/><circle cx="610.783" cy="187.706" r="1.841" stroke="#00A3C7"/><circle cx="610.783" cy="196.298" r="1.841" stroke="#00A3C7"/><path d="M189 206l-16.393 292h-22.464L138 249.601M652 205.5L668.393 498h22.464L703 248.5m-510.172 23.902H138.82m46.643-15.341H138.82M187 241h-47m22.141 32.015v-31.913m486.066 31.3h54.008M655.004 257h47m-48-16h47m-22.109 32.017v-31.913M835 498H0" stroke="#00A3C7"/><path d="M546.353 130.053l-7.352.448-32.138 44.45 2.109 8.267 5.528 3.783 81.139-20.78-49.286-36.168z" fill="#1B1B1B" stroke="#00A3C7"/><path d="M500.033 198.101L499.5 206l41.5 51.5 9.49 1.235 32.512-23.734-40.495-69.5-42.474 32.6z" fill="#1B1B1B" stroke="#00A3C7"/><path d="M418 404V293l-12.5-13H345l-13 13v111" stroke="#00A3C7"/><path d="M444 497.5V475l-23-57v-14.5h-91V418l-22.5 57v22.5" stroke="#00A3C7"/><path d="M416.661 447.78c.897 4.588 1.379 8.793 1.436 11.88.028 1.547-.05 2.788-.227 3.649-.088.432-.196.738-.307.932-.113.199-.188.212-.188.213-.001 0-.076.015-.255-.126-.176-.138-.391-.381-.636-.748-.487-.731-1.028-1.851-1.585-3.295-1.11-2.88-2.248-6.957-3.145-11.545-.897-4.587-1.379-8.793-1.436-11.879-.029-1.547.05-2.789.226-3.649.089-.432.196-.738.307-.933.113-.197.188-.212.189-.212h0c.001 0 .076-.015.255.126.176.138.391.381.636.748.487.73 1.028 1.851 1.584 3.295 1.11 2.88 2.249 6.957 3.146 11.544zm-83.908 0c-.897 4.588-1.379 8.793-1.436 11.88-.028 1.547.05 2.788.227 3.649.088.432.196.738.307.932.113.199.188.212.188.213.001 0 .076.015.255-.126.176-.138.391-.381.636-.748.487-.731 1.028-1.851 1.585-3.295 1.11-2.88 2.248-6.957 3.145-11.545.897-4.587 1.379-8.793 1.436-11.879.029-1.547-.05-2.789-.226-3.649-.089-.432-.196-.738-.307-.933-.113-.197-.188-.212-.189-.212h0c-.001 0-.076-.015-.255.126-.176.138-.391.381-.636.748-.487.73-1.028 1.851-1.584 3.295-1.11 2.88-2.249 6.957-3.146 11.544z" stroke="#00A3C7"/><path d="M322.688 329.973l66.284-53.21 18.528-2.262 46 57.5-6.358 17.224-66.285 53.21-58.169-72.462z" fill="#1B1B1B" stroke="#00A3C7"/><path d="M446.955 349.894l-57.893-73.085m164.936-20.776L504 195m8.242-9.892l38.055-52.186" stroke="#00A3C7"/><path d="M453 64.5l86 66-32 44.5-86.5-67.5 32.5-43z" fill="#1B1B1B" stroke="#00A3C7"/><path d="M437.955 357.378l-57.893-73.085M346 24h70v67h-70zm0 0h-16v67h16zm-84-8h68v100h-68zm68 53h-68m0-53h68v0c0-8.284-6.716-15-15-15h-38c-8.284 0-15 6.716-15 15v0zm176 30c0-12.15-9.85-22-22-22v67c12.15 0 22-9.85 22-22V46zm-189.392 89.901l9.701-19.401h74.382l9.701 19.401-19.599 19.599h-54.586l-19.599-19.599z" stroke="#00A3C7"/><path d="M342.5 136v79.5l-30 46v5H305V214c0-4 3.5-7.5 7.5-7.5v-44H310v-7h12.5v7H320v44h16.5l-4.5-60 10.5-10.5z" fill="#1B1B1B"/><path d="M342.5 136h.5l-.854-.354.354.354zM332 146.5l-.354-.354-.162.163.017.228.499-.037zm-9.5 9h.5v-.5h-.5v.5zm0 7v.5h.5v-.5h-.5zm-12.5 0h-.5v.5h.5v-.5zm0-7v-.5h-.5v.5h.5zm-5 111h-.5v.5h.5v-.5zm7.5 0v.5h.5v-.5h-.5zm0-5l-.419-.273-.081.124v.149h.5zm30-46l.419.273.081-.124v-.149h-.5zM342 136v73h1v-73h-1zm.692 72.538l-6-2.5-.384.924 6 2.5.384-.924zm-5.693-2.075l-4.5-60-.998.074 4.5 60 .998-.074zM322 155.5v7h1v-7h-1zm-11.5 7v-7h-1v7h1zm2-.5H310v1h2.5v-1zm-.5.5v44h1v-44h-1zm10.5-.5H320v1h2.5v-1zm-2.5 0h-7.5v1h7.5v-1zm-.5.5v44h1v-44h-1zm17 43.5H320v1h16.5v-1zm-16.5 0h-7.5v1h7.5v-1zm-7.5 0c-4.276 0-8 3.724-8 8h1c0-3.724 3.276-7 7-7v-1zm-8 8v52.5h1V214h-1zm.5 53h7.5v-1H305v1zm8-.5v-5h-1v5h1zm-.081-4.727l30-46-.838-.546-30 46 .838.546zM343 215.5V209h-1v6.5h1zM310 156h12.5v-1H310v1zm32.146-20.354l-10.5 10.5.708.708 10.5-10.5-.708-.708z" fill="#00A3C7"/><path d="M248.5 136l-.5 72.5v6.5l30 46v5h7.5v-52.5c0-4-2.5-7.5-7.5-7.5v-44h2.5v-6.5H268v6.5h2.5v44H254l4.5-60-10-10z" fill="#1B1B1B"/><path d="M248.5 136l-.5-.003.854-.351-.354.354zm-.5 72.5h-.5v-.004l.5.004zm10.5-62.5l.354-.354.162.163-.017.228-.499-.037zm9.5 9.5h-.5v-.5h.5v.5zm0 6.5v.5h-.5v-.5h.5zm12.5 0h.5v.5h-.5v-.5zm0-6.5v-.5h.5v.5h-.5zm5 110.5h.5v.5h-.5v-.5zm-7.5 0v.5h-.5v-.5h.5zm0-5l.419-.273.081.124V261h-.5zm-30-46l-.419.273-.081-.125V215h.5zm1-78.997l-.5 72.5-1-.007.5-72.499 1 .006zm-1.192 72.035l6-2.5.384.923-6 2.5-.384-.923zm5.693-2.076l4.5-59.999.998.074-4.5 60-.998-.075zM268.5 155.5v6.5h-1v-6.5h1zM280 162v-6.5h1v6.5h-1zm-2-.5h2.5v1H278v-1zm.5.5v44h-1v-44h1zm-10.5-.5h2.5v1H268v-1zm2.5 0h7.5v1h-7.5v-1zm.5.5v44h-1v-44h1zm-17 43.5h16.5v1H254v-1zm16.5 0h7.5v1h-7.5v-1zm7.5 0c2.625 0 4.64.923 5.995 2.413 1.348 1.483 2.005 3.486 2.005 5.587h-1c0-1.899-.593-3.647-1.745-4.914-1.145-1.259-2.88-2.086-5.255-2.086v-1zm8 8V266h-1v-52.5h1zm-.5 53H278v-1h7.5v1zm-8-.5v-5h1v5h-1zm.081-4.727l-30-46 .838-.546 30 46-.838.546zM247.5 215v-6.5h1v6.5h-1zm33-59H268v-1h12.5v1zm-22.354-9.646l-10-10 .708-.708 10 10-.708.708z" fill="#00A3C7"/><circle cx="283" cy="143" r="3.5" stroke="#00A3C7"/><circle cx="309" cy="143" r="3.5" stroke="#00A3C7"/><circle cx="313.5" cy="214.5" r="2" stroke="#00A3C7"/><circle cx="255.5" cy="214.5" r="2" stroke="#00A3C7"/><circle cx="334.5" cy="214.5" r="2" stroke="#00A3C7"/><circle cx="276.5" cy="214.5" r="2" stroke="#00A3C7"/><path d="M310 249.502V233a2 2 0 012-2h11.221c1.606 0 2.557 1.797 1.654 3.125l-11.221 16.502c-1.108 1.628-3.654.844-3.654-1.125zm-29 0V233a2 2 0 00-2-2h-11.221c-1.606 0-2.557 1.797-1.654 3.125l11.221 16.502c1.108 1.628 3.654.844 3.654-1.125z" stroke="#00A3C7"/><circle cx="359" cy="358" r="49.5" fill="#1B1B1B" stroke="#00A3C7"/><circle cx="359" cy="358" r="33.5" fill="#1B1B1B" stroke="#00A3C7"/><circle cx="353" cy="317" r="4.5" fill="#1B1B1B" stroke="#00A3C7"/><circle cx="399" cy="370" r="4.5" fill="#1B1B1B" stroke="#00A3C7"/><circle cx="324" cy="380" r="4.5" fill="#1B1B1B" stroke="#00A3C7"/><circle cx="568.999" cy="197.001" r="41.5" transform="rotate(-53.722 568.999 197.001)" fill="#1B1B1B" stroke="#00A3C7"/><circle cx="568.997" cy="197.004" r="28.06" transform="rotate(-53.722 568.997 197.004)" stroke="#00A3C7"/><circle cx="535.871" cy="188.873" r="3.7" transform="rotate(-53.722 535.871 188.873)" stroke="#00A3C7"/><circle cx="596.871" cy="177.873" r="3.7" transform="rotate(-53.722 596.871 177.873)" stroke="#00A3C7"/><circle cx="576.871" cy="230.873" r="3.7" transform="rotate(-53.722 576.871 230.873)" stroke="#00A3C7"/><path d="M411 107.5h9.5L453 65v-8l-27-19.5-39.5 51 24.5 19z" fill="#1B1B1B" stroke="#00A3C7"/><path d="M449.5 54.5L411 107m32.5-57L405 102.5" stroke="#00A3C7"/><circle cx="399.839" cy="58.839" r="35.339" fill="#1B1B1B" stroke="#00A3C7"/><circle cx="399.839" cy="58.841" r="23.87" stroke="#00A3C7"/><circle cx="388.705" cy="31.945" r="3.084" stroke="#00A3C7"/><circle cx="427.072" cy="68.353" r="3.084" stroke="#00A3C7"/><circle cx="377.615" cy="76.76" r="3.084" stroke="#00A3C7"/><path d="M491.92 205.799l-84.845 68.534 46.341 57.728 84.844-68.534 2.843-5.996-41.924-51.722-7.259-.01z" fill="#1B1B1B" stroke="#00A3C7"/></svg>