<svg width="189" height="36" fill="none" xmlns="http://www.w3.org/2000/svg"><path d="M2.422.625V10.82h1.664V.625h1.437V10.82h1.665V.625h1.437V12H.977V.625h1.445zM15.31 6.852h-1.336V12H12.53V.625h1.445v5.047h1.219l3.46-5.047h1.657l-3.867 5.508L20.63 12h-1.773L15.31 6.852zm13.897 2.203H25.41L24.497 12h-1.445L26.723.625h1.211L31.544 12h-1.438l-.898-2.945zm-3.406-1.258h3.023l-1.5-4.938-1.523 4.938zm13.35-5.563c.505.042.97.17 1.398.383.432.214.807.5 1.125.86a4 4 0 01.734 1.265 4.49 4.49 0 01.274 1.594 4.57 4.57 0 01-.274 1.61 4 4 0 01-.734 1.265 3.685 3.685 0 01-2.523 1.258V12h-1.446v-1.531a3.768 3.768 0 01-1.414-.375c-.427-.214-.8-.5-1.117-.86a3.905 3.905 0 01-.742-1.273 4.7 4.7 0 01-.266-1.61c0-.578.089-1.111.266-1.601.177-.49.424-.914.742-1.273a3.679 3.679 0 012.531-1.242V.624h1.446v1.61zm-3.555 4.118c0 .416.047.799.14 1.148.094.344.232.64.415.89a2.1 2.1 0 00.656.618c.26.15.56.242.898.273v-5.86a2.176 2.176 0 00-.898.29 2.02 2.02 0 00-.656.61c-.183.255-.32.554-.415.898-.093.343-.14.721-.14 1.133zm5.648-.016c0-.412-.047-.787-.14-1.125a2.901 2.901 0 00-.407-.899 2.151 2.151 0 00-.664-.601 2.106 2.106 0 00-.882-.29v5.86c.333-.036.627-.13.882-.281.26-.156.482-.362.664-.617.178-.255.313-.555.407-.899.093-.349.14-.731.14-1.148zm6.163-1.031h.719c.494 0 .93.08 1.304.242.38.156.7.377.961.664.255.292.448.643.578 1.055.13.406.196.856.196 1.351s-.066.95-.196 1.367c-.13.412-.323.766-.578 1.063-.26.302-.58.536-.96.703-.376.167-.81.25-1.305.25h-2.165V.625h1.446v4.68zM53.423 12h-1.445V.625h1.445V12zm-6.015-5.516v4.336h.719c.286 0 .53-.06.734-.18.203-.124.367-.291.492-.5.125-.203.216-.437.274-.703.057-.265.085-.544.085-.835a3.72 3.72 0 00-.085-.813 2.047 2.047 0 00-.274-.672 1.462 1.462 0 00-.5-.46 1.429 1.429 0 00-.726-.173h-.72zM75.584 12H74.14V1.812h-4.172V12h-1.445V.625h7.062V12zm11.64-5.031a8.356 8.356 0 01-.11 1.234c-.062.412-.161.81-.297 1.195-.135.386-.31.745-.523 1.079a3.789 3.789 0 01-.75.875 3.42 3.42 0 01-1.008.593c-.375.14-.797.211-1.266.211a3.65 3.65 0 01-1.273-.21 3.435 3.435 0 01-1-.594 3.951 3.951 0 01-.758-.875 5.354 5.354 0 01-.523-1.086 6.612 6.612 0 01-.313-1.196 8.205 8.205 0 01-.11-1.226V5.672c.006-.406.04-.815.102-1.227a6.6 6.6 0 01.313-1.203c.135-.385.307-.745.515-1.078a4.04 4.04 0 01.758-.89 3.32 3.32 0 011-.587 3.55 3.55 0 011.274-.218c.468 0 .893.073 1.273.219.38.14.716.335 1.008.585.292.25.542.545.75.883.213.334.39.693.531 1.078.136.386.235.787.297 1.204.068.416.104.828.11 1.234v1.297zm-1.43-1.313a9.688 9.688 0 00-.055-.843 6.406 6.406 0 00-.156-.883 4.823 4.823 0 00-.305-.82 2.762 2.762 0 00-.469-.704 2.076 2.076 0 00-1.554-.648 2.05 2.05 0 00-1.547.656 2.762 2.762 0 00-.469.703c-.125.26-.224.534-.297.82a6.454 6.454 0 00-.172.883c-.03.292-.05.57-.054.836V6.97c.005.265.023.547.054.843.037.297.094.589.172.875.078.292.18.57.305.836s.281.498.469.696c.187.203.409.364.664.484.255.12.552.18.89.18a2.064 2.064 0 001.563-.664c.182-.198.333-.427.453-.688a4.99 4.99 0 00.305-.836c.073-.286.122-.578.148-.875.031-.297.05-.58.055-.851V5.656zm12.608 2.922a4.99 4.99 0 01-.407 1.453 3.734 3.734 0 01-.789 1.125 3.504 3.504 0 01-1.164.742 4.072 4.072 0 01-1.484.258c-.469 0-.896-.065-1.281-.195a3.543 3.543 0 01-1.016-.555 3.689 3.689 0 01-.781-.828 5.005 5.005 0 01-.532-1.039 6.261 6.261 0 01-.328-1.18 8.32 8.32 0 01-.11-1.25V5.523a8.32 8.32 0 01.11-1.25c.073-.411.183-.804.328-1.18.141-.374.318-.72.532-1.038a3.62 3.62 0 01.78-.836 3.404 3.404 0 011.017-.547 3.8 3.8 0 011.28-.203c.569 0 1.076.088 1.524.265.448.172.834.417 1.156.735.323.323.581.708.774 1.156.198.448.328.943.39 1.484h-1.445a4.263 4.263 0 00-.242-.96 2.648 2.648 0 00-.46-.782 1.99 1.99 0 00-.712-.523 2.29 2.29 0 00-.984-.196c-.344 0-.649.058-.914.172-.26.11-.485.26-.672.453a2.637 2.637 0 00-.484.672 4.583 4.583 0 00-.305.813c-.078.286-.136.58-.172.883a8.298 8.298 0 00-.047.867v1.601c0 .282.016.573.047.875.036.297.094.589.172.875.078.292.18.565.304.82.126.256.284.48.477.673.193.197.42.354.68.468.26.11.565.164.914.164.38 0 .708-.06.984-.18.281-.12.518-.288.711-.507.193-.214.347-.466.461-.758.115-.297.195-.617.242-.96h1.446zm11.514-6.719H106.4V12h-1.406V1.86h-3.516V.624h8.438v1.234zm10.936 5.11a8.426 8.426 0 01-.11 1.234 6.49 6.49 0 01-.297 1.195 5.17 5.17 0 01-.523 1.079 3.774 3.774 0 01-.75.875 3.42 3.42 0 01-1.008.593c-.375.14-.797.211-1.266.211a3.65 3.65 0 01-1.273-.21 3.44 3.44 0 01-1-.594 3.957 3.957 0 01-.758-.875 5.363 5.363 0 01-.523-1.086 6.605 6.605 0 01-.313-1.196 8.257 8.257 0 01-.109-1.226V5.672c.005-.406.039-.815.101-1.227a6.6 6.6 0 01.313-1.203c.135-.385.307-.745.516-1.078.213-.338.466-.635.757-.89a3.31 3.31 0 011-.587 3.537 3.537 0 011.274-.218c.469 0 .893.073 1.273.219.38.14.716.335 1.008.585.292.25.542.545.75.883.214.334.391.693.531 1.078.136.386.235.787.297 1.204.068.416.104.828.11 1.234v1.297zm-1.43-1.313a9.692 9.692 0 00-.055-.843 6.346 6.346 0 00-.156-.883 4.815 4.815 0 00-.305-.82 2.773 2.773 0 00-.468-.704 2.076 2.076 0 00-1.555-.648 2.05 2.05 0 00-1.547.656 2.75 2.75 0 00-.469.703c-.125.26-.224.534-.297.82a6.547 6.547 0 00-.172.883c-.031.292-.049.57-.054.836V6.97c.005.265.023.547.054.843.037.297.094.589.172.875.078.292.18.57.305.836s.281.498.469.696c.187.203.409.364.664.484.255.12.552.18.89.18a2.072 2.072 0 001.563-.664 2.64 2.64 0 00.453-.688c.125-.265.227-.544.305-.836.073-.286.122-.578.148-.875a10 10 0 00.055-.851V5.656zM130.155 12V7.258h-2.422L125.35 12h-1.539l2.664-5.14a4.748 4.748 0 01-.82-.383 3.484 3.484 0 01-.641-.5 2.73 2.73 0 01-.594-.915 3.248 3.248 0 01-.195-1.156c0-.52.091-.984.273-1.39a2.82 2.82 0 01.805-1.04 3.63 3.63 0 011.25-.632 5.85 5.85 0 011.656-.219h3.391V12h-1.445zm-4.485-8.11c0 .308.052.594.157.86.109.266.268.495.476.688.208.197.469.351.781.46.313.11.672.165 1.078.165h1.993v-4.25h-1.946a3.71 3.71 0 00-1.101.148 2.23 2.23 0 00-.789.406 1.757 1.757 0 00-.485.664 2.168 2.168 0 00-.164.86zM143.005 12h-1.368V6.742h-4.664V12h-1.359V.625h1.359v4.89h4.664V.626h1.368V12zm11.209 0h-1.367V6.742h-4.664V12h-1.36V.625h1.36v4.89h4.664V.626h1.367V12zm11.475-5.031a8.423 8.423 0 01-.109 1.234 6.63 6.63 0 01-.297 1.195 5.18 5.18 0 01-.524 1.079 3.774 3.774 0 01-.75.875 3.4 3.4 0 01-1.007.593c-.375.14-.797.211-1.266.211s-.893-.07-1.274-.21a3.44 3.44 0 01-1-.594 3.953 3.953 0 01-.757-.875 5.366 5.366 0 01-.524-1.086 6.603 6.603 0 01-.312-1.196 8.26 8.26 0 01-.11-1.226V5.672c.006-.406.039-.815.102-1.227.068-.416.172-.817.312-1.203.136-.385.308-.745.516-1.078.214-.338.466-.635.758-.89a3.31 3.31 0 011-.587 3.55 3.55 0 011.273-.218c.469 0 .894.073 1.274.219.38.14.716.335 1.008.585.291.25.541.545.75.883.213.334.39.693.531 1.078.135.386.234.787.297 1.204.067.416.104.828.109 1.234v1.297zm-1.43-1.313a9.68 9.68 0 00-.054-.843 6.5 6.5 0 00-.157-.883 4.812 4.812 0 00-.304-.82 2.776 2.776 0 00-.469-.704 2.083 2.083 0 00-1.555-.648c-.333 0-.627.06-.883.18a2.19 2.19 0 00-.664.476 2.773 2.773 0 00-.468.703c-.125.26-.224.534-.297.82a6.395 6.395 0 00-.172.883c-.031.292-.05.57-.055.836V6.97c.005.265.024.547.055.843.036.297.094.589.172.875.078.292.179.57.304.836s.282.498.469.696c.188.203.409.364.664.484.256.12.552.18.891.18.338 0 .635-.06.891-.18.26-.12.484-.281.671-.484a2.61 2.61 0 00.454-.688 4.98 4.98 0 00.453-1.71c.031-.298.049-.581.054-.852V5.656zm12.257-3.843h-5.508V12h-1.453V.625h6.961v1.188zm11.592 5.156a8.29 8.29 0 01-.11 1.234c-.062.412-.161.81-.296 1.195a5.18 5.18 0 01-.524 1.079 3.774 3.774 0 01-.75.875c-.292.25-.627.447-1.008.593-.375.14-.797.211-1.265.211a3.65 3.65 0 01-1.274-.21 3.44 3.44 0 01-1-.594 3.983 3.983 0 01-.758-.875 5.363 5.363 0 01-.523-1.086 6.521 6.521 0 01-.312-1.196 8.128 8.128 0 01-.11-1.226V5.672c.005-.406.039-.815.102-1.227.067-.416.172-.817.312-1.203.136-.385.307-.745.516-1.078.213-.338.466-.635.758-.89.291-.25.625-.446 1-.587.38-.145.804-.218 1.273-.218.469 0 .893.073 1.274.219.38.14.716.335 1.007.585.292.25.542.545.75.883.214.334.391.693.532 1.078.135.386.234.787.296 1.204.068.416.105.828.11 1.234v1.297zm-1.43-1.313a9.315 9.315 0 00-.055-.843 6.346 6.346 0 00-.156-.883 4.812 4.812 0 00-.304-.82 2.776 2.776 0 00-.469-.704 2.083 2.083 0 00-1.555-.648c-.333 0-.628.06-.883.18a2.19 2.19 0 00-.664.476 2.776 2.776 0 00-.469.703 4.33 4.33 0 00-.296.82 6.25 6.25 0 00-.172.883 9.27 9.27 0 00-.055.836V6.97c.005.265.023.547.055.843.036.297.093.589.172.875.078.292.179.57.304.836s.282.498.469.696c.188.203.409.364.664.484.255.12.552.18.891.18a2.07 2.07 0 001.562-.664c.182-.198.334-.427.453-.688.125-.265.227-.544.305-.836.073-.286.122-.578.148-.875.032-.297.05-.58.055-.851V5.656zM9.031 22.86H5.516V33H4.109V22.86H.594v-1.235H9.03v1.234zm10.936 5.11a8.355 8.355 0 01-.11 1.234 6.57 6.57 0 01-.296 1.195c-.136.386-.31.745-.523 1.079a3.789 3.789 0 01-.75.875 3.41 3.41 0 01-1.008.593c-.375.14-.797.211-1.266.211a3.65 3.65 0 01-1.273-.21 3.436 3.436 0 01-1-.594 3.956 3.956 0 01-.758-.875 5.36 5.36 0 01-.524-1.086 6.61 6.61 0 01-.312-1.196 8.19 8.19 0 01-.11-1.226v-1.297a8.92 8.92 0 01.102-1.227 6.6 6.6 0 01.313-1.203 5.41 5.41 0 01.515-1.078c.214-.338.466-.635.758-.89a3.32 3.32 0 011-.587 3.55 3.55 0 011.273-.218c.47 0 .894.073 1.274.218.38.141.716.336 1.008.586.291.25.541.545.75.883.213.334.39.693.53 1.078.136.386.235.787.298 1.203.067.417.104.829.11 1.235v1.297zm-1.43-1.313a9.65 9.65 0 00-.054-.843 6.392 6.392 0 00-.156-.883 4.83 4.83 0 00-.305-.82 2.764 2.764 0 00-.469-.704 2.076 2.076 0 00-1.555-.648 2.05 2.05 0 00-1.546.656 2.762 2.762 0 00-.47.703 4.47 4.47 0 00-.296.82 6.439 6.439 0 00-.172.883c-.031.292-.05.57-.055.836v1.313c.006.265.024.547.055.843.037.297.094.589.172.875.078.292.18.57.305.836s.28.498.468.696c.188.203.41.364.664.484.256.12.553.18.891.18a2.064 2.064 0 001.563-.664c.182-.198.333-.427.453-.688a4.95 4.95 0 00.304-.836 5.48 5.48 0 00.149-.875c.031-.297.05-.58.055-.851v-1.313zm7.983 1.196h-1.336V33H23.74V21.625h1.445v5.047h1.22l3.46-5.047h1.656l-3.867 5.508L31.841 33h-1.774l-3.547-5.148zm13.897 2.203H36.62L35.706 33h-1.445l3.672-11.375h1.21L42.754 33h-1.437l-.899-2.945zm-3.406-1.258h3.023l-1.5-4.938-1.523 4.938zm27.833 6.992h-1.305V33h-5.508v2.805h-1.226l-.211-3.985h.508c.24-.156.45-.38.632-.672.183-.296.339-.674.47-1.132.067-.24.127-.506.179-.797a15.646 15.646 0 00.234-1.922c.026-.344.044-.711.055-1.102l.25-4.57h5.07V31.82h.992l-.14 3.97zm-4.711-9.594a37.21 37.21 0 01-.094 1.547c-.036.417-.083.815-.14 1.195-.053.375-.118.724-.196 1.047-.083.365-.18.7-.289 1.008-.11.307-.232.584-.367.828h3.5v-9.008h-2.242l-.172 3.383zm15.881 1.774a8.355 8.355 0 01-.11 1.234c-.062.412-.16.81-.296 1.195a5.18 5.18 0 01-.524 1.079 3.793 3.793 0 01-.75.875 3.41 3.41 0 01-1.007.593c-.375.14-.797.211-1.266.211a3.65 3.65 0 01-1.274-.21 3.436 3.436 0 01-1-.594 3.951 3.951 0 01-.757-.875 5.36 5.36 0 01-.524-1.086 6.62 6.62 0 01-.312-1.196 8.19 8.19 0 01-.11-1.226v-1.297a8.92 8.92 0 01.102-1.227c.068-.416.172-.817.312-1.203.136-.385.308-.745.516-1.078.214-.338.466-.635.758-.89.291-.25.625-.446 1-.587a3.55 3.55 0 011.273-.218c.47 0 .894.073 1.274.218.38.141.716.336 1.008.586.291.25.541.545.75.883.213.334.39.693.53 1.078.136.386.235.787.298 1.203.067.417.104.829.11 1.235v1.297zm-1.43-1.313a9.69 9.69 0 00-.054-.843 6.392 6.392 0 00-.157-.883 4.82 4.82 0 00-.304-.82 2.764 2.764 0 00-.469-.704 2.076 2.076 0 00-1.555-.648c-.333 0-.627.06-.883.18-.255.12-.476.278-.664.476a2.762 2.762 0 00-.468.703c-.125.26-.224.534-.297.82a6.454 6.454 0 00-.172.883c-.031.292-.05.57-.055.836v1.313c.005.265.024.547.055.843.036.297.094.589.172.875.078.292.18.57.304.836.125.266.282.498.47.696.187.203.408.364.663.484.255.12.552.18.89.18.34 0 .636-.06.892-.18.26-.12.484-.281.671-.484a2.61 2.61 0 00.454-.688 4.95 4.95 0 00.304-.836 5.48 5.48 0 00.149-.875c.03-.297.05-.58.054-.851v-1.313zm21.778-5.039v1.297h-.124c-.688 0-1.271.099-1.75.297a3.32 3.32 0 00-1.188.781 3.46 3.46 0 00-.75 1.227 5.37 5.37 0 00-.297 1.46c.135-.16.292-.31.469-.445.177-.14.37-.263.578-.367a3.26 3.26 0 01.656-.234c.24-.063.49-.094.75-.094.568 0 1.057.11 1.469.328.412.214.75.498 1.016.852.265.354.46.755.586 1.203.125.448.187.904.187 1.367 0 .531-.076 1.031-.227 1.5a3.449 3.449 0 01-.664 1.227 3.125 3.125 0 01-1.109.836c-.437.203-.945.304-1.523.304-.584 0-1.097-.117-1.54-.351a3.547 3.547 0 01-1.117-.914 4.127 4.127 0 01-.757-1.438 5.704 5.704 0 01-.25-1.656v-.68c0-.948.111-1.88.335-2.797.225-.916.662-1.7 1.313-2.351a4.259 4.259 0 011.633-1.008c.64-.23 1.367-.344 2.18-.344h.124zm-1.89 5.125c-.245 0-.482.04-.711.117a2.468 2.468 0 00-1.524 1.493v.484c0 .5.06.945.18 1.336.12.385.281.71.485.976.203.266.437.47.703.61.265.135.544.203.836.203.338 0 .638-.065.898-.195s.482-.31.664-.54c.177-.229.31-.502.399-.82a3.77 3.77 0 00.14-1.047c0-.333-.041-.656-.125-.968a2.602 2.602 0 00-.383-.844 1.943 1.943 0 00-.648-.586 1.84 1.84 0 00-.914-.219zm9.459-.125h1.032c.364 0 .684-.05.96-.148.282-.1.519-.235.711-.407a1.71 1.71 0 00.43-.617c.099-.24.149-.502.149-.789a2.66 2.66 0 00-.133-.883 1.595 1.595 0 00-.391-.632 1.546 1.546 0 00-.625-.36 2.617 2.617 0 00-.844-.125c-.307 0-.588.047-.843.14a1.74 1.74 0 00-.641.392 1.766 1.766 0 00-.422.617 2.09 2.09 0 00-.148.804h-1.453a2.997 2.997 0 01.968-2.226 3.393 3.393 0 011.102-.664c.432-.167.911-.25 1.437-.25.511 0 .977.07 1.399.21.422.136.784.34 1.086.61.302.27.536.607.703 1.008.166.4.25.864.25 1.39a2.572 2.572 0 01-.414 1.36 2.892 2.892 0 01-1.336 1.117c.37.12.677.276.922.469.25.193.45.409.601.648.146.24.248.492.305.758.062.266.094.529.094.79 0 .53-.091 1.002-.274 1.413a2.927 2.927 0 01-.758 1.04 3.312 3.312 0 01-1.148.656 4.467 4.467 0 01-1.422.218c-.5 0-.971-.07-1.414-.21a3.352 3.352 0 01-1.141-.618 3.038 3.038 0 01-.773-.992 3.057 3.057 0 01-.281-1.336h1.445c0 .297.05.568.149.813.104.244.25.453.437.625.188.171.414.304.68.398.271.094.57.14.898.14.328 0 .625-.041.891-.124.265-.089.492-.222.679-.399a1.73 1.73 0 00.43-.656c.104-.266.156-.578.156-.938 0-.354-.06-.659-.179-.914a1.727 1.727 0 00-.485-.648 2.106 2.106 0 00-.773-.383 3.634 3.634 0 00-.984-.125h-1.032v-1.172zm16.663 2.031c0 .724-.084 1.368-.25 1.93-.167.557-.406 1.026-.719 1.406a3.012 3.012 0 01-1.148.875c-.454.198-.972.297-1.555.297a3.982 3.982 0 01-1.555-.289 3.032 3.032 0 01-1.164-.883c-.318-.38-.56-.849-.726-1.406-.167-.562-.25-1.206-.25-1.93v-2.664c0-.724.083-1.364.25-1.922.166-.562.408-1.036.726-1.421a3.008 3.008 0 011.149-.875 3.795 3.795 0 011.554-.305c.584 0 1.102.102 1.555.305.458.198.846.49 1.164.875.313.385.552.859.719 1.422.166.557.25 1.197.25 1.921v2.664zm-5.914-.289l4.429-3.398a4.019 4.019 0 00-.226-.992 2.04 2.04 0 00-.43-.727 1.654 1.654 0 00-.656-.445 2.454 2.454 0 00-.891-.149c-.344 0-.648.055-.914.165-.26.104-.482.257-.664.46-.219.256-.383.586-.492.993a5.604 5.604 0 00-.156 1.398v2.695zm4.461.594v-2.609l-4.422 3.383c.047.38.13.716.25 1.007.12.287.276.524.469.711.177.177.39.313.64.407.25.088.531.132.844.132.328 0 .62-.05.875-.148a1.74 1.74 0 00.648-.43c.24-.255.414-.588.524-1 .114-.411.172-.896.172-1.453zm10.951 1.102h-3.797L125.381 33h-1.445l3.672-11.375h1.211L132.428 33h-1.437l-.899-2.945zm-3.406-1.258h3.023l-1.5-4.938-1.523 4.938z" fill="#00A3C7"/></svg>