<svg width="836" height="691" fill="none" xmlns="http://www.w3.org/2000/svg"><circle cx="115.864" cy="115.864" r="115.364" transform="matrix(1 0 0 -1 177.352 628.582)" stroke="#00D1FF"/><circle cx="29.491" cy="29.491" r="28.991" transform="matrix(1 0 0 -1 659.676 377.176)" stroke="#00D1FF" stroke-dasharray="4 4"/><circle cx="49.712" cy="49.712" r="49.212" transform="matrix(1 0 0 -1 639.461 397.4)" stroke="#00D1FF"/><circle cx="87.181" cy="87.181" r="86.681" transform="matrix(1 0 0 -1 206.035 599.9)" stroke="#00D1FF" stroke-dasharray="4 4"/><circle cx="21.065" cy="21.065" r="20.565" transform="matrix(1 0 0 -1 668.102 368.75)" stroke="#00D1FF"/><circle cx="24.532" cy="24.532" r="24.032" transform="matrix(1 0 0 -1 268.684 537.25)" stroke="#00D1FF"/><circle cx="10.954" cy="10.954" r="10.454" transform="matrix(1 0 0 -1 678.215 358.641)" stroke="#00D1FF"/><path d="M702.644 372.964L337.371 587.445" stroke="#00D1FF" stroke-linecap="round" stroke-dasharray="4 4"/><path d="M706.88 393.183L353.23 611.596m315.708-308.567l-404.032 97.6" stroke="#00D1FF" stroke-linecap="round"/><path d="M677.365 321.566L268.684 429.312" stroke="#00D1FF" stroke-linecap="round" stroke-dasharray="4 4"/><circle cx="4.213" cy="4.213" r="4.213" transform="matrix(1 0 0 -1 657.988 377.176)" stroke="#00D1FF" stroke-linecap="round"/><circle cx="4.213" cy="4.213" r="4.213" transform="matrix(1 0 0 -1 657.996 326.621)" stroke="#00D1FF" stroke-linecap="round"/><circle cx="4.213" cy="4.213" r="4.213" transform="matrix(1 0 0 -1 711.914 377.176)" stroke="#00D1FF" stroke-linecap="round"/><circle cx="4.213" cy="4.213" r="4.213" transform="matrix(1 0 0 -1 711.914 326.621)" stroke="#00D1FF" stroke-linecap="round"/><circle cx="292.842" cy="513.172" r="119.299" fill="#1B1B1B" stroke="#00A3C7"/><circle cx="292.841" cy="513.171" r="93.786" fill="#1B1B1B" stroke="#00A3C7"/><circle cx="292.84" cy="513.172" r="32.778" fill="#1B1B1B" stroke="#00A3C7"/><circle cx="293.398" cy="456.044" r="7.819" fill="#1B1B1B" stroke="#00A3C7"/><circle cx="293.398" cy="570.298" r="7.819" fill="#1B1B1B" stroke="#00A3C7"/><circle cx="350.524" cy="513.171" r="7.819" transform="rotate(90 350.524 513.171)" fill="#1B1B1B" stroke="#00A3C7"/><circle cx="236.27" cy="513.171" r="7.819" transform="rotate(90 236.27 513.171)" fill="#1B1B1B" stroke="#00A3C7"/><path fill="#1B1B1B" stroke="#00A3C7" d="M285.578 477.066h15.639v8.983h-15.639zm-10.484-80.367h36.605v14.42h-36.605zm-1.11-32.168h38.824v5.546h-38.824zm9.985-17.748h8.874v17.748h-8.874z"/><path fill="#1B1B1B" stroke="#00A3C7" d="M292.84 346.783h8.874v17.748h-8.874z"/><path d="M273.984 364.532l4.992-6.655m0 0l4.992 6.655m-4.992-6.655v6.655m23.848 0l4.992-6.655m0 0l4.991 6.655m-4.991-6.655v6.655" stroke="#00A3C7"/><path fill="#1B1B1B" stroke="#00A3C7" d="M270.656 370.078h45.479v22.185h-45.479zm52.137-88.74h-6.656v107.597h6.656zm-52.137 0H264v107.597h6.656zm11.094 129.783h23.294v3.328H281.75z"/><path fill="#1B1B1B" stroke="#00A3C7" d="M286.188 414.447h14.42v5.546h-14.42zm-4.438-22.183h23.294v4.437H281.75z"/><path d="M322.793 375.624h6.101l26.067-93.731M264 375.624h-6.101l-26.067-93.731" stroke="#00A3C7"/><path fill="#1B1B1B" stroke="#00A3C7" d="M156.402 263.59h52.135v31.059h-52.135zm0 7.764h-17.748v-61.009h17.748z"/><path d="M193.008 140.463h-45.48v69.883h8.874v-15.53h36.606v-54.353zM163.059 263.59H132v-42.152h31.059z" fill="#1B1B1B" stroke="#00A3C7"/><path fill="#1B1B1B" stroke="#00A3C7" d="M163.059 259.152h-6.656v-33.278h6.656zm217.414 12.202h52.135v23.294h-52.135zm-5.547 0h57.681v-57.681h-57.681zm0-7.764H163.059v-42.152h211.867zm-169.715-93.178h-12.202v-29.95h12.202zm108.707 31.059h-37.715v-64.337h37.715z"/><path fill="#1B1B1B" stroke="#00A3C7" d="M309.48 128.262h-28.841v8.874h28.841z"/><path fill="#1B1B1B" stroke="#00A3C7" d="M301.715 128.262h-13.311v8.874h13.311zm7.765 0h-28.841v-2.219h28.841zm87.629 43.259h-14.42v-31.059h14.42zm35.498 26.624h-35.496v-57.682h46.588v27.177l-11.092 30.505z"/><path d="M432.607 198.145v18.857h4.437l6.655-7.21V167.64l-11.092 30.505zm-118.689 3.327h55.463v6.101h5.546v6.101h3.882v-17.748h3.883v-55.463h-68.774v61.009zm-108.707-6.657h3.882v6.656h67.11v-61.009h-70.992v54.353zm127.562 68.775h-77.648v5.546h77.648z" fill="#1B1B1B" stroke="#00A3C7"/><path d="M220.188 276.9v4.437h146.421V276.9" stroke="#00A3C7"/><path fill="#1B1B1B" stroke="#00A3C7" d="M332.773 263.59h32.168v7.765h-32.168zm-109.816 0h32.168v7.765h-32.168zm1.109-49.916h29.95v7.765h-29.95zm0-6.656h-9.983v14.42h9.983z"/><path d="M214.085 201.471h-5.546v19.966h5.546" stroke="#00A3C7"/><path fill="#1B1B1B" stroke="#00A3C7" d="M220.738 207.018h-3.328v-5.546h3.328zm113.145 6.656h29.95v7.765h-29.95zm41.043-5.547h-11.092v13.311h11.092zm-41.043 7.766h-79.866v5.546h79.866zm41.043 61.007h-9.983v-13.311h9.983zm-151.969 0h-8.874v-13.311h8.874z"/><path fill="#1B1B1B" stroke="#00A3C7" d="M208.539 281.338h5.546V263.59h-5.546z"/><circle cx="183.026" cy="279.118" r="7.765" fill="#1B1B1B" stroke="#00A3C7"/><circle cx="407.093" cy="283.556" r="7.765" fill="#1B1B1B" stroke="#00A3C7"/><circle cx="295.061" cy="106.076" r="16.639" fill="#1B1B1B" stroke="#00A3C7"/><path d="M272.32 91.656L278.976 85h31.614l6.655 6.656v27.731l-6.655 6.655h-31.614l-6.656-6.655V91.656z" fill="#1B1B1B" stroke="#00A3C7"/></svg>