<svg width="836" height="691" fill="none" xmlns="http://www.w3.org/2000/svg"><path d="M227 581.65V126.902h311.555V581.65H227z" fill="#1B1B1B" stroke="#00A3C7"/><path d="M240.883 567.766V113.885h311.554v453.881H240.883z" fill="#1B1B1B" stroke="#00A3C7"/><path d="M254.766 554.748V100h312.422v454.748H254.766z" fill="#1B1B1B" stroke="#00A3C7"/><path d="M326.879 554.447v-64.355h239.869v64.355H326.879z" fill="#1B1B1B" stroke="#00A3C7"/><path d="M399.598 554.447v-64.355h167.156v64.355H399.598z" fill="#1B1B1B" stroke="#00A3C7"/><path d="M399.598 554.447v-32.595h167.156v32.595H399.598z" fill="#1B1B1B" stroke="#00A3C7"/><circle cx="411.3" cy="309.562" r="99.465" stroke="#00A3C7"/><circle cx="411.302" cy="309.562" r="58.103" stroke="#00A3C7"/><path d="M411.305 173.33v272.465m136.234-136.233H275.074" stroke="#00A3C7"/><circle cx="11.818" cy="11.818" r="11.818" transform="matrix(1 0 0 -1 399.48 243.582)" stroke="#00A3C7"/><circle cx="11.818" cy="11.818" r="11.818" transform="matrix(1 0 0 -1 399.48 399.178)" stroke="#00A3C7"/><circle cx="11.818" cy="11.818" transform="matrix(0 1 1 0 477.285 297.744)" stroke="#00A3C7" r="11.818"/><circle cx="11.818" cy="11.818" transform="matrix(0 1 1 0 321.684 297.744)" stroke="#00A3C7" r="11.818"/><path d="M510.781 205.442h218.262l-13.885 15.621-.817.081c-25.518 2.551-39.579 3.956-43.443 16.408h-36.883l-18.225 9.112c0-8.244-5.641-14.319-18.225-14.319h-20.828c-18.051-12.497-39.342-15.043-47.731-14.754v-5.641l-3.471 3.472h-14.754v-9.98z" fill="#1B1B1B" stroke="#00A3C7"/><path d="M626.637 554.313h32.11V162.917l-1.736-1.735v-39.053h-28.639v39.053l-1.735 1.735v391.396z" fill="#1B1B1B" stroke="#00A3C7"/><path d="M510.781 148.598h218.262l-13.885-15.621c-26.036-2.603-42.958-7.81-45.128-11.282h-93.293c-18.051 12.497-39.342 15.043-47.731 14.754v5.641l-3.471-3.472h-14.754v9.98zm104.574 56.843h18.225v114.555h-18.225zm37.317 0h18.225v114.555h-18.225zm0 161.42h18.225v-39.053h-18.225zm-49.465 0h30.374v-39.052h-30.374v10.848h15.659a3 3 0 013 3v10.488a3 3 0 01-3 3h-15.659v11.716zm67.691-22.564h9.546v6.075h-9.546zm0-77.238h4.339v6.075h-4.339zm19.319 72.89a2.84 2.84 0 00-2.831-2.595h-3.941a3 3 0 00-3 3v13.96a3 3 0 003 3h3.941a2.841 2.841 0 002.831-2.596 85.1 85.1 0 000-14.769zm-5.207-77.238a2.841 2.841 0 00-2.831-2.596h-3.941a3 3 0 00-3 3v13.961a3 3 0 003 3h3.941a2.841 2.841 0 002.831-2.596 85.298 85.298 0 000-14.769z" fill="#1B1B1B" stroke="#00A3C7"/><rect x="601.465" y="340.826" width="18.225" height="12.15" rx="2" fill="#1B1B1B" stroke="#00A3C7"/><path d="M608.415 290.057c3.471-2.43 6.075-6.509 6.943-8.245v38.185h-13.452v-17.356c0-7.377 2.17-9.547 6.509-12.584z" fill="#1B1B1B" stroke="#00A3C7"/><path fill="#1B1B1B" stroke="#00A3C7" d="M606.68 319.996h7.811v7.811h-7.811zm1.73 46.865h4.339v9.282a2 2 0 01-2 2h-.339a2 2 0 01-2-2v-9.282z"/><circle cx="620.569" cy="219.327" r="3.471" fill="#1B1B1B" stroke="#00A3C7"/><circle cx="665.694" cy="219.327" r="3.471" fill="#1B1B1B" stroke="#00A3C7"/><circle cx="620.569" cy="261.852" r="3.471" fill="#1B1B1B" stroke="#00A3C7"/><circle cx="665.694" cy="261.852" r="3.471" fill="#1B1B1B" stroke="#00A3C7"/><circle cx="620.569" cy="304.376" r="3.471" fill="#1B1B1B" stroke="#00A3C7"/><circle cx="665.694" cy="304.376" r="3.471" fill="#1B1B1B" stroke="#00A3C7"/><path d="M639.66 554.312h6.943v8.245h-.339a4 4 0 00-4 4v15.092h-2.604v-27.337z" fill="#1B1B1B" stroke="#00A3C7"/><path d="M643.989 546.938h-11.716m11.716-19.526h-11.716m11.716-19.527h-11.716m11.716-19.526h-11.716m11.716-19.527h-11.716m11.716-19.525h-11.716m11.716-19.528h-11.716m11.716-19.527h-11.716m11.716-19.525h-11.716m11.716-19.526h-11.716m11.711-19.094H633.57m10.414-19.959H633.57m10.414-19.96H633.57m10.414-19.092H633.57m10.414-19.961H633.57m10.414-19.092H633.57m10.414-19.961H633.57m10.414-19.094H633.57m10.419-19.525h-11.716m11.716-19.527h-11.716m11.716-19.526h-11.716m59.02-7.378v0a8.678 8.678 0 018.678-8.678h21.696m-30.374 65.522v0a6.075 6.075 0 006.075 6.075h26.903" stroke="#00A3C7"/></svg>