<svg width="505" height="484" viewBox="0 0 505 484" fill="none" xmlns="http://www.w3.org/2000/svg">
<path d="M1 482.65L0.999983 27.9022L312.555 27.9021L312.555 482.65L1 482.65Z" fill="#1B1B1B" stroke="#00A3C7"/>
<path d="M14.8828 468.766L14.8828 14.8853L326.437 14.8852L326.437 468.766L14.8828 468.766Z" fill="#1B1B1B" stroke="#00A3C7"/>
<path d="M28.7656 455.748L28.7656 0.999817L341.188 0.999803L341.188 455.748L28.7656 455.748Z" fill="#1B1B1B" stroke="#00A3C7"/>
<path d="M100.879 455.447L100.879 391.092L340.748 391.092L340.748 455.447L100.879 455.447Z" fill="#1B1B1B" stroke="#00A3C7"/>
<path d="M173.598 455.447L173.598 391.092L340.754 391.092L340.754 455.447L173.598 455.447Z" fill="#1B1B1B" stroke="#00A3C7"/>
<path d="M173.598 455.447L173.598 422.852L340.754 422.852L340.754 455.447L173.598 455.447Z" fill="#1B1B1B" stroke="#00A3C7"/>
<circle cx="185.3" cy="210.562" r="99.4645" stroke="#00A3C7"/>
<circle cx="185.302" cy="210.562" r="58.103" stroke="#00A3C7"/>
<path d="M185.305 74.3301V346.795" stroke="#00A3C7"/>
<path d="M321.539 210.562L49.0743 210.562" stroke="#00A3C7"/>
<circle cx="11.8176" cy="11.8176" r="11.8176" transform="matrix(1 0 0 -1 173.48 144.582)" stroke="#00A3C7"/>
<circle cx="11.8176" cy="11.8176" r="11.8176" transform="matrix(1 0 0 -1 173.48 300.178)" stroke="#00A3C7"/>
<ellipse cx="11.8176" cy="11.8176" rx="11.8176" ry="11.8176" transform="matrix(-4.37114e-08 1 1 4.37114e-08 251.285 198.744)" stroke="#00A3C7"/>
<ellipse cx="11.8176" cy="11.8176" rx="11.8176" ry="11.8176" transform="matrix(-4.37114e-08 1 1 4.37114e-08 95.6836 198.744)" stroke="#00A3C7"/>
<path d="M284.781 106.442H503.043L489.158 122.063L488.341 122.144C462.823 124.695 448.762 126.1 444.898 138.552H408.015L389.79 147.664C389.79 139.42 384.149 133.345 371.565 133.345H350.737C332.686 120.848 311.395 118.302 303.006 118.591V112.95L299.535 116.422H284.781V106.442Z" fill="#1B1B1B" stroke="#00A3C7"/>
<path d="M400.637 455.313H432.747V220.996V106.442V63.9174L431.011 62.1817V23.1289H402.372V62.1817L400.637 63.9174V106.442V220.996V455.313Z" fill="#1B1B1B" stroke="#00A3C7"/>
<path d="M284.781 49.5984H503.043L489.158 33.9772C463.122 31.3737 446.2 26.1667 444.03 22.6953H350.737C332.686 35.1922 311.395 37.7379 303.006 37.4486V43.0896L299.535 39.6182H284.781V49.5984Z" fill="#1B1B1B" stroke="#00A3C7"/>
<rect x="389.355" y="106.441" width="18.2246" height="114.555" fill="#1B1B1B" stroke="#00A3C7"/>
<rect x="426.672" y="106.441" width="18.2246" height="114.555" fill="#1B1B1B" stroke="#00A3C7"/>
<rect width="18.2246" height="39.0528" transform="matrix(1 0 0 -1 426.672 267.861)" fill="#1B1B1B" stroke="#00A3C7"/>
<path d="M377.207 267.861H407.581V228.809H377.207L377.207 239.657H392.866C394.522 239.657 395.866 241 395.866 242.657V253.145C395.866 254.802 394.522 256.145 392.866 256.145H377.207V267.861Z" fill="#1B1B1B" stroke="#00A3C7"/>
<rect x="444.898" y="245.297" width="9.54624" height="6.07488" fill="#1B1B1B" stroke="#00A3C7"/>
<rect x="444.898" y="168.059" width="4.3392" height="6.07488" fill="#1B1B1B" stroke="#00A3C7"/>
<path d="M464.217 240.949C464.09 239.48 462.86 238.354 461.386 238.354H457.445C455.788 238.354 454.445 239.697 454.445 241.354V255.314C454.445 256.971 455.788 258.314 457.445 258.314H461.386C462.86 258.314 464.09 257.187 464.217 255.718C464.645 250.805 464.645 245.863 464.217 240.949Z" fill="#1B1B1B" stroke="#00A3C7"/>
<path d="M459.01 163.711C458.883 162.242 457.653 161.115 456.179 161.115H452.238C450.581 161.115 449.238 162.458 449.238 164.115V178.076C449.238 179.732 450.581 181.076 452.238 181.076H456.179C457.653 181.076 458.883 179.949 459.01 178.48C459.437 173.566 459.437 168.625 459.01 163.711Z" fill="#1B1B1B" stroke="#00A3C7"/>
<rect x="375.465" y="241.826" width="18.2246" height="12.1498" rx="2" fill="#1B1B1B" stroke="#00A3C7"/>
<path d="M382.415 191.057C385.886 188.627 388.49 184.548 389.358 182.812V220.997H375.906V203.641C375.906 196.264 378.076 194.094 382.415 191.057Z" fill="#1B1B1B" stroke="#00A3C7"/>
<rect x="380.68" y="220.996" width="7.81056" height="7.81056" fill="#1B1B1B" stroke="#00A3C7"/>
<path d="M382.41 267.861H386.749V277.143C386.749 278.248 385.854 279.143 384.749 279.143H384.41C383.306 279.143 382.41 278.248 382.41 277.143V267.861Z" fill="#1B1B1B" stroke="#00A3C7"/>
<circle cx="394.569" cy="120.327" r="3.47136" fill="#1B1B1B" stroke="#00A3C7"/>
<circle cx="439.694" cy="120.327" r="3.47136" fill="#1B1B1B" stroke="#00A3C7"/>
<circle cx="394.569" cy="162.852" r="3.47136" fill="#1B1B1B" stroke="#00A3C7"/>
<circle cx="439.694" cy="162.852" r="3.47136" fill="#1B1B1B" stroke="#00A3C7"/>
<circle cx="394.569" cy="205.376" r="3.47136" fill="#1B1B1B" stroke="#00A3C7"/>
<circle cx="439.694" cy="205.376" r="3.47136" fill="#1B1B1B" stroke="#00A3C7"/>
<path d="M413.66 455.312H416.264H420.603V463.557H420.264C418.055 463.557 416.264 465.348 416.264 467.557V482.649H413.66V455.312Z" fill="#1B1B1B" stroke="#00A3C7"/>
<path d="M417.989 447.938H406.273" stroke="#00A3C7"/>
<path d="M417.989 428.412H406.273" stroke="#00A3C7"/>
<path d="M417.989 408.885H406.273" stroke="#00A3C7"/>
<path d="M417.989 389.359H406.273" stroke="#00A3C7"/>
<path d="M417.989 369.832H406.273" stroke="#00A3C7"/>
<path d="M417.989 350.307H406.273" stroke="#00A3C7"/>
<path d="M417.989 330.779H406.273" stroke="#00A3C7"/>
<path d="M417.989 311.252H406.273" stroke="#00A3C7"/>
<path d="M417.989 291.727H406.273" stroke="#00A3C7"/>
<path d="M417.989 272.201H406.273" stroke="#00A3C7"/>
<path d="M417.984 253.107H407.57" stroke="#00A3C7"/>
<path d="M417.984 233.148H407.57" stroke="#00A3C7"/>
<path d="M417.984 213.188H407.57" stroke="#00A3C7"/>
<path d="M417.984 194.096H407.57" stroke="#00A3C7"/>
<path d="M417.984 174.135H407.57" stroke="#00A3C7"/>
<path d="M417.984 155.043H407.57" stroke="#00A3C7"/>
<path d="M417.984 135.082H407.57" stroke="#00A3C7"/>
<path d="M417.984 115.988H407.57" stroke="#00A3C7"/>
<path d="M417.989 96.4629H406.273" stroke="#00A3C7"/>
<path d="M417.989 76.9355H406.273" stroke="#00A3C7"/>
<path d="M417.989 57.4102H406.273" stroke="#00A3C7"/>
<path d="M465.293 50.0319V50.0319C465.293 45.239 469.178 41.3535 473.971 41.3535H495.667" stroke="#00A3C7"/>
<path d="M465.293 106.876V106.876C465.293 110.231 468.013 112.951 471.368 112.951H498.271" stroke="#00A3C7"/>
</svg>
