<svg width="600" height="525" viewBox="0 0 600 525" fill="none" xmlns="http://www.w3.org/2000/svg">
<rect x="39" y="2" width="522" height="522" rx="30" fill="#1B1B1B" stroke="#00D1FF" stroke-linecap="round"/>
<path d="M169.5 247.921L172.62 243.242L190.297 253.121L187.697 257.8L169.5 247.921Z" fill="#00D1FF"/>
<path d="M232.108 168.725L236.477 165.257L248.898 181.25L245.008 184.921L232.108 168.725Z" fill="#00D1FF"/>
<path d="M337.097 107.389L342.438 105.78L348.075 125.23L343.104 127.205L337.097 107.389Z" fill="#00D1FF"/>
<path d="M436.558 89.69L442.136 89.6082L442.219 109.858L436.558 109.858L436.558 89.69Z" fill="#00D1FF"/>
<path d="M460.479 350.346L421.229 143.733L424.217 136.856L423.94 135.321L422.405 135.597L417.501 93.6897L418.524 93.5055L428.034 134.584L425.987 134.953L426.171 135.976L431.974 141.799L470.02 350.346" stroke="#00D1FF" stroke-linecap="round"/>
<rect x="55.6367" y="18.6367" width="488.725" height="488.725" rx="21" stroke="#00D1FF" stroke-linecap="round"/>
<rect x="62.918" y="25.916" width="474.167" height="474.167" rx="17" stroke="#00D1FF" stroke-linecap="round"/>
<path d="M91.4922 65.9922C91.4922 59.6409 96.6409 54.4922 102.992 54.4922V53.4922C96.0886 53.4922 90.4922 59.0886 90.4922 65.9922H91.4922ZM91.4922 460.008V65.9922H90.4922V460.008H91.4922ZM102.992 471.508C96.6409 471.508 91.4922 466.359 91.4922 460.008H90.4922C90.4922 466.912 96.0886 472.508 102.992 472.508V471.508ZM375.348 471.508H102.992V472.508H375.348V471.508ZM387.848 460.008V399.346H386.848V460.008H387.848ZM387.848 399.346C387.848 372.56 409.562 350.846 436.348 350.846V349.846C409.01 349.846 386.848 372.008 386.848 399.346H387.848ZM436.348 350.846H497.008V349.846H436.348V350.846ZM508.508 65.9922V338.346H509.508V65.9922H508.508ZM497.008 54.4922C503.359 54.4922 508.508 59.6409 508.508 65.9922H509.508C509.508 59.0886 503.912 53.4922 497.008 53.4922V54.4922ZM102.992 54.4922H497.008V53.4922H102.992V54.4922ZM497.008 350.846C503.912 350.846 509.508 345.249 509.508 338.346H508.508C508.508 344.697 503.359 349.846 497.008 349.846V350.846ZM375.348 472.508C382.251 472.508 387.848 466.912 387.848 460.008H386.848C386.848 466.359 381.699 471.508 375.348 471.508V472.508Z" fill="#00D1FF"/>
<circle cx="177.301" cy="118.464" r="32.2351" stroke="#00D1FF" stroke-linecap="round"/>
<path d="M155.465 95.5879L178.341 118.464" stroke="#00D1FF" stroke-linecap="round"/>
<circle cx="481.972" cy="439.773" r="24.9562" stroke="#00D1FF" stroke-linecap="round"/>
<circle cx="481.97" cy="439.773" r="17.6773" stroke="#00D1FF" stroke-linecap="round"/>
<path d="M470.535 427.295L494.451 451.211" stroke="#00D1FF" stroke-linecap="round"/>
<path d="M439.859 67.5102C439.859 67.223 439.626 66.9902 439.339 66.9902C439.052 66.9902 438.819 67.223 438.819 67.5102V90.3871C438.993 90.3868 439.166 90.3867 439.339 90.3867C439.513 90.3867 439.686 90.3868 439.859 90.3871V67.5102Z" fill="#00D1FF"/>
<path d="M129.467 400.779C129.467 400.606 129.467 400.433 129.467 400.259C129.467 400.086 129.467 399.913 129.467 399.739H106.59C106.303 399.739 106.07 399.972 106.07 400.259C106.07 400.546 106.303 400.779 106.59 400.779H129.467Z" fill="#00D1FF"/>
<path d="M130.084 380.539C130.106 380.193 130.128 379.847 130.151 379.501L107.335 378.008C107.048 377.989 106.801 378.206 106.782 378.493C106.763 378.779 106.981 379.027 107.267 379.046L130.084 380.539Z" fill="#00D1FF"/>
<path d="M131.977 360.627C132.021 360.283 132.066 359.94 132.111 359.596L109.462 356.637C109.177 356.6 108.916 356.801 108.879 357.085C108.842 357.37 109.043 357.631 109.327 357.668L131.977 360.627Z" fill="#00D1FF"/>
<path d="M135.198 340.633C135.264 340.293 135.331 339.953 135.399 339.613L113.016 335.186C112.734 335.13 112.461 335.314 112.405 335.595C112.349 335.877 112.533 336.15 112.814 336.206L135.198 340.633Z" fill="#00D1FF"/>
<path d="M139.817 320.541C139.906 320.206 139.996 319.871 140.086 319.536L118.065 313.636C117.787 313.561 117.502 313.726 117.428 314.003C117.354 314.281 117.518 314.566 117.796 314.64L139.817 320.541Z" fill="#00D1FF"/>
<path d="M145.656 301.146C145.767 300.818 145.878 300.489 145.99 300.161L124.409 292.838C124.137 292.745 123.841 292.891 123.749 293.163C123.657 293.435 123.802 293.73 124.074 293.822L145.656 301.146Z" fill="#00D1FF"/>
<path d="M152.664 282.408C152.796 282.088 152.929 281.767 153.062 281.447L131.994 272.745C131.729 272.636 131.425 272.762 131.315 273.027C131.206 273.293 131.332 273.597 131.597 273.706L152.664 282.408Z" fill="#00D1FF"/>
<path d="M160.984 263.942C161.136 263.631 161.29 263.32 161.443 263.009L140.979 252.945C140.722 252.818 140.41 252.925 140.283 253.182C140.156 253.44 140.263 253.752 140.52 253.878L160.984 263.942Z" fill="#00D1FF"/>
<path d="M170.678 245.746C170.851 245.445 171.025 245.145 171.199 244.846L151.434 233.434C151.186 233.291 150.868 233.376 150.724 233.625C150.58 233.873 150.666 234.191 150.914 234.335L170.678 245.746Z" fill="#00D1FF"/>
<path d="M181.359 228.539C181.552 228.251 181.744 227.963 181.938 227.675L162.945 214.987C162.706 214.828 162.383 214.892 162.224 215.131C162.064 215.369 162.128 215.692 162.367 215.852L181.359 228.539Z" fill="#00D1FF"/>
<path d="M192.987 212.265C193.198 211.99 193.409 211.714 193.62 211.44L175.472 197.543C175.244 197.368 174.918 197.412 174.743 197.64C174.569 197.868 174.612 198.194 174.84 198.368L192.987 212.265Z" fill="#00D1FF"/>
<path d="M205.8 196.585C206.028 196.323 206.257 196.063 206.486 195.802L189.276 180.743C189.06 180.554 188.731 180.576 188.542 180.792C188.353 181.008 188.375 181.336 188.591 181.525L205.8 196.585Z" fill="#00D1FF"/>
<path d="M219.86 181.513C220.104 181.268 220.349 181.023 220.595 180.778L204.419 164.603C204.216 164.399 203.887 164.399 203.684 164.603C203.481 164.806 203.481 165.135 203.684 165.338L219.86 181.513Z" fill="#00D1FF"/>
<path d="M234.612 167.643C234.873 167.414 235.133 167.185 235.394 166.957L220.312 149.763C220.123 149.547 219.794 149.525 219.579 149.715C219.363 149.904 219.341 150.233 219.531 150.448L234.612 167.643Z" fill="#00D1FF"/>
<path d="M250.038 154.912C250.312 154.7 250.587 154.488 250.862 154.277L236.928 136.155C236.753 135.927 236.426 135.885 236.199 136.06C235.971 136.235 235.928 136.561 236.103 136.789L250.038 154.912Z" fill="#00D1FF"/>
<path d="M266.457 143.058C266.745 142.865 267.032 142.671 267.32 142.479L254.609 123.5C254.45 123.261 254.127 123.197 253.888 123.357C253.65 123.517 253.586 123.84 253.745 124.078L266.457 143.058Z" fill="#00D1FF"/>
<path d="M283.927 132.118C284.227 131.944 284.527 131.77 284.827 131.597L273.415 111.83C273.271 111.582 272.953 111.497 272.705 111.64C272.456 111.784 272.371 112.102 272.514 112.35L283.927 132.118Z" fill="#00D1FF"/>
<path d="M301.764 122.524C302.075 122.37 302.385 122.217 302.696 122.064L292.607 101.61C292.48 101.352 292.168 101.246 291.911 101.373C291.653 101.5 291.548 101.812 291.675 102.069L301.764 122.524Z" fill="#00D1FF"/>
<path d="M319.963 114.217C320.282 114.083 320.602 113.95 320.923 113.818L312.178 92.7656C312.068 92.5004 311.764 92.3747 311.499 92.4849C311.234 92.595 311.108 92.8993 311.218 93.1645L319.963 114.217Z" fill="#00D1FF"/>
<path d="M338.898 107.027C339.226 106.915 339.554 106.803 339.883 106.692L332.533 85.1177C332.441 84.8459 332.145 84.7006 331.873 84.7932C331.602 84.8858 331.456 85.1812 331.549 85.453L338.898 107.027Z" fill="#00D1FF"/>
<path d="M358.619 101.005C358.953 100.915 359.288 100.826 359.623 100.737L353.722 78.7135C353.648 78.4361 353.363 78.2715 353.085 78.3458C352.808 78.4201 352.644 78.7052 352.718 78.9826L358.619 101.005Z" fill="#00D1FF"/>
<path d="M378.339 96.389C378.679 96.3212 379.019 96.2539 379.36 96.1872L374.906 73.8082C374.85 73.5266 374.576 73.3437 374.295 73.3997C374.013 73.4558 373.83 73.7295 373.886 74.0111L378.339 96.389Z" fill="#00D1FF"/>
<path d="M398.072 93.1105C398.415 93.0648 398.759 93.0197 399.103 92.9751L396.099 70.331C396.061 70.0464 395.8 69.8463 395.515 69.884C395.231 69.9218 395.03 70.1831 395.068 70.4678L398.072 93.1105Z" fill="#00D1FF"/>
<path d="M418.222 91.0949C418.568 91.0716 418.914 91.0489 419.26 91.0268L417.74 68.212C417.721 67.9255 417.473 67.7087 417.187 67.7278C416.9 67.7469 416.683 67.9946 416.702 68.2811L418.222 91.0949Z" fill="#00D1FF"/>
<path d="M157.05 346.455C157.116 346.115 157.995 343.408 158.062 343.068L135.68 338.641L134.666 342.028L157.05 346.455Z" fill="#00D1FF"/>
<path d="M305.199 271.318H312.998L322.357 298.354L331.195 271.318H338.474L324.956 310.312H319.757L305.199 271.318Z" stroke="#00A3C7"/>
<path d="M193.555 291.631V290.791L204.141 278.799C205.286 277.484 206.276 276.104 207.109 274.658C207.943 273.2 208.359 271.618 208.359 269.912C208.359 268.167 207.76 266.683 206.562 265.459C205.378 264.235 203.743 263.623 201.66 263.623C199.564 263.636 197.858 264.261 196.543 265.498C195.228 266.735 194.57 268.538 194.57 270.908V271.26H193.594V270.928C193.594 268.324 194.336 266.305 195.82 264.873C197.305 263.428 199.251 262.705 201.66 262.705C204.043 262.705 205.918 263.402 207.285 264.795C208.665 266.175 209.355 267.874 209.355 269.893C209.355 271.702 208.978 273.317 208.223 274.736C207.467 276.156 206.322 277.738 204.785 279.482L194.902 290.791H210.234V291.631H193.555ZM216.326 282.881V271.924C216.326 268.942 217.003 266.663 218.357 265.088C219.711 263.499 221.638 262.705 224.138 262.705C226.625 262.705 228.546 263.499 229.9 265.088C231.267 266.663 231.951 268.942 231.951 271.924V282.881C231.951 285.915 231.267 288.213 229.9 289.775C228.546 291.338 226.625 292.119 224.138 292.119C221.638 292.119 219.711 291.338 218.357 289.775C217.003 288.213 216.326 285.915 216.326 282.881ZM217.322 282.803C217.322 285.563 217.901 287.653 219.06 289.072C220.232 290.492 221.925 291.201 224.138 291.201C226.339 291.201 228.025 290.485 229.197 289.053C230.369 287.62 230.955 285.537 230.955 282.803V272.021C230.955 269.326 230.369 267.256 229.197 265.811C228.025 264.352 226.339 263.623 224.138 263.623C221.925 263.623 220.232 264.352 219.06 265.811C217.901 267.256 217.322 269.326 217.322 272.021V282.803ZM238.648 282.881V271.924C238.648 268.942 239.325 266.663 240.679 265.088C242.033 263.499 243.96 262.705 246.46 262.705C248.947 262.705 250.868 263.499 252.222 265.088C253.589 266.663 254.273 268.942 254.273 271.924V282.881C254.273 285.915 253.589 288.213 252.222 289.775C250.868 291.338 248.947 292.119 246.46 292.119C243.96 292.119 242.033 291.338 240.679 289.775C239.325 288.213 238.648 285.915 238.648 282.881ZM239.644 282.803C239.644 285.563 240.223 287.653 241.382 289.072C242.554 290.492 244.247 291.201 246.46 291.201C248.661 291.201 250.347 290.485 251.519 289.053C252.691 287.62 253.277 285.537 253.277 282.803V272.021C253.277 269.326 252.691 267.256 251.519 265.811C250.347 264.352 248.661 263.623 246.46 263.623C244.247 263.623 242.554 264.352 241.382 265.811C240.223 267.256 239.644 269.326 239.644 272.021V282.803Z" fill="#00A3C7"/>
<path d="M148.254 405.592V394.635C148.254 391.653 148.931 389.374 150.285 387.799C151.639 386.21 153.566 385.416 156.066 385.416C158.553 385.416 160.474 386.21 161.828 387.799C163.195 389.374 163.879 391.653 163.879 394.635V405.592C163.879 408.626 163.195 410.924 161.828 412.486C160.474 414.049 158.553 414.83 156.066 414.83C153.566 414.83 151.639 414.049 150.285 412.486C148.931 410.924 148.254 408.626 148.254 405.592ZM149.25 405.514C149.25 408.274 149.829 410.364 150.988 411.783C152.16 413.202 153.853 413.912 156.066 413.912C158.267 413.912 159.953 413.196 161.125 411.764C162.297 410.331 162.883 408.248 162.883 405.514V394.732C162.883 392.037 162.297 389.967 161.125 388.521C159.953 387.063 158.267 386.334 156.066 386.334C153.853 386.334 152.16 387.063 150.988 388.521C149.829 389.967 149.25 392.037 149.25 394.732V405.514Z" fill="#00A3C7"/>
<path d="M338.98 167.891V160.371V160.117V140.879H338.863L327.418 159.785H339.117H339.547H344.039V160.703H326.246V159.746L338.883 139.453H339.957V167.891H338.98ZM349.427 159.141V148.184C349.427 145.202 350.104 142.923 351.459 141.348C352.813 139.759 354.74 138.965 357.24 138.965C359.727 138.965 361.647 139.759 363.002 141.348C364.369 142.923 365.052 145.202 365.052 148.184V159.141C365.052 162.174 364.369 164.473 363.002 166.035C361.647 167.598 359.727 168.379 357.24 168.379C354.74 168.379 352.813 167.598 351.459 166.035C350.104 164.473 349.427 162.174 349.427 159.141ZM350.423 159.062C350.423 161.823 351.003 163.913 352.162 165.332C353.334 166.751 355.026 167.461 357.24 167.461C359.44 167.461 361.127 166.745 362.298 165.312C363.47 163.88 364.056 161.797 364.056 159.062V148.281C364.056 145.586 363.47 143.516 362.298 142.07C361.127 140.612 359.44 139.883 357.24 139.883C355.026 139.883 353.334 140.612 352.162 142.07C351.003 143.516 350.423 145.586 350.423 148.281V159.062ZM371.749 159.141V148.184C371.749 145.202 372.426 142.923 373.78 141.348C375.135 139.759 377.062 138.965 379.562 138.965C382.049 138.965 383.969 139.759 385.323 141.348C386.691 142.923 387.374 145.202 387.374 148.184V159.141C387.374 162.174 386.691 164.473 385.323 166.035C383.969 167.598 382.049 168.379 379.562 168.379C377.062 168.379 375.135 167.598 373.78 166.035C372.426 164.473 371.749 162.174 371.749 159.141ZM372.745 159.062C372.745 161.823 373.325 163.913 374.484 165.332C375.655 166.751 377.348 167.461 379.562 167.461C381.762 167.461 383.448 166.745 384.62 165.312C385.792 163.88 386.378 161.797 386.378 159.062V148.281C386.378 145.586 385.792 143.516 384.62 142.07C383.448 140.612 381.762 139.883 379.562 139.883C377.348 139.883 375.655 140.612 374.484 142.07C373.325 143.516 372.745 145.586 372.745 148.281V159.062Z" fill="#00A3C7"/>
</svg>
