<svg width="835" height="499" viewBox="0 0 835 499" fill="none" xmlns="http://www.w3.org/2000/svg">
<path d="M165.824 169.91H673.989" stroke="#00A3C7"/>
<path d="M150 206L691 206" stroke="#00A3C7"/>
<rect x="154.773" y="165" width="11.0471" height="14.7294" fill="#1B1B1B" stroke="#00A3C7"/>
<rect x="673.992" y="165" width="11.0471" height="14.7294" fill="#1B1B1B" stroke="#00A3C7"/>
<rect x="737.816" y="165" width="11.0471" height="14.7294" fill="#1B1B1B" stroke="#00A3C7"/>
<rect width="11.0471" height="14.7294" transform="matrix(-1 0 0 1 103.227 165)" fill="#1B1B1B" stroke="#00A3C7"/>
<path d="M684 180L772 497" stroke="#00A3C7"/>
<path d="M157 180L69.5 498" stroke="#00A3C7"/>
<path d="M745 180L813 497" stroke="#00A3C7"/>
<path d="M96 180L29 498" stroke="#00A3C7"/>
<path d="M685.031 169.91L737.812 169.91" stroke="#00A3C7"/>
<path d="M154.773 169.91L103.22 169.91" stroke="#00A3C7"/>
<circle cx="229.036" cy="179.115" r="1.84118" stroke="#00A3C7"/>
<circle cx="229.036" cy="187.706" r="1.84118" stroke="#00A3C7"/>
<circle cx="229.036" cy="196.298" r="1.84118" stroke="#00A3C7"/>
<circle cx="237.626" cy="179.115" r="1.84118" stroke="#00A3C7"/>
<circle cx="237.626" cy="187.706" r="1.84118" stroke="#00A3C7"/>
<circle cx="237.626" cy="196.298" r="1.84118" stroke="#00A3C7"/>
<circle cx="246.22" cy="179.115" r="1.84118" stroke="#00A3C7"/>
<circle cx="246.22" cy="187.706" r="1.84118" stroke="#00A3C7"/>
<circle cx="246.22" cy="196.298" r="1.84118" stroke="#00A3C7"/>
<circle cx="593.599" cy="179.115" r="1.84118" stroke="#00A3C7"/>
<circle cx="593.599" cy="187.706" r="1.84118" stroke="#00A3C7"/>
<circle cx="593.599" cy="196.298" r="1.84118" stroke="#00A3C7"/>
<circle cx="602.189" cy="179.115" r="1.84118" stroke="#00A3C7"/>
<circle cx="602.189" cy="187.706" r="1.84118" stroke="#00A3C7"/>
<circle cx="602.189" cy="196.298" r="1.84118" stroke="#00A3C7"/>
<circle cx="610.783" cy="179.115" r="1.84118" stroke="#00A3C7"/>
<circle cx="610.783" cy="187.706" r="1.84118" stroke="#00A3C7"/>
<circle cx="610.783" cy="196.298" r="1.84118" stroke="#00A3C7"/>
<path d="M189 206L172.607 498H150.143L138 249.601" stroke="#00A3C7"/>
<path d="M652 205.5L668.393 498H690.857L703 248.5" stroke="#00A3C7"/>
<path d="M192.828 272.402H138.82" stroke="#00A3C7"/>
<path d="M185.463 257.061H138.82" stroke="#00A3C7"/>
<path d="M187 241L140 241" stroke="#00A3C7"/>
<path d="M162.141 273.015L162.141 241.102" stroke="#00A3C7"/>
<path d="M648.207 272.402H702.215" stroke="#00A3C7"/>
<path d="M655.004 257L702.004 257" stroke="#00A3C7"/>
<path d="M654.004 241H701.004" stroke="#00A3C7"/>
<path d="M678.895 273.017L678.895 241.104" stroke="#00A3C7"/>
<path d="M835 498L0 498" stroke="#00A3C7"/>
<path d="M546.353 130.053L539.001 130.501L506.863 174.951L508.972 183.218L514.5 187.001L595.639 166.221L546.353 130.053Z" fill="#1B1B1B" stroke="#00A3C7"/>
<path d="M500.033 198.101L499.5 206L541 257.5L550.49 258.735L583.002 235.001L542.507 165.501L500.033 198.101Z" fill="#1B1B1B" stroke="#00A3C7"/>
<path d="M418 404V293L405.5 280H345L332 293V404" stroke="#00A3C7"/>
<path d="M444 497.5V475L421 418V403.5H330V418L307.5 475V497.5" stroke="#00A3C7"/>
<path d="M416.661 447.78C417.558 452.368 418.04 456.573 418.097 459.66C418.125 461.207 418.047 462.448 417.87 463.309C417.782 463.741 417.674 464.047 417.563 464.241C417.45 464.44 417.375 464.453 417.375 464.454C417.374 464.454 417.299 464.469 417.12 464.328C416.944 464.19 416.729 463.947 416.484 463.58C415.997 462.849 415.456 461.729 414.899 460.285C413.789 457.405 412.651 453.328 411.754 448.74C410.857 444.153 410.375 439.947 410.318 436.861C410.289 435.314 410.368 434.072 410.544 433.212C410.633 432.78 410.74 432.474 410.851 432.279C410.964 432.082 411.039 432.067 411.04 432.067L411.04 432.067L411.04 432.067C411.041 432.067 411.116 432.052 411.295 432.193C411.471 432.331 411.686 432.574 411.931 432.941C412.418 433.671 412.959 434.792 413.515 436.236C414.625 439.116 415.764 443.193 416.661 447.78Z" stroke="#00A3C7"/>
<path d="M332.753 447.78C331.856 452.368 331.374 456.573 331.317 459.66C331.289 461.207 331.367 462.448 331.544 463.309C331.632 463.741 331.74 464.047 331.851 464.241C331.964 464.44 332.039 464.453 332.039 464.454C332.04 464.454 332.115 464.469 332.294 464.328C332.47 464.19 332.685 463.947 332.93 463.58C333.417 462.849 333.958 461.729 334.515 460.285C335.625 457.405 336.763 453.328 337.66 448.74C338.557 444.153 339.039 439.947 339.096 436.861C339.125 435.314 339.046 434.072 338.87 433.212C338.781 432.78 338.674 432.474 338.563 432.279C338.45 432.082 338.375 432.067 338.374 432.067L338.374 432.067L338.374 432.067C338.373 432.067 338.298 432.052 338.119 432.193C337.943 432.331 337.728 432.574 337.483 432.941C336.996 433.671 336.455 434.792 335.899 436.236C334.789 439.116 333.65 443.193 332.753 447.78Z" stroke="#00A3C7"/>
<path d="M322.688 329.973L388.972 276.763L407.5 274.501L453.5 332.001L447.142 349.225L380.857 402.435L322.688 329.973Z" fill="#1B1B1B" stroke="#00A3C7"/>
<path d="M446.955 349.894L389.062 276.809" stroke="#00A3C7"/>
<path d="M553.998 256.033L504 195" stroke="#00A3C7"/>
<path d="M512.242 185.108L550.297 132.922" stroke="#00A3C7"/>
<path d="M453 64.5L539 130.5L507 175L420.5 107.5L453 64.5Z" fill="#1B1B1B" stroke="#00A3C7"/>
<path d="M437.955 357.378L380.062 284.293" stroke="#00A3C7"/>
<rect x="346" y="24" width="70" height="67" stroke="#00A3C7"/>
<rect width="16" height="67" transform="matrix(-1 0 0 1 346 24)" stroke="#00A3C7"/>
<rect x="262" y="16" width="68" height="100" stroke="#00A3C7"/>
<path d="M330 69H262" stroke="#00A3C7"/>
<path d="M262 16H330V16C330 7.71573 323.284 1 315 1H277C268.716 1 262 7.71573 262 16V16Z" stroke="#00A3C7"/>
<path d="M438 46C438 33.8497 428.15 24 416 24V24V91V91C428.15 91 438 81.1503 438 69V46Z" stroke="#00A3C7"/>
<path d="M248.608 135.901L258.309 116.5H332.691L342.392 135.901L322.793 155.5H268.207L248.608 135.901Z" stroke="#00A3C7"/>
<path d="M342.5 136V209V215.5L312.5 261.5V266.5H305V214C305 210 308.5 206.5 312.5 206.5V162.5H310V155.5H322.5V162.5H320V206.5H336.5L332 146.5L342.5 136Z" fill="#1B1B1B"/>
<path d="M342.5 136H343L342.146 135.646L342.5 136ZM332 146.5L331.646 146.146L331.484 146.309L331.501 146.537L332 146.5ZM322.5 155.5H323V155H322.5V155.5ZM322.5 162.5V163H323V162.5H322.5ZM310 162.5H309.5V163H310V162.5ZM310 155.5V155H309.5V155.5H310ZM305 266.5H304.5V267H305V266.5ZM312.5 266.5V267H313V266.5H312.5ZM312.5 261.5L312.081 261.227L312 261.351V261.5H312.5ZM342.5 215.5L342.919 215.773L343 215.649V215.5H342.5ZM342 136V209H343V136H342ZM342.692 208.538L336.692 206.038L336.308 206.962L342.308 209.462L342.692 208.538ZM336.999 206.463L332.499 146.463L331.501 146.537L336.001 206.537L336.999 206.463ZM322 155.5V162.5H323V155.5H322ZM310.5 162.5V155.5H309.5V162.5H310.5ZM312.5 162H310V163H312.5V162ZM312 162.5V206.5H313V162.5H312ZM322.5 162H320V163H322.5V162ZM320 162H312.5V163H320V162ZM319.5 162.5V206.5H320.5V162.5H319.5ZM336.5 206H320V207H336.5V206ZM320 206H312.5V207H320V206ZM312.5 206C308.224 206 304.5 209.724 304.5 214H305.5C305.5 210.276 308.776 207 312.5 207V206ZM304.5 214V266.5H305.5V214H304.5ZM305 267H312.5V266H305V267ZM313 266.5V261.5H312V266.5H313ZM312.919 261.773L342.919 215.773L342.081 215.227L312.081 261.227L312.919 261.773ZM343 215.5V209H342V215.5H343ZM310 156H322.5V155H310V156ZM342.146 135.646L331.646 146.146L332.354 146.854L342.854 136.354L342.146 135.646Z" fill="#00A3C7"/>
<path d="M248.5 136L248 208.5V215L278 261V266H285.5V213.5C285.5 209.5 283 206 278 206V162H280.5V155.5H268V162H270.5V206H254L258.5 146L248.5 136Z" fill="#1B1B1B"/>
<path d="M248.5 136L248 135.997L248.854 135.646L248.5 136ZM248 208.5H247.5L247.5 208.496L248 208.5ZM258.5 146L258.854 145.646L259.016 145.809L258.999 146.037L258.5 146ZM268 155.5H267.5V155H268V155.5ZM268 162V162.5H267.5V162H268ZM280.5 162H281V162.5H280.5V162ZM280.5 155.5V155H281V155.5H280.5ZM285.5 266H286V266.5H285.5V266ZM278 266V266.5H277.5V266H278ZM278 261L278.419 260.727L278.5 260.851V261H278ZM248 215L247.581 215.273L247.5 215.148V215H248ZM249 136.003L248.5 208.503L247.5 208.496L248 135.997L249 136.003ZM247.808 208.038L253.808 205.538L254.192 206.461L248.192 208.961L247.808 208.038ZM253.501 205.962L258.001 145.963L258.999 146.037L254.499 206.037L253.501 205.962ZM268.5 155.5V162H267.5V155.5H268.5ZM280 162V155.5H281V162H280ZM278 161.5H280.5V162.5H278V161.5ZM278.5 162V206H277.5V162H278.5ZM268 161.5H270.5V162.5H268V161.5ZM270.5 161.5H278V162.5H270.5V161.5ZM271 162V206H270V162H271ZM254 205.5H270.5V206.5H254V205.5ZM270.5 205.5H278V206.5H270.5V205.5ZM278 205.5C280.625 205.5 282.64 206.423 283.995 207.913C285.343 209.396 286 211.399 286 213.5H285C285 211.601 284.407 209.853 283.255 208.586C282.11 207.327 280.375 206.5 278 206.5V205.5ZM286 213.5V266H285V213.5H286ZM285.5 266.5H278V265.5H285.5V266.5ZM277.5 266V261H278.5V266H277.5ZM277.581 261.273L247.581 215.273L248.419 214.727L278.419 260.727L277.581 261.273ZM247.5 215V208.5H248.5V215H247.5ZM280.5 156H268V155H280.5V156ZM258.146 146.354L248.146 136.354L248.854 135.646L258.854 145.646L258.146 146.354Z" fill="#00A3C7"/>
<circle cx="283" cy="143" r="3.5" stroke="#00A3C7"/>
<circle cx="309" cy="143" r="3.5" stroke="#00A3C7"/>
<circle cx="313.5" cy="214.5" r="2" stroke="#00A3C7"/>
<circle cx="255.5" cy="214.5" r="2" stroke="#00A3C7"/>
<circle cx="334.5" cy="214.5" r="2" stroke="#00A3C7"/>
<circle cx="276.5" cy="214.5" r="2" stroke="#00A3C7"/>
<path d="M310 249.502V233C310 231.895 310.895 231 312 231H323.221C324.827 231 325.778 232.797 324.875 234.125L313.654 250.627C312.546 252.255 310 251.471 310 249.502Z" stroke="#00A3C7"/>
<path d="M281 249.502V233C281 231.895 280.105 231 279 231H267.779C266.173 231 265.222 232.797 266.125 234.125L277.346 250.627C278.454 252.255 281 251.471 281 249.502Z" stroke="#00A3C7"/>
<circle cx="359" cy="358" r="49.5" fill="#1B1B1B" stroke="#00A3C7"/>
<circle cx="359" cy="358" r="33.5" fill="#1B1B1B" stroke="#00A3C7"/>
<circle cx="353" cy="317" r="4.5" fill="#1B1B1B" stroke="#00A3C7"/>
<circle cx="399" cy="370" r="4.5" fill="#1B1B1B" stroke="#00A3C7"/>
<circle cx="324" cy="380" r="4.5" fill="#1B1B1B" stroke="#00A3C7"/>
<circle cx="568.999" cy="197.001" r="41.5" transform="rotate(-53.722 568.999 197.001)" fill="#1B1B1B" stroke="#00A3C7"/>
<circle cx="568.997" cy="197.004" r="28.06" transform="rotate(-53.722 568.997 197.004)" stroke="#00A3C7"/>
<circle cx="535.871" cy="188.873" r="3.7" transform="rotate(-53.722 535.871 188.873)" stroke="#00A3C7"/>
<circle cx="596.871" cy="177.873" r="3.7" transform="rotate(-53.722 596.871 177.873)" stroke="#00A3C7"/>
<circle cx="576.871" cy="230.873" r="3.7" transform="rotate(-53.722 576.871 230.873)" stroke="#00A3C7"/>
<path d="M411 107.5H420.5L453 65V57L426 37.5L386.5 88.5L411 107.5Z" fill="#1B1B1B" stroke="#00A3C7"/>
<path d="M449.5 54.5L411 107" stroke="#00A3C7"/>
<path d="M443.5 50L405 102.5" stroke="#00A3C7"/>
<circle cx="399.839" cy="58.8389" r="35.3389" fill="#1B1B1B" stroke="#00A3C7"/>
<circle cx="399.839" cy="58.8412" r="23.8705" stroke="#00A3C7"/>
<circle cx="388.705" cy="31.9452" r="3.08389" stroke="#00A3C7"/>
<circle cx="427.072" cy="68.3534" r="3.08389" stroke="#00A3C7"/>
<circle cx="377.615" cy="76.7597" r="3.08389" stroke="#00A3C7"/>
<path d="M491.92 205.799L407.075 274.333L453.416 332.061L538.26 263.527L541.103 257.531L499.179 205.809L491.92 205.799Z" fill="#1B1B1B" stroke="#00A3C7"/>
</svg>
