<svg width="836" height="691" viewBox="0 0 836 691" fill="none" xmlns="http://www.w3.org/2000/svg">
<circle cx="115.864" cy="115.864" r="115.364" transform="matrix(1 0 0 -1 177.352 628.582)" stroke="#00D1FF"/>
<circle cx="29.4905" cy="29.4905" r="28.9905" transform="matrix(1 0 0 -1 659.676 377.176)" stroke="#00D1FF" stroke-dasharray="4 4"/>
<circle cx="49.7125" cy="49.7125" r="49.2125" transform="matrix(1 0 0 -1 639.461 397.4)" stroke="#00D1FF"/>
<circle cx="87.181" cy="87.181" r="86.681" transform="matrix(1 0 0 -1 206.035 599.9)" stroke="#00D1FF" stroke-dasharray="4 4"/>
<circle cx="21.0646" cy="21.0646" r="20.5646" transform="matrix(1 0 0 -1 668.102 368.75)" stroke="#00D1FF"/>
<circle cx="24.5315" cy="24.5315" r="24.0315" transform="matrix(1 0 0 -1 268.684 537.25)" stroke="#00D1FF"/>
<circle cx="10.9536" cy="10.9536" r="10.4536" transform="matrix(1 0 0 -1 678.215 358.641)" stroke="#00D1FF"/>
<path d="M702.644 372.964L337.371 587.445" stroke="#00D1FF" stroke-linecap="round" stroke-dasharray="4 4"/>
<path d="M706.88 393.183L353.23 611.596" stroke="#00D1FF" stroke-linecap="round"/>
<path d="M668.938 303.029L264.906 400.629" stroke="#00D1FF" stroke-linecap="round"/>
<path d="M677.365 321.566L268.684 429.312" stroke="#00D1FF" stroke-linecap="round" stroke-dasharray="4 4"/>
<circle cx="4.21292" cy="4.21292" r="4.21292" transform="matrix(1 0 0 -1 657.988 377.176)" stroke="#00D1FF" stroke-linecap="round"/>
<circle cx="4.21292" cy="4.21292" r="4.21292" transform="matrix(1 0 0 -1 657.996 326.621)" stroke="#00D1FF" stroke-linecap="round"/>
<circle cx="4.21292" cy="4.21292" r="4.21292" transform="matrix(1 0 0 -1 711.914 377.176)" stroke="#00D1FF" stroke-linecap="round"/>
<circle cx="4.21292" cy="4.21292" r="4.21292" transform="matrix(1 0 0 -1 711.914 326.621)" stroke="#00D1FF" stroke-linecap="round"/>
<circle cx="292.842" cy="513.172" r="119.299" fill="#1B1B1B" stroke="#00A3C7"/>
<circle cx="292.841" cy="513.171" r="93.7864" fill="#1B1B1B" stroke="#00A3C7"/>
<circle cx="292.84" cy="513.172" r="32.7776" fill="#1B1B1B" stroke="#00A3C7"/>
<circle cx="293.398" cy="456.044" r="7.81939" fill="#1B1B1B" stroke="#00A3C7"/>
<circle cx="293.398" cy="570.298" r="7.81939" fill="#1B1B1B" stroke="#00A3C7"/>
<circle cx="350.524" cy="513.171" r="7.81939" transform="rotate(90 350.524 513.171)" fill="#1B1B1B" stroke="#00A3C7"/>
<circle cx="236.27" cy="513.171" r="7.81939" transform="rotate(90 236.27 513.171)" fill="#1B1B1B" stroke="#00A3C7"/>
<rect x="285.578" y="477.066" width="15.6388" height="8.98327" fill="#1B1B1B" stroke="#00A3C7"/>
<rect x="275.094" y="396.699" width="36.6053" height="14.4203" fill="#1B1B1B" stroke="#00A3C7"/>
<rect x="273.984" y="364.531" width="38.8238" height="5.54626" fill="#1B1B1B" stroke="#00A3C7"/>
<rect x="283.969" y="346.783" width="8.87402" height="17.748" fill="#1B1B1B" stroke="#00A3C7"/>
<rect x="292.84" y="346.783" width="8.87402" height="17.748" fill="#1B1B1B" stroke="#00A3C7"/>
<path d="M273.984 364.532L278.976 357.877M278.976 357.877L283.968 364.532M278.976 357.877V364.532" stroke="#00A3C7"/>
<path d="M302.824 364.532L307.816 357.877M307.816 357.877L312.807 364.532M307.816 357.877V364.532" stroke="#00A3C7"/>
<rect x="270.656" y="370.078" width="45.4793" height="22.185" fill="#1B1B1B" stroke="#00A3C7"/>
<rect width="6.65551" height="107.597" transform="matrix(-1 0 0 1 322.793 281.338)" fill="#1B1B1B" stroke="#00A3C7"/>
<rect width="6.65551" height="107.597" transform="matrix(-1 0 0 1 270.656 281.338)" fill="#1B1B1B" stroke="#00A3C7"/>
<rect x="281.75" y="411.121" width="23.2943" height="3.32776" fill="#1B1B1B" stroke="#00A3C7"/>
<rect x="286.188" y="414.447" width="14.4203" height="5.54626" fill="#1B1B1B" stroke="#00A3C7"/>
<rect x="281.75" y="392.264" width="23.2943" height="4.43701" fill="#1B1B1B" stroke="#00A3C7"/>
<path d="M322.793 375.624H328.894L354.961 281.893" stroke="#00A3C7"/>
<path d="M264 375.624H257.899L231.832 281.893" stroke="#00A3C7"/>
<rect x="156.402" y="263.59" width="52.1349" height="31.0591" fill="#1B1B1B" stroke="#00A3C7"/>
<rect x="156.402" y="271.354" width="17.748" height="61.0089" transform="rotate(180 156.402 271.354)" fill="#1B1B1B" stroke="#00A3C7"/>
<path d="M193.008 140.463H147.528V210.346H156.402V194.816H193.008V140.463Z" fill="#1B1B1B" stroke="#00A3C7"/>
<rect x="163.059" y="263.59" width="31.0591" height="42.1516" transform="rotate(180 163.059 263.59)" fill="#1B1B1B" stroke="#00A3C7"/>
<rect x="163.059" y="259.152" width="6.65551" height="33.2776" transform="rotate(180 163.059 259.152)" fill="#1B1B1B" stroke="#00A3C7"/>
<rect x="380.473" y="271.354" width="52.1349" height="23.2943" fill="#1B1B1B" stroke="#00A3C7"/>
<rect width="57.6811" height="57.6811" transform="matrix(1 0 0 -1 374.926 271.354)" fill="#1B1B1B" stroke="#00A3C7"/>
<rect x="374.926" y="263.59" width="211.867" height="42.1516" transform="rotate(180 374.926 263.59)" fill="#1B1B1B" stroke="#00A3C7"/>
<rect x="205.211" y="170.412" width="12.2018" height="29.9498" transform="rotate(180 205.211 170.412)" fill="#1B1B1B" stroke="#00A3C7"/>
<rect x="313.918" y="201.471" width="37.7146" height="64.3366" transform="rotate(180 313.918 201.471)" fill="#1B1B1B" stroke="#00A3C7"/>
<rect width="28.8406" height="8.87402" transform="matrix(-1 0 0 1 309.48 128.262)" fill="#1B1B1B" stroke="#00A3C7"/>
<rect width="13.311" height="8.87402" transform="matrix(-1 0 0 1 301.715 128.262)" fill="#1B1B1B" stroke="#00A3C7"/>
<rect x="309.48" y="128.262" width="28.8406" height="2.2185" transform="rotate(180 309.48 128.262)" fill="#1B1B1B" stroke="#00A3C7"/>
<rect x="397.109" y="171.521" width="14.4203" height="31.0591" transform="rotate(180 397.109 171.521)" fill="#1B1B1B" stroke="#00A3C7"/>
<path d="M432.607 198.145H397.111V140.463H443.699V167.64L432.607 198.145Z" fill="#1B1B1B" stroke="#00A3C7"/>
<path d="M432.607 198.145V217.002H437.044L443.699 209.792V167.64L432.607 198.145Z" fill="#1B1B1B" stroke="#00A3C7"/>
<path d="M313.918 201.472H369.381V207.573H374.927V213.674H378.809V195.926H382.692V140.463H313.918V201.472Z" fill="#1B1B1B" stroke="#00A3C7"/>
<path d="M205.211 194.815H209.093V201.471H276.203V140.462H205.211V194.815Z" fill="#1B1B1B" stroke="#00A3C7"/>
<rect width="77.6477" height="5.54626" transform="matrix(-1 0 0 1 332.773 263.59)" fill="#1B1B1B" stroke="#00A3C7"/>
<path d="M220.188 276.9V281.337H366.609V276.9" stroke="#00A3C7"/>
<rect x="332.773" y="263.59" width="32.1683" height="7.76477" fill="#1B1B1B" stroke="#00A3C7"/>
<rect x="222.957" y="263.59" width="32.1683" height="7.76477" fill="#1B1B1B" stroke="#00A3C7"/>
<rect x="224.066" y="213.674" width="29.9498" height="7.76477" fill="#1B1B1B" stroke="#00A3C7"/>
<rect width="9.98327" height="14.4203" transform="matrix(-1 0 0 1 224.066 207.018)" fill="#1B1B1B" stroke="#00A3C7"/>
<path d="M214.085 201.471H208.539V221.437H214.085" stroke="#00A3C7"/>
<rect x="220.738" y="207.018" width="3.32776" height="5.54626" transform="rotate(180 220.738 207.018)" fill="#1B1B1B" stroke="#00A3C7"/>
<rect x="333.883" y="213.674" width="29.9498" height="7.76477" fill="#1B1B1B" stroke="#00A3C7"/>
<rect width="11.0925" height="13.311" transform="matrix(-1 0 0 1 374.926 208.127)" fill="#1B1B1B" stroke="#00A3C7"/>
<rect width="79.8662" height="5.54626" transform="matrix(-1 0 0 1 333.883 215.893)" fill="#1B1B1B" stroke="#00A3C7"/>
<rect x="374.926" y="276.9" width="9.98327" height="13.311" transform="rotate(180 374.926 276.9)" fill="#1B1B1B" stroke="#00A3C7"/>
<rect x="222.957" y="276.9" width="8.87402" height="13.311" transform="rotate(180 222.957 276.9)" fill="#1B1B1B" stroke="#00A3C7"/>
<rect width="5.54626" height="17.748" transform="matrix(1 0 0 -1 208.539 281.338)" fill="#1B1B1B" stroke="#00A3C7"/>
<circle cx="183.026" cy="279.118" r="7.76477" fill="#1B1B1B" stroke="#00A3C7"/>
<circle cx="407.093" cy="283.556" r="7.76477" fill="#1B1B1B" stroke="#00A3C7"/>
<circle cx="295.061" cy="106.076" r="16.6388" fill="#1B1B1B" stroke="#00A3C7"/>
<path d="M272.32 91.6555L278.976 85H310.59L317.245 91.6555V119.387L310.59 126.042H278.976L272.32 119.387V91.6555Z" fill="#1B1B1B" stroke="#00A3C7"/>
</svg>
