<svg width="836" height="691" viewBox="0 0 836 691" fill="none" xmlns="http://www.w3.org/2000/svg">
<path d="M165.824 269.91H673.989" stroke="#00A3C7"/>
<path d="M150 306L691 306" stroke="#00A3C7"/>
<rect x="154.773" y="265" width="11.0471" height="14.7294" fill="#1B1B1B" stroke="#00A3C7"/>
<rect x="673.992" y="265" width="11.0471" height="14.7294" fill="#1B1B1B" stroke="#00A3C7"/>
<rect x="737.816" y="265" width="11.0471" height="14.7294" fill="#1B1B1B" stroke="#00A3C7"/>
<rect width="11.0471" height="14.7294" transform="matrix(-1 0 0 1 103.227 265)" fill="#1B1B1B" stroke="#00A3C7"/>
<path d="M684 280L772 597" stroke="#00A3C7"/>
<path d="M157 280L69.5 598" stroke="#00A3C7"/>
<path d="M745 280L813 597" stroke="#00A3C7"/>
<path d="M96 280L29 598" stroke="#00A3C7"/>
<path d="M685.031 269.91L737.812 269.91" stroke="#00A3C7"/>
<path d="M154.773 269.91L103.22 269.91" stroke="#00A3C7"/>
<circle cx="229.036" cy="279.115" r="1.84118" stroke="#00A3C7"/>
<circle cx="229.036" cy="287.706" r="1.84118" stroke="#00A3C7"/>
<circle cx="229.036" cy="296.298" r="1.84118" stroke="#00A3C7"/>
<circle cx="237.626" cy="279.115" r="1.84118" stroke="#00A3C7"/>
<circle cx="237.626" cy="287.706" r="1.84118" stroke="#00A3C7"/>
<circle cx="237.626" cy="296.298" r="1.84118" stroke="#00A3C7"/>
<circle cx="246.22" cy="279.115" r="1.84118" stroke="#00A3C7"/>
<circle cx="246.22" cy="287.706" r="1.84118" stroke="#00A3C7"/>
<circle cx="246.22" cy="296.298" r="1.84118" stroke="#00A3C7"/>
<circle cx="593.599" cy="279.115" r="1.84118" stroke="#00A3C7"/>
<circle cx="593.599" cy="287.706" r="1.84118" stroke="#00A3C7"/>
<circle cx="593.599" cy="296.298" r="1.84118" stroke="#00A3C7"/>
<circle cx="602.189" cy="279.115" r="1.84118" stroke="#00A3C7"/>
<circle cx="602.189" cy="287.706" r="1.84118" stroke="#00A3C7"/>
<circle cx="602.189" cy="296.298" r="1.84118" stroke="#00A3C7"/>
<circle cx="610.783" cy="279.115" r="1.84118" stroke="#00A3C7"/>
<circle cx="610.783" cy="287.706" r="1.84118" stroke="#00A3C7"/>
<circle cx="610.783" cy="296.298" r="1.84118" stroke="#00A3C7"/>
<path d="M189 306L172.607 598H150.143L138 349.601" stroke="#00A3C7"/>
<path d="M652 305.5L668.393 598H690.857L703 348.5" stroke="#00A3C7"/>
<path d="M192.828 372.402H138.82" stroke="#00A3C7"/>
<path d="M185.463 357.061H138.82" stroke="#00A3C7"/>
<path d="M187 341L140 341" stroke="#00A3C7"/>
<path d="M162.141 373.015L162.141 341.102" stroke="#00A3C7"/>
<path d="M648.207 372.402H702.215" stroke="#00A3C7"/>
<path d="M655.004 357L702.004 357" stroke="#00A3C7"/>
<path d="M654.004 341H701.004" stroke="#00A3C7"/>
<path d="M678.895 373.017L678.895 341.104" stroke="#00A3C7"/>
<path d="M835 598L0 598" stroke="#00A3C7"/>
<path d="M546.353 230.053L539.001 230.501L506.863 274.951L508.972 283.218L514.5 287.001L595.639 266.221L546.353 230.053Z" fill="#1B1B1B" stroke="#00A3C7"/>
<path d="M500.033 298.101L499.5 306L541 357.5L550.49 358.735L583.002 335.001L542.507 265.501L500.033 298.101Z" fill="#1B1B1B" stroke="#00A3C7"/>
<path d="M418 504V393L405.5 380H345L332 393V504" stroke="#00A3C7"/>
<path d="M444 597.5V575L421 518V503.5H330V518L307.5 575V597.5" stroke="#00A3C7"/>
<path d="M416.661 547.78C417.558 552.368 418.04 556.573 418.097 559.66C418.125 561.207 418.047 562.448 417.87 563.309C417.782 563.741 417.674 564.047 417.563 564.241C417.45 564.44 417.375 564.453 417.375 564.454C417.374 564.454 417.299 564.469 417.12 564.328C416.944 564.19 416.729 563.947 416.484 563.58C415.997 562.849 415.456 561.729 414.899 560.285C413.789 557.405 412.651 553.328 411.754 548.74C410.857 544.153 410.375 539.947 410.318 536.861C410.289 535.314 410.368 534.072 410.544 533.212C410.633 532.78 410.74 532.474 410.851 532.279C410.964 532.082 411.039 532.067 411.04 532.067L411.04 532.067L411.04 532.067C411.041 532.067 411.116 532.052 411.295 532.193C411.471 532.331 411.686 532.574 411.931 532.941C412.418 533.671 412.959 534.792 413.515 536.236C414.625 539.116 415.764 543.193 416.661 547.78Z" stroke="#00A3C7"/>
<path d="M332.753 547.78C331.856 552.368 331.374 556.573 331.317 559.66C331.289 561.207 331.367 562.448 331.544 563.309C331.632 563.741 331.74 564.047 331.851 564.241C331.964 564.44 332.039 564.453 332.039 564.454C332.04 564.454 332.115 564.469 332.294 564.328C332.47 564.19 332.685 563.947 332.93 563.58C333.417 562.849 333.958 561.729 334.515 560.285C335.625 557.405 336.763 553.328 337.66 548.74C338.557 544.153 339.039 539.947 339.096 536.861C339.125 535.314 339.046 534.072 338.87 533.212C338.781 532.78 338.674 532.474 338.563 532.279C338.45 532.082 338.375 532.067 338.374 532.067L338.374 532.067L338.374 532.067C338.373 532.067 338.298 532.052 338.119 532.193C337.943 532.331 337.728 532.574 337.483 532.941C336.996 533.671 336.455 534.792 335.899 536.236C334.789 539.116 333.65 543.193 332.753 547.78Z" stroke="#00A3C7"/>
<path d="M322.688 429.973L388.972 376.763L407.5 374.501L453.5 432.001L447.142 449.225L380.857 502.435L322.688 429.973Z" fill="#1B1B1B" stroke="#00A3C7"/>
<path d="M446.955 449.894L389.062 376.809" stroke="#00A3C7"/>
<path d="M553.998 356.033L504 295" stroke="#00A3C7"/>
<path d="M512.242 285.108L550.297 232.922" stroke="#00A3C7"/>
<path d="M453 164.5L539 230.5L507 275L420.5 207.5L453 164.5Z" fill="#1B1B1B" stroke="#00A3C7"/>
<path d="M437.955 457.378L380.062 384.293" stroke="#00A3C7"/>
<rect x="346" y="124" width="70" height="67" stroke="#00A3C7"/>
<rect width="16" height="67" transform="matrix(-1 0 0 1 346 124)" stroke="#00A3C7"/>
<rect x="262" y="116" width="68" height="100" stroke="#00A3C7"/>
<path d="M330 169H262" stroke="#00A3C7"/>
<path d="M262 116H330V116C330 107.716 323.284 101 315 101H277C268.716 101 262 107.716 262 116V116Z" stroke="#00A3C7"/>
<path d="M438 146C438 133.85 428.15 124 416 124V124V191V191C428.15 191 438 181.15 438 169V146Z" stroke="#00A3C7"/>
<path d="M248.608 235.901L258.309 216.5H332.691L342.392 235.901L322.793 255.5H268.207L248.608 235.901Z" stroke="#00A3C7"/>
<path d="M342.5 236V309V315.5L312.5 361.5V366.5H305V314C305 310 308.5 306.5 312.5 306.5V262.5H310V255.5H322.5V262.5H320V306.5H336.5L332 246.5L342.5 236Z" fill="#1B1B1B"/>
<path d="M342.5 236H343L342.146 235.646L342.5 236ZM332 246.5L331.646 246.146L331.484 246.309L331.501 246.537L332 246.5ZM322.5 255.5H323V255H322.5V255.5ZM322.5 262.5V263H323V262.5H322.5ZM310 262.5H309.5V263H310V262.5ZM310 255.5V255H309.5V255.5H310ZM305 366.5H304.5V367H305V366.5ZM312.5 366.5V367H313V366.5H312.5ZM312.5 361.5L312.081 361.227L312 361.351V361.5H312.5ZM342.5 315.5L342.919 315.773L343 315.649V315.5H342.5ZM342 236V309H343V236H342ZM342.692 308.538L336.692 306.038L336.308 306.962L342.308 309.462L342.692 308.538ZM336.999 306.463L332.499 246.463L331.501 246.537L336.001 306.537L336.999 306.463ZM322 255.5V262.5H323V255.5H322ZM310.5 262.5V255.5H309.5V262.5H310.5ZM312.5 262H310V263H312.5V262ZM312 262.5V306.5H313V262.5H312ZM322.5 262H320V263H322.5V262ZM320 262H312.5V263H320V262ZM319.5 262.5V306.5H320.5V262.5H319.5ZM336.5 306H320V307H336.5V306ZM320 306H312.5V307H320V306ZM312.5 306C308.224 306 304.5 309.724 304.5 314H305.5C305.5 310.276 308.776 307 312.5 307V306ZM304.5 314V366.5H305.5V314H304.5ZM305 367H312.5V366H305V367ZM313 366.5V361.5H312V366.5H313ZM312.919 361.773L342.919 315.773L342.081 315.227L312.081 361.227L312.919 361.773ZM343 315.5V309H342V315.5H343ZM310 256H322.5V255H310V256ZM342.146 235.646L331.646 246.146L332.354 246.854L342.854 236.354L342.146 235.646Z" fill="#00A3C7"/>
<path d="M248.5 236L248 308.5V315L278 361V366H285.5V313.5C285.5 309.5 283 306 278 306V262H280.5V255.5H268V262H270.5V306H254L258.5 246L248.5 236Z" fill="#1B1B1B"/>
<path d="M248.5 236L248 235.997L248.854 235.646L248.5 236ZM248 308.5H247.5L247.5 308.496L248 308.5ZM258.5 246L258.854 245.646L259.016 245.809L258.999 246.037L258.5 246ZM268 255.5H267.5V255H268V255.5ZM268 262V262.5H267.5V262H268ZM280.5 262H281V262.5H280.5V262ZM280.5 255.5V255H281V255.5H280.5ZM285.5 366H286V366.5H285.5V366ZM278 366V366.5H277.5V366H278ZM278 361L278.419 360.727L278.5 360.851V361H278ZM248 315L247.581 315.273L247.5 315.148V315H248ZM249 236.003L248.5 308.503L247.5 308.496L248 235.997L249 236.003ZM247.808 308.038L253.808 305.538L254.192 306.461L248.192 308.961L247.808 308.038ZM253.501 305.962L258.001 245.963L258.999 246.037L254.499 306.037L253.501 305.962ZM268.5 255.5V262H267.5V255.5H268.5ZM280 262V255.5H281V262H280ZM278 261.5H280.5V262.5H278V261.5ZM278.5 262V306H277.5V262H278.5ZM268 261.5H270.5V262.5H268V261.5ZM270.5 261.5H278V262.5H270.5V261.5ZM271 262V306H270V262H271ZM254 305.5H270.5V306.5H254V305.5ZM270.5 305.5H278V306.5H270.5V305.5ZM278 305.5C280.625 305.5 282.64 306.423 283.995 307.913C285.343 309.396 286 311.399 286 313.5H285C285 311.601 284.407 309.853 283.255 308.586C282.11 307.327 280.375 306.5 278 306.5V305.5ZM286 313.5V366H285V313.5H286ZM285.5 366.5H278V365.5H285.5V366.5ZM277.5 366V361H278.5V366H277.5ZM277.581 361.273L247.581 315.273L248.419 314.727L278.419 360.727L277.581 361.273ZM247.5 315V308.5H248.5V315H247.5ZM280.5 256H268V255H280.5V256ZM258.146 246.354L248.146 236.354L248.854 235.646L258.854 245.646L258.146 246.354Z" fill="#00A3C7"/>
<circle cx="283" cy="243" r="3.5" stroke="#00A3C7"/>
<circle cx="309" cy="243" r="3.5" stroke="#00A3C7"/>
<circle cx="313.5" cy="314.5" r="2" stroke="#00A3C7"/>
<circle cx="255.5" cy="314.5" r="2" stroke="#00A3C7"/>
<circle cx="334.5" cy="314.5" r="2" stroke="#00A3C7"/>
<circle cx="276.5" cy="314.5" r="2" stroke="#00A3C7"/>
<path d="M310 349.502V333C310 331.895 310.895 331 312 331H323.221C324.827 331 325.778 332.797 324.875 334.125L313.654 350.627C312.546 352.255 310 351.471 310 349.502Z" stroke="#00A3C7"/>
<path d="M281 349.502V333C281 331.895 280.105 331 279 331H267.779C266.173 331 265.222 332.797 266.125 334.125L277.346 350.627C278.454 352.255 281 351.471 281 349.502Z" stroke="#00A3C7"/>
<circle cx="359" cy="458" r="49.5" fill="#1B1B1B" stroke="#00A3C7"/>
<circle cx="359" cy="458" r="33.5" fill="#1B1B1B" stroke="#00A3C7"/>
<circle cx="353" cy="417" r="4.5" fill="#1B1B1B" stroke="#00A3C7"/>
<circle cx="399" cy="470" r="4.5" fill="#1B1B1B" stroke="#00A3C7"/>
<circle cx="324" cy="480" r="4.5" fill="#1B1B1B" stroke="#00A3C7"/>
<circle cx="568.999" cy="297.001" r="41.5" transform="rotate(-53.722 568.999 297.001)" fill="#1B1B1B" stroke="#00A3C7"/>
<circle cx="568.997" cy="297.004" r="28.06" transform="rotate(-53.722 568.997 297.004)" stroke="#00A3C7"/>
<circle cx="535.871" cy="288.873" r="3.7" transform="rotate(-53.722 535.871 288.873)" stroke="#00A3C7"/>
<circle cx="596.871" cy="277.873" r="3.7" transform="rotate(-53.722 596.871 277.873)" stroke="#00A3C7"/>
<circle cx="576.871" cy="330.873" r="3.7" transform="rotate(-53.722 576.871 330.873)" stroke="#00A3C7"/>
<path d="M411 207.5H420.5L453 165V157L426 137.5L386.5 188.5L411 207.5Z" fill="#1B1B1B" stroke="#00A3C7"/>
<path d="M449.5 154.5L411 207" stroke="#00A3C7"/>
<path d="M443.5 150L405 202.5" stroke="#00A3C7"/>
<circle cx="399.839" cy="158.839" r="35.3389" fill="#1B1B1B" stroke="#00A3C7"/>
<circle cx="399.839" cy="158.841" r="23.8705" stroke="#00A3C7"/>
<circle cx="388.705" cy="131.945" r="3.08389" stroke="#00A3C7"/>
<circle cx="427.072" cy="168.353" r="3.08389" stroke="#00A3C7"/>
<circle cx="377.615" cy="176.76" r="3.08389" stroke="#00A3C7"/>
<path d="M491.92 305.799L407.075 374.333L453.416 432.061L538.26 363.527L541.103 357.531L499.179 305.809L491.92 305.799Z" fill="#1B1B1B" stroke="#00A3C7"/>
</svg>
