<svg width="608" height="549" viewBox="0 0 608 549" fill="none" xmlns="http://www.w3.org/2000/svg">
<circle cx="115.864" cy="115.864" r="115.364" transform="matrix(1 0 0 -1 46.3516 544.582)" stroke="#00D1FF"/>
<circle cx="29.4905" cy="29.4905" r="28.9905" transform="matrix(1 0 0 -1 528.676 293.176)" stroke="#00D1FF" stroke-dasharray="4 4"/>
<circle cx="49.7125" cy="49.7125" r="49.2125" transform="matrix(1 0 0 -1 508.461 313.4)" stroke="#00D1FF"/>
<circle cx="87.181" cy="87.181" r="86.681" transform="matrix(1 0 0 -1 75.0352 515.9)" stroke="#00D1FF" stroke-dasharray="4 4"/>
<circle cx="21.0646" cy="21.0646" r="20.5646" transform="matrix(1 0 0 -1 537.102 284.75)" stroke="#00D1FF"/>
<circle cx="24.5315" cy="24.5315" r="24.0315" transform="matrix(1 0 0 -1 137.684 453.25)" stroke="#00D1FF"/>
<circle cx="10.9536" cy="10.9536" r="10.4536" transform="matrix(1 0 0 -1 547.215 274.641)" stroke="#00D1FF"/>
<path d="M571.644 288.964L206.371 503.445" stroke="#00D1FF" stroke-linecap="round" stroke-dasharray="4 4"/>
<path d="M575.88 309.183L222.23 527.596" stroke="#00D1FF" stroke-linecap="round"/>
<path d="M537.938 219.029L133.906 316.629" stroke="#00D1FF" stroke-linecap="round"/>
<path d="M546.365 237.566L137.684 345.312" stroke="#00D1FF" stroke-linecap="round" stroke-dasharray="4 4"/>
<circle cx="4.21292" cy="4.21292" r="4.21292" transform="matrix(1 0 0 -1 526.988 293.176)" stroke="#00D1FF" stroke-linecap="round"/>
<circle cx="4.21292" cy="4.21292" r="4.21292" transform="matrix(1 0 0 -1 526.996 242.621)" stroke="#00D1FF" stroke-linecap="round"/>
<circle cx="4.21292" cy="4.21292" r="4.21292" transform="matrix(1 0 0 -1 580.914 293.176)" stroke="#00D1FF" stroke-linecap="round"/>
<circle cx="4.21292" cy="4.21292" r="4.21292" transform="matrix(1 0 0 -1 580.914 242.621)" stroke="#00D1FF" stroke-linecap="round"/>
<circle cx="161.842" cy="429.172" r="119.299" fill="#1B1B1B" stroke="#00A3C7"/>
<circle cx="161.841" cy="429.171" r="93.7864" fill="#1B1B1B" stroke="#00A3C7"/>
<circle cx="161.84" cy="429.172" r="32.7776" fill="#1B1B1B" stroke="#00A3C7"/>
<circle cx="162.398" cy="372.044" r="7.81939" fill="#1B1B1B" stroke="#00A3C7"/>
<circle cx="162.398" cy="486.298" r="7.81939" fill="#1B1B1B" stroke="#00A3C7"/>
<circle cx="219.524" cy="429.171" r="7.81939" transform="rotate(90 219.524 429.171)" fill="#1B1B1B" stroke="#00A3C7"/>
<circle cx="105.27" cy="429.171" r="7.81939" transform="rotate(90 105.27 429.171)" fill="#1B1B1B" stroke="#00A3C7"/>
<rect x="154.578" y="393.066" width="15.6388" height="8.98327" fill="#1B1B1B" stroke="#00A3C7"/>
<rect x="144.094" y="312.699" width="36.6053" height="14.4203" fill="#1B1B1B" stroke="#00A3C7"/>
<rect x="142.984" y="280.531" width="38.8238" height="5.54626" fill="#1B1B1B" stroke="#00A3C7"/>
<rect x="152.969" y="262.783" width="8.87402" height="17.748" fill="#1B1B1B" stroke="#00A3C7"/>
<rect x="161.84" y="262.783" width="8.87402" height="17.748" fill="#1B1B1B" stroke="#00A3C7"/>
<path d="M142.984 280.532L147.976 273.877M147.976 273.877L152.968 280.532M147.976 273.877V280.532" stroke="#00A3C7"/>
<path d="M171.824 280.532L176.816 273.877M176.816 273.877L181.807 280.532M176.816 273.877V280.532" stroke="#00A3C7"/>
<rect x="139.656" y="286.078" width="45.4793" height="22.185" fill="#1B1B1B" stroke="#00A3C7"/>
<rect width="6.65551" height="107.597" transform="matrix(-1 0 0 1 191.793 197.338)" fill="#1B1B1B" stroke="#00A3C7"/>
<rect width="6.65551" height="107.597" transform="matrix(-1 0 0 1 139.656 197.338)" fill="#1B1B1B" stroke="#00A3C7"/>
<rect x="150.75" y="327.121" width="23.2943" height="3.32776" fill="#1B1B1B" stroke="#00A3C7"/>
<rect x="155.188" y="330.447" width="14.4203" height="5.54626" fill="#1B1B1B" stroke="#00A3C7"/>
<rect x="150.75" y="308.264" width="23.2943" height="4.43701" fill="#1B1B1B" stroke="#00A3C7"/>
<path d="M191.793 291.624H197.894L223.961 197.893" stroke="#00A3C7"/>
<path d="M133 291.624H126.899L100.832 197.893" stroke="#00A3C7"/>
<rect x="25.4023" y="179.59" width="52.1349" height="31.0591" fill="#1B1B1B" stroke="#00A3C7"/>
<rect x="25.4023" y="187.354" width="17.748" height="61.0089" transform="rotate(180 25.4023 187.354)" fill="#1B1B1B" stroke="#00A3C7"/>
<path d="M62.0078 56.4629H16.5285V126.346H25.4025V110.816H62.0078V56.4629Z" fill="#1B1B1B" stroke="#00A3C7"/>
<rect x="32.0586" y="179.59" width="31.0591" height="42.1516" transform="rotate(180 32.0586 179.59)" fill="#1B1B1B" stroke="#00A3C7"/>
<rect x="32.0586" y="175.152" width="6.65551" height="33.2776" transform="rotate(180 32.0586 175.152)" fill="#1B1B1B" stroke="#00A3C7"/>
<rect x="249.473" y="187.354" width="52.1349" height="23.2943" fill="#1B1B1B" stroke="#00A3C7"/>
<rect width="57.6811" height="57.6811" transform="matrix(1 0 0 -1 243.926 187.354)" fill="#1B1B1B" stroke="#00A3C7"/>
<rect x="243.926" y="179.59" width="211.867" height="42.1516" transform="rotate(180 243.926 179.59)" fill="#1B1B1B" stroke="#00A3C7"/>
<rect x="74.2109" y="86.4121" width="12.2018" height="29.9498" transform="rotate(180 74.2109 86.4121)" fill="#1B1B1B" stroke="#00A3C7"/>
<rect x="182.918" y="117.471" width="37.7146" height="64.3366" transform="rotate(180 182.918 117.471)" fill="#1B1B1B" stroke="#00A3C7"/>
<rect width="28.8406" height="8.87402" transform="matrix(-1 0 0 1 178.48 44.2617)" fill="#1B1B1B" stroke="#00A3C7"/>
<rect width="13.311" height="8.87402" transform="matrix(-1 0 0 1 170.715 44.2617)" fill="#1B1B1B" stroke="#00A3C7"/>
<rect x="178.48" y="44.2617" width="28.8406" height="2.2185" transform="rotate(180 178.48 44.2617)" fill="#1B1B1B" stroke="#00A3C7"/>
<rect x="266.109" y="87.5215" width="14.4203" height="31.0591" transform="rotate(180 266.109 87.5215)" fill="#1B1B1B" stroke="#00A3C7"/>
<path d="M301.607 114.145H266.111V56.4634H312.699V83.6401L301.607 114.145Z" fill="#1B1B1B" stroke="#00A3C7"/>
<path d="M301.607 114.145V133.002H306.044L312.699 125.792V83.6402L301.607 114.145Z" fill="#1B1B1B" stroke="#00A3C7"/>
<path d="M182.918 117.472H238.381V123.573H243.927V129.674H247.809V111.926H251.692V56.4632H182.918V117.472Z" fill="#1B1B1B" stroke="#00A3C7"/>
<path d="M74.2109 110.815H78.0933V117.471H145.203V56.4618H74.2109V110.815Z" fill="#1B1B1B" stroke="#00A3C7"/>
<rect width="77.6477" height="5.54626" transform="matrix(-1 0 0 1 201.773 179.59)" fill="#1B1B1B" stroke="#00A3C7"/>
<path d="M89.1875 192.9V197.337H235.609V192.9" stroke="#00A3C7"/>
<rect x="201.773" y="179.59" width="32.1683" height="7.76477" fill="#1B1B1B" stroke="#00A3C7"/>
<rect x="91.957" y="179.59" width="32.1683" height="7.76477" fill="#1B1B1B" stroke="#00A3C7"/>
<rect x="93.0664" y="129.674" width="29.9498" height="7.76477" fill="#1B1B1B" stroke="#00A3C7"/>
<rect width="9.98327" height="14.4203" transform="matrix(-1 0 0 1 93.0664 123.018)" fill="#1B1B1B" stroke="#00A3C7"/>
<path d="M83.0853 117.471H77.5391V137.437H83.0853" stroke="#00A3C7"/>
<rect x="89.7383" y="123.018" width="3.32776" height="5.54626" transform="rotate(180 89.7383 123.018)" fill="#1B1B1B" stroke="#00A3C7"/>
<rect x="202.883" y="129.674" width="29.9498" height="7.76477" fill="#1B1B1B" stroke="#00A3C7"/>
<rect width="11.0925" height="13.311" transform="matrix(-1 0 0 1 243.926 124.127)" fill="#1B1B1B" stroke="#00A3C7"/>
<rect width="79.8662" height="5.54626" transform="matrix(-1 0 0 1 202.883 131.893)" fill="#1B1B1B" stroke="#00A3C7"/>
<rect x="243.926" y="192.9" width="9.98327" height="13.311" transform="rotate(180 243.926 192.9)" fill="#1B1B1B" stroke="#00A3C7"/>
<rect x="91.957" y="192.9" width="8.87402" height="13.311" transform="rotate(180 91.957 192.9)" fill="#1B1B1B" stroke="#00A3C7"/>
<rect width="5.54626" height="17.748" transform="matrix(1 0 0 -1 77.5391 197.338)" fill="#1B1B1B" stroke="#00A3C7"/>
<circle cx="52.0265" cy="195.118" r="7.76477" fill="#1B1B1B" stroke="#00A3C7"/>
<circle cx="276.093" cy="199.556" r="7.76477" fill="#1B1B1B" stroke="#00A3C7"/>
<circle cx="164.061" cy="22.0763" r="16.6388" fill="#1B1B1B" stroke="#00A3C7"/>
<path d="M141.32 7.65551L147.976 1H179.59L186.245 7.65551V35.3868L179.59 42.0423H147.976L141.32 35.3868V7.65551Z" fill="#1B1B1B" stroke="#00A3C7"/>
</svg>
