<svg width="836" height="691" viewBox="0 0 836 691" fill="none" xmlns="http://www.w3.org/2000/svg">
<rect x="171" y="90" width="522" height="522" rx="30" fill="#1B1B1B" stroke="#00D1FF" stroke-linecap="round"/>
<path d="M301.5 335.921L304.62 331.242L322.297 341.121L319.697 345.8L301.5 335.921Z" fill="#00D1FF"/>
<path d="M364.108 256.725L368.477 253.257L380.898 269.25L377.008 272.921L364.108 256.725Z" fill="#00D1FF"/>
<path d="M469.097 195.389L474.438 193.78L480.075 213.23L475.104 215.205L469.097 195.389Z" fill="#00D1FF"/>
<path d="M568.558 177.69L574.136 177.608L574.219 197.858L568.558 197.858L568.558 177.69Z" fill="#00D1FF"/>
<path d="M592.479 438.346L553.229 231.733L556.217 224.856L555.94 223.321L554.405 223.597L549.501 181.69L550.524 181.505L560.034 222.584L557.987 222.953L558.171 223.976L563.974 229.799L602.02 438.346" stroke="#00D1FF" stroke-linecap="round"/>
<rect x="187.637" y="106.637" width="488.725" height="488.725" rx="21" stroke="#00D1FF" stroke-linecap="round"/>
<rect x="194.918" y="113.916" width="474.167" height="474.167" rx="17" stroke="#00D1FF" stroke-linecap="round"/>
<path d="M223.492 153.992C223.492 147.641 228.641 142.492 234.992 142.492V141.492C228.089 141.492 222.492 147.089 222.492 153.992H223.492ZM223.492 548.008V153.992H222.492V548.008H223.492ZM234.992 559.508C228.641 559.508 223.492 554.359 223.492 548.008H222.492C222.492 554.912 228.089 560.508 234.992 560.508V559.508ZM507.348 559.508H234.992V560.508H507.348V559.508ZM519.848 548.008V487.346H518.848V548.008H519.848ZM519.848 487.346C519.848 460.56 541.562 438.846 568.348 438.846V437.846C541.01 437.846 518.848 460.008 518.848 487.346H519.848ZM568.348 438.846H629.008V437.846H568.348V438.846ZM640.508 153.992V426.346H641.508V153.992H640.508ZM629.008 142.492C635.359 142.492 640.508 147.641 640.508 153.992H641.508C641.508 147.089 635.912 141.492 629.008 141.492V142.492ZM234.992 142.492H629.008V141.492H234.992V142.492ZM629.008 438.846C635.912 438.846 641.508 433.249 641.508 426.346H640.508C640.508 432.697 635.359 437.846 629.008 437.846V438.846ZM507.348 560.508C514.251 560.508 519.848 554.912 519.848 548.008H518.848C518.848 554.359 513.699 559.508 507.348 559.508V560.508Z" fill="#00D1FF"/>
<circle cx="309.301" cy="206.464" r="32.2351" stroke="#00D1FF" stroke-linecap="round"/>
<path d="M287.465 183.588L310.341 206.464" stroke="#00D1FF" stroke-linecap="round"/>
<circle cx="613.972" cy="527.773" r="24.9562" stroke="#00D1FF" stroke-linecap="round"/>
<circle cx="613.97" cy="527.773" r="17.6773" stroke="#00D1FF" stroke-linecap="round"/>
<path d="M602.535 515.295L626.451 539.211" stroke="#00D1FF" stroke-linecap="round"/>
<path d="M571.859 155.51C571.859 155.223 571.626 154.99 571.339 154.99C571.052 154.99 570.819 155.223 570.819 155.51V178.387C570.993 178.387 571.166 178.387 571.339 178.387C571.513 178.387 571.686 178.387 571.859 178.387V155.51Z" fill="#00D1FF"/>
<path d="M261.467 488.779C261.467 488.606 261.467 488.432 261.467 488.259C261.467 488.086 261.467 487.913 261.467 487.739H238.59C238.303 487.739 238.07 487.972 238.07 488.259C238.07 488.546 238.303 488.779 238.59 488.779H261.467Z" fill="#00D1FF"/>
<path d="M262.084 468.539C262.106 468.193 262.128 467.847 262.151 467.501L239.335 466.008C239.048 465.989 238.801 466.206 238.782 466.493C238.763 466.779 238.981 467.027 239.267 467.046L262.084 468.539Z" fill="#00D1FF"/>
<path d="M263.977 448.627C264.021 448.283 264.066 447.94 264.111 447.596L241.462 444.637C241.177 444.6 240.916 444.801 240.879 445.085C240.842 445.37 241.043 445.631 241.327 445.668L263.977 448.627Z" fill="#00D1FF"/>
<path d="M267.198 428.633C267.264 428.293 267.331 427.953 267.399 427.613L245.016 423.186C244.734 423.13 244.461 423.314 244.405 423.595C244.349 423.877 244.533 424.151 244.814 424.206L267.198 428.633Z" fill="#00D1FF"/>
<path d="M271.817 408.541C271.906 408.206 271.996 407.871 272.086 407.536L250.065 401.636C249.787 401.561 249.502 401.726 249.428 402.003C249.354 402.281 249.518 402.566 249.796 402.64L271.817 408.541Z" fill="#00D1FF"/>
<path d="M277.656 389.146C277.767 388.818 277.878 388.489 277.99 388.161L256.409 380.838C256.137 380.745 255.841 380.891 255.749 381.163C255.657 381.435 255.802 381.73 256.074 381.822L277.656 389.146Z" fill="#00D1FF"/>
<path d="M284.664 370.408C284.796 370.088 284.929 369.767 285.062 369.447L263.994 360.745C263.729 360.636 263.425 360.762 263.315 361.027C263.206 361.293 263.332 361.597 263.597 361.706L284.664 370.408Z" fill="#00D1FF"/>
<path d="M292.984 351.942C293.136 351.631 293.29 351.32 293.443 351.009L272.979 340.945C272.722 340.818 272.41 340.925 272.283 341.182C272.156 341.44 272.263 341.752 272.52 341.878L292.984 351.942Z" fill="#00D1FF"/>
<path d="M302.678 333.746C302.851 333.445 303.025 333.145 303.199 332.846L283.434 321.434C283.186 321.291 282.868 321.376 282.724 321.625C282.58 321.873 282.666 322.191 282.914 322.335L302.678 333.746Z" fill="#00D1FF"/>
<path d="M313.359 316.539C313.552 316.251 313.744 315.963 313.938 315.675L294.945 302.987C294.706 302.828 294.383 302.892 294.224 303.131C294.064 303.369 294.128 303.692 294.367 303.852L313.359 316.539Z" fill="#00D1FF"/>
<path d="M324.987 300.265C325.198 299.99 325.409 299.714 325.62 299.44L307.472 285.543C307.244 285.368 306.918 285.412 306.743 285.64C306.569 285.868 306.612 286.194 306.84 286.368L324.987 300.265Z" fill="#00D1FF"/>
<path d="M337.8 284.585C338.028 284.323 338.257 284.063 338.486 283.802L321.276 268.743C321.06 268.554 320.731 268.576 320.542 268.792C320.353 269.008 320.375 269.336 320.591 269.525L337.8 284.585Z" fill="#00D1FF"/>
<path d="M351.86 269.513C352.104 269.268 352.349 269.023 352.595 268.778L336.419 252.603C336.216 252.399 335.887 252.399 335.684 252.603C335.481 252.806 335.481 253.135 335.684 253.338L351.86 269.513Z" fill="#00D1FF"/>
<path d="M366.612 255.643C366.873 255.414 367.133 255.185 367.394 254.957L352.312 237.763C352.123 237.547 351.794 237.525 351.579 237.715C351.363 237.904 351.341 238.233 351.531 238.448L366.612 255.643Z" fill="#00D1FF"/>
<path d="M382.038 242.912C382.312 242.7 382.587 242.488 382.862 242.277L368.928 224.155C368.753 223.927 368.426 223.885 368.199 224.06C367.971 224.235 367.928 224.561 368.103 224.789L382.038 242.912Z" fill="#00D1FF"/>
<path d="M398.457 231.058C398.745 230.865 399.032 230.671 399.32 230.479L386.609 211.5C386.45 211.261 386.127 211.197 385.888 211.357C385.65 211.517 385.586 211.84 385.745 212.078L398.457 231.058Z" fill="#00D1FF"/>
<path d="M415.927 220.118C416.227 219.944 416.527 219.77 416.827 219.597L405.415 199.83C405.271 199.582 404.953 199.497 404.705 199.64C404.456 199.784 404.371 200.102 404.514 200.35L415.927 220.118Z" fill="#00D1FF"/>
<path d="M433.764 210.524C434.075 210.37 434.385 210.217 434.696 210.064L424.607 189.61C424.48 189.352 424.168 189.246 423.911 189.373C423.653 189.5 423.548 189.812 423.675 190.069L433.764 210.524Z" fill="#00D1FF"/>
<path d="M451.963 202.217C452.282 202.083 452.602 201.95 452.923 201.818L444.178 180.766C444.068 180.5 443.764 180.375 443.499 180.485C443.234 180.595 443.108 180.899 443.218 181.164L451.963 202.217Z" fill="#00D1FF"/>
<path d="M470.898 195.027C471.226 194.915 471.554 194.803 471.883 194.692L464.533 173.118C464.441 172.846 464.145 172.701 463.873 172.793C463.602 172.886 463.456 173.181 463.549 173.453L470.898 195.027Z" fill="#00D1FF"/>
<path d="M490.619 189.005C490.953 188.915 491.288 188.826 491.623 188.737L485.722 166.713C485.648 166.436 485.363 166.272 485.085 166.346C484.808 166.42 484.644 166.705 484.718 166.983L490.619 189.005Z" fill="#00D1FF"/>
<path d="M510.339 184.389C510.679 184.321 511.019 184.254 511.36 184.187L506.906 161.808C506.85 161.527 506.576 161.344 506.295 161.4C506.013 161.456 505.83 161.73 505.886 162.011L510.339 184.389Z" fill="#00D1FF"/>
<path d="M530.072 181.111C530.415 181.065 530.759 181.02 531.103 180.975L528.099 158.331C528.061 158.046 527.8 157.846 527.515 157.884C527.231 157.922 527.03 158.183 527.068 158.468L530.072 181.111Z" fill="#00D1FF"/>
<path d="M550.222 179.095C550.568 179.072 550.914 179.049 551.26 179.027L549.74 156.212C549.721 155.925 549.473 155.709 549.187 155.728C548.9 155.747 548.683 155.995 548.702 156.281L550.222 179.095Z" fill="#00D1FF"/>
<path d="M289.05 434.455C289.116 434.115 289.995 431.408 290.062 431.068L267.68 426.641L266.666 430.028L289.05 434.455Z" fill="#00D1FF"/>
<path d="M437.199 359.318H444.998L454.357 386.354L463.195 359.318H470.474L456.956 398.312H451.757L437.199 359.318Z" stroke="#00A3C7"/>
<path d="M325.555 379.631V378.791L336.141 366.799C337.286 365.484 338.276 364.104 339.109 362.658C339.943 361.2 340.359 359.618 340.359 357.912C340.359 356.167 339.76 354.683 338.562 353.459C337.378 352.235 335.743 351.623 333.66 351.623C331.564 351.636 329.858 352.261 328.543 353.498C327.228 354.735 326.57 356.538 326.57 358.908V359.26H325.594V358.928C325.594 356.324 326.336 354.305 327.82 352.873C329.305 351.428 331.251 350.705 333.66 350.705C336.043 350.705 337.918 351.402 339.285 352.795C340.665 354.175 341.355 355.874 341.355 357.893C341.355 359.702 340.978 361.317 340.223 362.736C339.467 364.156 338.322 365.738 336.785 367.482L326.902 378.791H342.234V379.631H325.555ZM348.326 370.881V359.924C348.326 356.942 349.003 354.663 350.357 353.088C351.711 351.499 353.638 350.705 356.138 350.705C358.625 350.705 360.546 351.499 361.9 353.088C363.267 354.663 363.951 356.942 363.951 359.924V370.881C363.951 373.915 363.267 376.213 361.9 377.775C360.546 379.338 358.625 380.119 356.138 380.119C353.638 380.119 351.711 379.338 350.357 377.775C349.003 376.213 348.326 373.915 348.326 370.881ZM349.322 370.803C349.322 373.563 349.901 375.653 351.06 377.072C352.232 378.492 353.925 379.201 356.138 379.201C358.339 379.201 360.025 378.485 361.197 377.053C362.369 375.62 362.955 373.537 362.955 370.803V360.021C362.955 357.326 362.369 355.256 361.197 353.811C360.025 352.352 358.339 351.623 356.138 351.623C353.925 351.623 352.232 352.352 351.06 353.811C349.901 355.256 349.322 357.326 349.322 360.021V370.803ZM370.648 370.881V359.924C370.648 356.942 371.325 354.663 372.679 353.088C374.033 351.499 375.96 350.705 378.46 350.705C380.947 350.705 382.868 351.499 384.222 353.088C385.589 354.663 386.273 356.942 386.273 359.924V370.881C386.273 373.915 385.589 376.213 384.222 377.775C382.868 379.338 380.947 380.119 378.46 380.119C375.96 380.119 374.033 379.338 372.679 377.775C371.325 376.213 370.648 373.915 370.648 370.881ZM371.644 370.803C371.644 373.563 372.223 375.653 373.382 377.072C374.554 378.492 376.247 379.201 378.46 379.201C380.661 379.201 382.347 378.485 383.519 377.053C384.691 375.62 385.277 373.537 385.277 370.803V360.021C385.277 357.326 384.691 355.256 383.519 353.811C382.347 352.352 380.661 351.623 378.46 351.623C376.247 351.623 374.554 352.352 373.382 353.811C372.223 355.256 371.644 357.326 371.644 360.021V370.803Z" fill="#00A3C7"/>
<path d="M280.254 493.592V482.635C280.254 479.653 280.931 477.374 282.285 475.799C283.639 474.21 285.566 473.416 288.066 473.416C290.553 473.416 292.474 474.21 293.828 475.799C295.195 477.374 295.879 479.653 295.879 482.635V493.592C295.879 496.626 295.195 498.924 293.828 500.486C292.474 502.049 290.553 502.83 288.066 502.83C285.566 502.83 283.639 502.049 282.285 500.486C280.931 498.924 280.254 496.626 280.254 493.592ZM281.25 493.514C281.25 496.274 281.829 498.364 282.988 499.783C284.16 501.202 285.853 501.912 288.066 501.912C290.267 501.912 291.953 501.196 293.125 499.764C294.297 498.331 294.883 496.248 294.883 493.514V482.732C294.883 480.037 294.297 477.967 293.125 476.521C291.953 475.063 290.267 474.334 288.066 474.334C285.853 474.334 284.16 475.063 282.988 476.521C281.829 477.967 281.25 480.037 281.25 482.732V493.514Z" fill="#00A3C7"/>
<path d="M470.98 255.891V248.371V248.117V228.879H470.863L459.418 247.785H471.117H471.547H476.039V248.703H458.246V247.746L470.883 227.453H471.957V255.891H470.98ZM481.427 247.141V236.184C481.427 233.202 482.104 230.923 483.459 229.348C484.813 227.759 486.74 226.965 489.24 226.965C491.727 226.965 493.647 227.759 495.002 229.348C496.369 230.923 497.052 233.202 497.052 236.184V247.141C497.052 250.174 496.369 252.473 495.002 254.035C493.647 255.598 491.727 256.379 489.24 256.379C486.74 256.379 484.813 255.598 483.459 254.035C482.104 252.473 481.427 250.174 481.427 247.141ZM482.423 247.062C482.423 249.823 483.003 251.913 484.162 253.332C485.334 254.751 487.026 255.461 489.24 255.461C491.44 255.461 493.127 254.745 494.298 253.312C495.47 251.88 496.056 249.797 496.056 247.062V236.281C496.056 233.586 495.47 231.516 494.298 230.07C493.127 228.612 491.44 227.883 489.24 227.883C487.026 227.883 485.334 228.612 484.162 230.07C483.003 231.516 482.423 233.586 482.423 236.281V247.062ZM503.749 247.141V236.184C503.749 233.202 504.426 230.923 505.78 229.348C507.135 227.759 509.062 226.965 511.562 226.965C514.049 226.965 515.969 227.759 517.323 229.348C518.691 230.923 519.374 233.202 519.374 236.184V247.141C519.374 250.174 518.691 252.473 517.323 254.035C515.969 255.598 514.049 256.379 511.562 256.379C509.062 256.379 507.135 255.598 505.78 254.035C504.426 252.473 503.749 250.174 503.749 247.141ZM504.745 247.062C504.745 249.823 505.325 251.913 506.484 253.332C507.655 254.751 509.348 255.461 511.562 255.461C513.762 255.461 515.448 254.745 516.62 253.312C517.792 251.88 518.378 249.797 518.378 247.062V236.281C518.378 233.586 517.792 231.516 516.62 230.07C515.448 228.612 513.762 227.883 511.562 227.883C509.348 227.883 507.655 228.612 506.484 230.07C505.325 231.516 504.745 233.586 504.745 236.281V247.062Z" fill="#00A3C7"/>
</svg>
