<svg width="836" height="691" viewBox="0 0 836 691" fill="none" xmlns="http://www.w3.org/2000/svg">
<path d="M227 581.65L227 126.902L538.555 126.902L538.555 581.65L227 581.65Z" fill="#1B1B1B" stroke="#00A3C7"/>
<path d="M240.883 567.766L240.883 113.885L552.437 113.885L552.437 567.766L240.883 567.766Z" fill="#1B1B1B" stroke="#00A3C7"/>
<path d="M254.766 554.748L254.766 99.9998L567.188 99.9998L567.188 554.748L254.766 554.748Z" fill="#1B1B1B" stroke="#00A3C7"/>
<path d="M326.879 554.447L326.879 490.092L566.748 490.092L566.748 554.447L326.879 554.447Z" fill="#1B1B1B" stroke="#00A3C7"/>
<path d="M399.598 554.447L399.598 490.092L566.754 490.092L566.754 554.447L399.598 554.447Z" fill="#1B1B1B" stroke="#00A3C7"/>
<path d="M399.598 554.447L399.598 521.852L566.754 521.852L566.754 554.447L399.598 554.447Z" fill="#1B1B1B" stroke="#00A3C7"/>
<circle cx="411.3" cy="309.562" r="99.4645" stroke="#00A3C7"/>
<circle cx="411.302" cy="309.562" r="58.103" stroke="#00A3C7"/>
<path d="M411.305 173.33V445.795" stroke="#00A3C7"/>
<path d="M547.539 309.562L275.074 309.562" stroke="#00A3C7"/>
<circle cx="11.8176" cy="11.8176" r="11.8176" transform="matrix(1 0 0 -1 399.48 243.582)" stroke="#00A3C7"/>
<circle cx="11.8176" cy="11.8176" r="11.8176" transform="matrix(1 0 0 -1 399.48 399.178)" stroke="#00A3C7"/>
<ellipse cx="11.8176" cy="11.8176" rx="11.8176" ry="11.8176" transform="matrix(-4.37114e-08 1 1 4.37114e-08 477.285 297.744)" stroke="#00A3C7"/>
<ellipse cx="11.8176" cy="11.8176" rx="11.8176" ry="11.8176" transform="matrix(-4.37114e-08 1 1 4.37114e-08 321.684 297.744)" stroke="#00A3C7"/>
<path d="M510.781 205.442H729.043L715.158 221.063L714.341 221.144C688.823 223.695 674.762 225.1 670.898 237.552H634.015L615.79 246.664C615.79 238.42 610.149 232.345 597.565 232.345H576.737C558.686 219.848 537.395 217.302 529.006 217.591V211.95L525.535 215.422H510.781V205.442Z" fill="#1B1B1B" stroke="#00A3C7"/>
<path d="M626.637 554.313H658.747V319.996V205.442V162.917L657.011 161.182V122.129H628.372V161.182L626.637 162.917V205.442V319.996V554.313Z" fill="#1B1B1B" stroke="#00A3C7"/>
<path d="M510.781 148.598H729.043L715.158 132.977C689.122 130.374 672.2 125.167 670.03 121.695H576.737C558.686 134.192 537.395 136.738 529.006 136.449V142.09L525.535 138.618H510.781V148.598Z" fill="#1B1B1B" stroke="#00A3C7"/>
<rect x="615.355" y="205.441" width="18.2246" height="114.555" fill="#1B1B1B" stroke="#00A3C7"/>
<rect x="652.672" y="205.441" width="18.2246" height="114.555" fill="#1B1B1B" stroke="#00A3C7"/>
<rect width="18.2246" height="39.0528" transform="matrix(1 0 0 -1 652.672 366.861)" fill="#1B1B1B" stroke="#00A3C7"/>
<path d="M603.207 366.861H633.581V327.809H603.207L603.207 338.657H618.866C620.522 338.657 621.866 340 621.866 341.657V352.145C621.866 353.802 620.522 355.145 618.866 355.145H603.207V366.861Z" fill="#1B1B1B" stroke="#00A3C7"/>
<rect x="670.898" y="344.297" width="9.54624" height="6.07488" fill="#1B1B1B" stroke="#00A3C7"/>
<rect x="670.898" y="267.059" width="4.3392" height="6.07488" fill="#1B1B1B" stroke="#00A3C7"/>
<path d="M690.217 339.949C690.09 338.48 688.86 337.354 687.386 337.354H683.445C681.788 337.354 680.445 338.697 680.445 340.354V354.314C680.445 355.971 681.788 357.314 683.445 357.314H687.386C688.86 357.314 690.09 356.187 690.217 354.718C690.645 349.805 690.645 344.863 690.217 339.949Z" fill="#1B1B1B" stroke="#00A3C7"/>
<path d="M685.01 262.711C684.883 261.242 683.653 260.115 682.179 260.115H678.238C676.581 260.115 675.238 261.458 675.238 263.115V277.076C675.238 278.732 676.581 280.076 678.238 280.076H682.179C683.653 280.076 684.883 278.949 685.01 277.48C685.437 272.566 685.437 267.625 685.01 262.711Z" fill="#1B1B1B" stroke="#00A3C7"/>
<rect x="601.465" y="340.826" width="18.2246" height="12.1498" rx="2" fill="#1B1B1B" stroke="#00A3C7"/>
<path d="M608.415 290.057C611.886 287.627 614.49 283.548 615.358 281.812V319.997H601.906V302.641C601.906 295.264 604.076 293.094 608.415 290.057Z" fill="#1B1B1B" stroke="#00A3C7"/>
<rect x="606.68" y="319.996" width="7.81056" height="7.81056" fill="#1B1B1B" stroke="#00A3C7"/>
<path d="M608.41 366.861H612.749V376.143C612.749 377.248 611.854 378.143 610.749 378.143H610.41C609.306 378.143 608.41 377.248 608.41 376.143V366.861Z" fill="#1B1B1B" stroke="#00A3C7"/>
<circle cx="620.569" cy="219.327" r="3.47136" fill="#1B1B1B" stroke="#00A3C7"/>
<circle cx="665.694" cy="219.327" r="3.47136" fill="#1B1B1B" stroke="#00A3C7"/>
<circle cx="620.569" cy="261.852" r="3.47136" fill="#1B1B1B" stroke="#00A3C7"/>
<circle cx="665.694" cy="261.852" r="3.47136" fill="#1B1B1B" stroke="#00A3C7"/>
<circle cx="620.569" cy="304.376" r="3.47136" fill="#1B1B1B" stroke="#00A3C7"/>
<circle cx="665.694" cy="304.376" r="3.47136" fill="#1B1B1B" stroke="#00A3C7"/>
<path d="M639.66 554.312H642.264H646.603V562.557H646.264C644.055 562.557 642.264 564.348 642.264 566.557V581.649H639.66V554.312Z" fill="#1B1B1B" stroke="#00A3C7"/>
<path d="M643.989 546.938H632.273" stroke="#00A3C7"/>
<path d="M643.989 527.412H632.273" stroke="#00A3C7"/>
<path d="M643.989 507.885H632.273" stroke="#00A3C7"/>
<path d="M643.989 488.359H632.273" stroke="#00A3C7"/>
<path d="M643.989 468.832H632.273" stroke="#00A3C7"/>
<path d="M643.989 449.307H632.273" stroke="#00A3C7"/>
<path d="M643.989 429.779H632.273" stroke="#00A3C7"/>
<path d="M643.989 410.252H632.273" stroke="#00A3C7"/>
<path d="M643.989 390.727H632.273" stroke="#00A3C7"/>
<path d="M643.989 371.201H632.273" stroke="#00A3C7"/>
<path d="M643.984 352.107H633.57" stroke="#00A3C7"/>
<path d="M643.984 332.148H633.57" stroke="#00A3C7"/>
<path d="M643.984 312.188H633.57" stroke="#00A3C7"/>
<path d="M643.984 293.096H633.57" stroke="#00A3C7"/>
<path d="M643.984 273.135H633.57" stroke="#00A3C7"/>
<path d="M643.984 254.043H633.57" stroke="#00A3C7"/>
<path d="M643.984 234.082H633.57" stroke="#00A3C7"/>
<path d="M643.984 214.988H633.57" stroke="#00A3C7"/>
<path d="M643.989 195.463H632.273" stroke="#00A3C7"/>
<path d="M643.989 175.936H632.273" stroke="#00A3C7"/>
<path d="M643.989 156.41H632.273" stroke="#00A3C7"/>
<path d="M691.293 149.032V149.032C691.293 144.239 695.178 140.354 699.971 140.354H721.667" stroke="#00A3C7"/>
<path d="M691.293 205.876V205.876C691.293 209.231 694.013 211.951 697.368 211.951H724.271" stroke="#00A3C7"/>
</svg>
